<svg width="376" height="350" viewBox="0 0 376 350" fill="none" xmlns="http://www.w3.org/2000/svg">
<path d="M258.624 307.407H100.797V103.704H229.711C245.627 103.704 258.624 115.679 258.624 130.617V307.407Z" fill="black"/>
<path d="M123.211 137.037C128.516 136.914 133.954 136.667 139.259 136.543C145.095 136.296 150.798 136.173 156.634 135.926C165.122 135.679 173.477 135.432 181.965 135.062C187.271 134.938 192.708 134.691 198.013 134.568C202.788 134.444 207.43 134.321 212.205 134.568C218.438 134.938 224.539 136.049 230.507 137.778" fill="black"/>
<path d="M123.211 140.123C137.137 139.63 151.063 139.259 164.989 138.765C172.018 138.519 179.048 138.272 186.077 138.025C192.974 137.778 200.003 137.407 206.899 137.407C214.592 137.407 222.152 138.519 229.446 140.741C233.558 141.975 235.282 136.049 231.17 134.815C224.539 132.84 217.642 131.728 210.746 131.358C203.716 131.111 196.554 131.481 189.525 131.728C175.334 132.222 161.143 132.593 146.819 133.086C138.861 133.333 130.904 133.58 123.079 133.827C118.967 134.074 118.967 140.247 123.211 140.123Z" fill="white"/>
<path d="M121.62 164.568C121.62 179.012 121.62 193.457 121.62 207.901C121.62 211.852 128.251 211.852 128.251 207.901C128.251 193.457 128.251 179.012 128.251 164.568C128.251 160.617 121.62 160.617 121.62 164.568Z" fill="white"/>
<path d="M125.864 211.358C143.105 211.358 160.347 211.358 177.589 211.358C181.833 211.358 181.833 205.185 177.589 205.185C160.347 205.185 143.105 205.185 125.864 205.185C121.62 205.185 121.62 211.358 125.864 211.358Z" fill="white"/>
<path d="M181.302 206.296C181.302 192.346 181.302 178.519 181.302 164.568C181.302 160.617 174.671 160.617 174.671 164.568C174.671 178.519 174.671 192.346 174.671 206.296C174.671 210.247 181.302 210.247 181.302 206.296Z" fill="white"/>
<path d="M179.313 161.111C167.376 161.111 155.572 161.111 143.636 161.111C139.392 161.111 139.392 167.284 143.636 167.284C155.572 167.284 167.376 167.284 179.313 167.284C183.557 167.284 183.557 161.111 179.313 161.111Z" fill="white"/>
<path d="M196.289 169.383C196.952 170 197.748 170.741 198.411 171.358Z" fill="black"/>
<path d="M193.902 171.605C194.565 172.222 195.361 172.963 196.024 173.58C196.289 173.827 196.687 174.074 197.085 174.198C197.483 174.444 197.881 174.444 198.411 174.444C198.809 174.444 199.34 174.321 199.738 174.198C200.135 174.074 200.533 173.827 200.799 173.58C200.931 173.333 201.196 173.21 201.329 172.963C201.594 172.469 201.727 171.975 201.727 171.358C201.727 171.111 201.594 170.864 201.594 170.494C201.462 170 201.196 169.506 200.799 169.136C200.135 168.519 199.34 167.778 198.677 167.16C198.411 166.914 198.013 166.667 197.616 166.543C197.218 166.296 196.82 166.296 196.289 166.296C195.891 166.296 195.361 166.42 194.963 166.543C194.565 166.667 194.167 166.914 193.902 167.16C193.769 167.407 193.504 167.531 193.371 167.778C193.106 168.272 192.974 168.765 192.974 169.383C192.974 169.63 193.106 169.877 193.106 170.247C193.239 170.741 193.504 171.235 193.902 171.605Z" fill="white"/>
<path d="M208.093 172.469C217.51 172.469 226.926 172.469 236.343 172.469C240.587 172.469 240.587 166.296 236.343 166.296C226.926 166.296 217.51 166.296 208.093 166.296C203.716 166.296 203.716 172.469 208.093 172.469Z" fill="white"/>
<path d="M196.289 184.691C210.083 184.691 223.876 184.691 237.537 184.691C241.781 184.691 241.781 178.519 237.537 178.519C223.743 178.519 209.95 178.519 196.289 178.519C192.045 178.519 192.045 184.691 196.289 184.691Z" fill="white"/>
<path d="M196.289 196.79C209.685 196.79 222.947 196.79 236.343 196.79C240.587 196.79 240.587 190.617 236.343 190.617C222.947 190.617 209.685 190.617 196.289 190.617C192.045 190.617 192.045 196.79 196.289 196.79Z" fill="white"/>
<path d="M127.588 234.321C155.175 234.321 182.761 234.321 210.348 234.321C218.173 234.321 225.998 234.321 233.69 234.321C237.934 234.321 237.934 228.148 233.69 228.148C206.104 228.148 178.517 228.148 150.931 228.148C143.105 228.148 135.28 228.148 127.588 228.148C123.344 228.148 123.344 234.321 127.588 234.321Z" fill="white"/>
<path d="M126.262 250.494C153.716 250.494 181.037 250.494 208.491 250.494C216.316 250.494 224.141 250.494 231.966 250.494C236.21 250.494 236.21 244.321 231.966 244.321C204.512 244.321 177.191 244.321 149.737 244.321C141.912 244.321 134.087 244.321 126.262 244.321C122.018 244.321 122.018 250.494 126.262 250.494Z" fill="white"/>
<path d="M128.516 264.568C146.421 262.84 164.459 262.839 182.363 264.691C200.135 266.543 217.908 270.123 235.812 268.765" fill="black"/>
<path d="M128.516 267.654C142.575 266.296 156.634 266.049 170.692 266.79C184.618 267.654 198.411 270 212.337 271.235C220.162 271.975 227.987 272.346 235.812 271.728C237.537 271.605 239.128 270.37 239.128 268.642C239.128 267.037 237.669 265.432 235.812 265.556C221.886 266.543 207.96 264.568 194.167 262.84C180.241 261.111 166.315 259.877 152.124 260C144.166 260.123 136.341 260.494 128.384 261.235C126.66 261.358 125.068 262.469 125.068 264.321C125.201 266.049 126.66 267.778 128.516 267.654Z" fill="white"/>
<path d="M128.782 282.222C162.204 282.222 195.759 282.099 229.181 282.099Z" fill="black"/>
<path d="M128.782 285.309C154.909 285.309 181.037 285.185 207.032 285.185C214.459 285.185 221.754 285.185 229.181 285.185C233.425 285.185 233.425 279.012 229.181 279.012C203.053 279.012 176.926 279.136 150.931 279.136C143.503 279.136 136.209 279.136 128.782 279.136C124.538 279.136 124.538 285.309 128.782 285.309Z" fill="white"/>
</svg>
