<svg id="Capa_1" data-name="Capa 1" xmlns="http://www.w3.org/2000/svg" viewBox="0 0 135.5 115.77"><defs><style>.cls-1{fill:#1d1d1b;}.cls-2{fill:#fff;}</style></defs><path class="cls-1" d="M69.5,283H205a319.17,319.17,0,0,0-35-30.19,16.81,16.81,0,0,0,.66-13.07L164,221.41c.24-.48.47-1,.69-1.45H178c5.24,0,8.76-4.54,6.67-8.59l-17.89-34.76c-2.93-5.69-9.58-9.38-16.94-9.38H130.6c-14.09,0-27,6.62-33.54,17.18L80.65,211c-2.52,4.09,1,9,6.44,9h16.8l-7.2,19.78a13.83,13.83,0,0,0,2.1,13.52C74.58,270.64,69.5,283,69.5,283Z" transform="translate(-69.5 -167.23)"/><path class="cls-2" d="M90,210.1a3.81,3.81,0,0,0-.42,6.15,4,4,0,0,0,3.38.64,3.54,3.54,0,0,0,2.47-2.47,3.9,3.9,0,0,0-1-3.81.63.63,0,0,0-1,.13,5.14,5.14,0,0,0-.52,3.74c.19.79,1.4.45,1.21-.33a3.8,3.8,0,0,1,.39-2.78l-1,.13a2.11,2.11,0,0,1,.63,1.05,2.61,2.61,0,0,1,.1.54c0,.11,0,.22,0,.32s0,.14,0,.2,0,.2,0,.1a2.44,2.44,0,0,1-.5,1.22c0-.07,0,0,0,0l-.11.12a1.7,1.7,0,0,1-.24.22c.09-.07-.09.05-.08.05l-.11.07-.17.09-.08,0a2.5,2.5,0,0,1-1.29.19H91.6l-.11,0-.32-.07a1.86,1.86,0,0,1-.56-.24,2.08,2.08,0,0,1-.85-.84,2.46,2.46,0,0,1-.29-1.09,2.61,2.61,0,0,1,1.19-2.31A.63.63,0,0,0,90,210.1Z" transform="translate(-69.5 -167.23)"/><path class="cls-2" d="M92.69,206.4a2.26,2.26,0,0,0,.42,4.3c2.67.6,4.32-2.38,4-4.69a2.91,2.91,0,0,0-1.74-2.46,1.91,1.91,0,0,0-2.32.94,2.32,2.32,0,0,0,2.79,3.38A3.12,3.12,0,0,0,98,205.24a4.4,4.4,0,0,0-2-3.83l-.31,1.16a4,4,0,0,0,3.65-5.84c-.53-1-1.59-2.14-2.75-1.57a2.44,2.44,0,0,0-1.18,2.94c.88,2.33,4.73,1.4,4.34-1.12a2.35,2.35,0,0,0-2.6-2c-1.49.23-2.35,1.73-3.1,2.87l-4.3,6.59-2.16,3.3a19.27,19.27,0,0,1-1.09,1.63,2.93,2.93,0,0,1-.68.68c-.37.29-.68.28-.94,0-.33-.1-.37-.27-.09-.5l-.71-.29a4.53,4.53,0,0,1-.48,4.61.64.64,0,0,0,.1.76c2.4,2.91,6.69-.06,5.16-3.39a.64.64,0,0,0-1.08,0,3.66,3.66,0,0,0,.67,4.69.64.64,0,0,0,.88,0c1.91-2.41,1.67-5.38,1.65-8.28a15.36,15.36,0,0,1,2.48-8.44c2.94-4.72,7.36-8.74,8.48-14.4.16-.78-1-1.12-1.2-.33-.26,1.17-.48,2.5.39,3.48a1.9,1.9,0,0,0,2.56.38c1.67-1.28-.4-3.91,1-5.09.62-.52-.27-1.4-.88-.88a3.06,3.06,0,0,0-.76,2.82,5.27,5.27,0,0,1,.08,1.77c-.16.53-.6.89-1.22,0-.39-.56-.11-1.52,0-2.11l-1.2-.33c-1.1,5.53-5.49,9.48-8.36,14.1a16.22,16.22,0,0,0-2.59,7.16c-.25,3,.71,6.72-1.34,9.3h.88a2.41,2.41,0,0,1-.47-3.17H87.72a1.86,1.86,0,0,1-3.2,1.87l.1.76a5.81,5.81,0,0,0,.48-5.87.62.62,0,0,0-.7-.29c-2.1.74-.85,3.55,1.2,3.11,1.42-.3,2.16-1.75,2.88-2.85l3.23-4.95,3.23-4.94a8.57,8.57,0,0,1,1.53-2.05,1.16,1.16,0,0,1,1.66-.12,1,1,0,0,1-.1,1.55,1,1,0,0,1-1.36-1.41c.57-.85,1.28.21,1.56.78a2.73,2.73,0,0,1-2.6,3.89.64.64,0,0,0-.32,1.17c1.2.89,2.15,2.94.56,4-1.77,1.15-2.6-1.52-1.23-1.74,1.62-.25,1.27,2.77.87,3.54a2,2,0,0,1-2,1.23c-.78-.12-1.64-1.43-.5-1.89.74-.3.41-1.51-.33-1.21Z" transform="translate(-69.5 -167.23)"/><path class="cls-2" d="M100.1,214.09a1.67,1.67,0,0,0-2.3,0,1.72,1.72,0,0,0-.34,2.27,2.36,2.36,0,0,0,2.38,1,3,3,0,0,0,2-1.68,6.71,6.71,0,0,0,.37-3.58.65.65,0,0,0-.63-.63.63.63,0,0,0-.62.63,7.46,7.46,0,0,1,0,2.45,2.29,2.29,0,0,1-.87,1.38l-.2.11-.09.05c.08,0,0,0,0,0a1.41,1.41,0,0,1-.22.06c-.07,0,0,0,0,0H99.3l-.2,0-.1,0-.21-.11-.1-.07s.07.06,0,0a1.85,1.85,0,0,1-.14-.14s-.07-.09,0,0a.43.43,0,0,1,0-.07l-.05-.07c-.08-.14,0,0,0,0s0-.2,0-.08c0,0,0-.21,0-.13s0-.08,0-.12c0,.13,0,0,0-.07s.07-.09,0,0l.07-.08s.18-.13.07-.06l.18-.11c.1,0,0,0,0,0l.1,0,.1,0c-.08,0-.08,0,0,0h.08c.11,0-.06,0,0,0h.07c.11,0,0,0,0,0l.06,0c-.12-.08,0,0,0,0a.62.62,0,0,0,.88-.88Z" transform="translate(-69.5 -167.23)"/><path class="cls-2" d="M101.34,212.26h.44c-.12,0,0,0,0,0s.21.06.32.09h0l.08,0,.14.08.17.11c.1.07-.06-.06,0,0s.15.15.23.23.05.06,0,0a.18.18,0,0,1,.05.07l.09.14s.09.2,0,.07l.06.16a.94.94,0,0,0,0,.16c0,.05,0,.16,0,.05,0,.12,0,.23,0,.35s0,.06,0,.08h0a.94.94,0,0,1,0,.16s0,.1,0,.16-.06.15,0,0a1.87,1.87,0,0,1-.17.31s-.13.18,0,.07l-.11.13-.12.11s-.15.12,0,0a1.81,1.81,0,0,1-.33.2l.92.37-.13-.87a.63.63,0,0,0-.77-.44.64.64,0,0,0-.44.77l.14.87c.06.43.59.53.91.38a2.77,2.77,0,0,0-1.82-5.2.62.62,0,0,0-.43.76.64.64,0,0,0,.77.44Z" transform="translate(-69.5 -167.23)"/><path class="cls-2" d="M101.28,207.69l.06-.12-1,.12a2.38,2.38,0,0,0,3,.5,2.35,2.35,0,0,0,.86-3,2.26,2.26,0,0,0-2.64-1.18,2.67,2.67,0,0,0-2.06,2.08,3.57,3.57,0,0,0,1.47,3.44.62.62,0,0,0,.85-.23.63.63,0,0,0-.22-.85l-.06-.05-.1-.1a2.39,2.39,0,0,1-.22-.23h0l-.11-.15a2.14,2.14,0,0,1-.17-.3l0-.1c-.08-.17,0,.11,0-.07l-.09-.27-.06-.28c0,.12,0,0,0,0v-.34s0-.15,0,0a1.57,1.57,0,0,1,.06-.28,1.42,1.42,0,0,1,.05-.16c0-.12,0,0,0,0l.15-.26c.08-.13-.09.09,0,0l.07-.08.19-.18c.07-.07-.12.07,0,0l.12-.08.09,0,.1-.05c-.09,0,.06,0,.06,0l.14-.05.24-.05c-.13,0-.06,0,0,0h.26s.22,0,0,0l.23.05.11,0c.08,0-.12-.07,0,0l.21.12c-.13-.09,0,0,0,0l.11.12c-.09-.1.05.09.07.13s.08.18,0,0l0,.1a.83.83,0,0,1,0,.15s0,.17,0,.07,0,.07,0,.07a.6.6,0,0,1,0,.19.57.57,0,0,1,0,.13c0-.16,0,0,0,0a2.41,2.41,0,0,1-.08.25s.06-.11,0,0a.64.64,0,0,0-.08.14c0,.09,0,0,0,0s-.09.1-.15.15l-.07.07c.11-.1-.06,0-.09,0l-.09,0c.13-.07-.06,0-.09,0l-.1,0-.1,0c.08,0,.09,0,0,0H102s-.12,0,0,0l-.2,0-.1,0c-.07,0-.07,0,0,0l-.07,0-.12-.06-.1-.07-.05,0-.14-.15a.62.62,0,0,0-1,.13l-.06.12a.65.65,0,0,0,.22.86.64.64,0,0,0,.86-.23Z" transform="translate(-69.5 -167.23)"/><path class="cls-2" d="M98.08,209.72l0,.05c.1-.15,0-.08,0,0l-.1.1-.1.1s-.11.07-.11.09.13-.09,0,0l0,0-.12.07-.26.14.15-.06a2.4,2.4,0,0,1-.57.15l.16,0-.31,0,.54.94,0-.07s-.1.13-.05.07l.1-.1s-.14.09,0,0l0,0,.13-.06-.15.06a.89.89,0,0,1,.28-.07l-.17,0h.29l-.17,0a.79.79,0,0,1,.22.06l-.15-.06.14.07c.11.07-.05,0,0,0l.06.06s.09.1,0,0,0,0,0,0l.08.15-.07-.15a.84.84,0,0,1,.07.26l0-.17a1.41,1.41,0,0,1,0,.29l0-.17a.84.84,0,0,1-.07.26l.07-.15-.06.11,0,.05c-.06.09.1-.13,0-.05a.64.64,0,0,0,0,.89.65.65,0,0,0,.89,0,1.66,1.66,0,0,0,.18-1.94,1.59,1.59,0,0,0-1.8-.66,1.61,1.61,0,0,0-.92.7.63.63,0,0,0,.54.94,2.93,2.93,0,0,0,1.33-.32,2.82,2.82,0,0,0,1-.9.68.68,0,0,0,.07-.48.66.66,0,0,0-.29-.38.67.67,0,0,0-.48-.06.69.69,0,0,0-.38.29Z" transform="translate(-69.5 -167.23)"/><path class="cls-2" d="M101.67,199.53a1.57,1.57,0,0,0-.71,1.38,2.6,2.6,0,0,0,.56,1.48c.16.21.33.41.47.63a3,3,0,0,1,.2.34c0-.06,0,.09,0,.09s0,.16,0,.08,0,.06,0,.08a.86.86,0,0,1,0,.16c0-.11,0,0,0,0s-.06.15,0,.07,0,.05,0,.06.06-.11,0,0,.06-.11,0,0l.06,0c-.07,0-.06,0,0,0l.54.31a1.11,1.11,0,0,1-.19-.43,1.68,1.68,0,0,1,0-.47s0-.09,0,0l0-.13a.83.83,0,0,1,0-.15s0-.12,0-.07,0-.09.05-.1l.06-.11.06-.09.08-.08a.63.63,0,1,0-.89-.89,2.62,2.62,0,0,0-.33,3.17.61.61,0,0,0,.54.31,1.42,1.42,0,0,0,1.23-1,2,2,0,0,0-.22-1.62,6.32,6.32,0,0,0-.47-.68c-.09-.11-.18-.23-.26-.35l-.09-.15-.06-.11c0,.06,0-.08,0-.09s0-.12,0-.17,0,.06,0-.07a1,1,0,0,0,0-.17c0-.14,0,.08,0,0s.08-.16,0-.05.07-.14,0-.07,0,0,0,0-.06,0,0,0a.63.63,0,0,0-.64-1.08Z" transform="translate(-69.5 -167.23)"/><path class="cls-2" d="M102.49,195.69a1.86,1.86,0,0,0,.19-.11s-.15.06-.06,0h0l.12,0h.06c.06,0-.09,0-.09,0h.34l.09,0,.12,0,0,0c.06,0-.15-.07,0,0l.2.1,0,0c-.09-.07,0,0,0,0l.08.08s.1.12,0,0l0,0,.06.11s0,0,0,0,0-.13,0-.07a.45.45,0,0,1,0,.11s0,.16,0,.05,0,0,0,.07v.12c0,.11,0-.14,0,0a1.82,1.82,0,0,1-.07.25c0,.1,0,0,0-.05s0,.05,0,.06a.41.41,0,0,1,0,.09l-.08.12s0,.07,0,0,0,0,0,0-.14.12-.2.19.13-.08,0,0l-.06,0-.12.07a.11.11,0,0,0-.06,0s.14-.05.06,0l-.15,0h0c-.11,0,.12,0,0,0a.85.85,0,0,1-.16,0l.63.63,0-.9a.64.64,0,0,0-.62-.63.65.65,0,0,0-.63.63l0,.9a.63.63,0,0,0,.62.62,2.17,2.17,0,0,0,2.12-2,2.11,2.11,0,0,0-3.2-1.83.65.65,0,0,0-.23.86.63.63,0,0,0,.86.22Z" transform="translate(-69.5 -167.23)"/><path class="cls-2" d="M102,191.78a4.15,4.15,0,0,0,3.39.91.62.62,0,0,0,.43-.77.63.63,0,0,0-.77-.43h-.23c-.12,0-.24,0-.36,0l-.18,0c-.13,0,.12,0,0,0a2.33,2.33,0,0,1-.36-.08,2.24,2.24,0,0,1-.34-.11c-.05,0-.15,0,0,0a1.19,1.19,0,0,1-.16-.08,1.92,1.92,0,0,1-.31-.18l-.15-.1c-.05,0-.05,0,0,0l-.07,0a.63.63,0,0,0-.88,0,.62.62,0,0,0,0,.88Z" transform="translate(-69.5 -167.23)"/><path class="cls-2" d="M98.38,191.37l1.3,1.91a.63.63,0,0,0,.37.29.66.66,0,0,0,.48-.06.64.64,0,0,0,.23-.86l-1.3-1.91a.69.69,0,0,0-.38-.29.66.66,0,0,0-.48.06.63.63,0,0,0-.22.86Z" transform="translate(-69.5 -167.23)"/><path class="cls-2" d="M108.14,178.79a2.28,2.28,0,0,0-2.24-.41,2.16,2.16,0,0,0-1,.77,2.19,2.19,0,0,0-.4,1.08,2.21,2.21,0,0,0,.23,1.26.63.63,0,0,0,.54.31l1.46.06a.63.63,0,0,0,0-1.25l-1.46-.06.54.31c-.07-.15,0,.1,0,0a.56.56,0,0,1,0-.12l0-.1c0-.17,0,.11,0,0a1.85,1.85,0,0,1,0-.23.66.66,0,0,0,0-.14c0,.19,0,.09,0,0a2,2,0,0,1,.08-.26c0-.12-.07.13,0,0l.06-.12.07-.11c.06-.09-.1.11,0,0l.18-.18c.11-.09-.11.07,0,0l.11-.08.1,0c.09-.05-.15.05,0,0a.86.86,0,0,1,.23-.06c.11,0-.17,0,0,0h.24c.17,0-.11,0,0,0l.24.05.06,0c.06,0,0,0,0,0l.09,0,.12.07c.14.09-.07-.06,0,0a.64.64,0,0,0,.89,0,.64.64,0,0,0,0-.89Z" transform="translate(-69.5 -167.23)"/><path class="cls-2" d="M116.43,172.24a8,8,0,0,0-4,6.72c0,.8,1.22.8,1.25,0a6.77,6.77,0,0,1,3.4-5.64.63.63,0,0,0-.63-1.08Z" transform="translate(-69.5 -167.23)"/><path class="cls-2" d="M113,178.81a4.71,4.71,0,0,0-3.19,1.11h.89s-.11-.13,0,0,0,0,0,0a.91.91,0,0,1-.09-.17c.08.13,0,.1,0,0l0-.1a1.18,1.18,0,0,1,0-.2s0,.18,0,0v-.1a1.21,1.21,0,0,1,0-.19c0-.15,0,.06,0,0s0-.07,0-.1a1.17,1.17,0,0,1,0-.2l0-.1c0-.1,0,0,0,0s.06-.12.1-.18.08-.12.11-.18c-.08.14,0,.07,0,0l.07-.07.15-.14s-.13.09,0,0l.08-.05.08-.05c.06,0,.12,0,0,0,.07,0,.14-.05.22-.06l-.79-.6.1.93a.63.63,0,0,0,1.25,0l-.1-.93a.68.68,0,0,0-.25-.5.67.67,0,0,0-.55-.11,2.45,2.45,0,0,0-1.18,3.9.66.66,0,0,0,.89,0,.13.13,0,0,1,.07-.06c-.07,0-.07.05,0,0l.16-.11a2.61,2.61,0,0,1,.28-.17,1.35,1.35,0,0,1,.34-.17l-.06,0a.2.2,0,0,1,.08,0l.18-.06a1.68,1.68,0,0,1,.32-.09,1.53,1.53,0,0,1,.37-.08c-.16,0,0,0,0,0H113a.63.63,0,1,0,0-1.25Z" transform="translate(-69.5 -167.23)"/><path class="cls-2" d="M111.3,175.43a.49.49,0,0,0,0-.12c0,.21,0,.1,0,.05l0-.1s0-.14,0,0,0,0,0,0a.41.41,0,0,1,0-.09l0-.07c.05-.08-.12.14,0,0l.14-.13.06-.06c-.15.14-.06.05,0,0a1,1,0,0,1,.17-.1l.07,0c.1,0-.16.06,0,0a1.78,1.78,0,0,1,.38-.1c-.23.05,0,0,.06,0h.19c-.23,0,0,0,0,0l.1,0c.1,0-.14-.07,0,0l.17.1c.12.08-.1-.09,0,0l.08.07a.62.62,0,0,0,.88-.88,2,2,0,0,0-1.8-.52,2.28,2.28,0,0,0-1.5.94,1.86,1.86,0,0,0-.34,1,.63.63,0,0,0,1.25,0Z" transform="translate(-69.5 -167.23)"/><path class="cls-2" d="M109.84,182a3.08,3.08,0,0,0-1.13,4.35.63.63,0,0,0,1,.12l.8-.71a.64.64,0,0,0,0-.89.65.65,0,0,0-.89,0l-.8.72,1,.13-.13-.2a1.34,1.34,0,0,0-.06-.12c0-.06,0,.12,0,0l-.07-.22s-.07-.21,0-.24,0,.11,0,.06a.13.13,0,0,0,0-.06v-.11a1.92,1.92,0,0,1,0-.24s0-.07,0-.11,0,.05,0,0,0-.16.05-.24l.06-.2a.69.69,0,0,1,.05-.13c-.09.13,0,0,0,0a1.47,1.47,0,0,1,.24-.4c0,.05-.05.07,0,0l.07-.08.18-.16c.07-.07,0,0,0,0s.08-.05.1-.07l.23-.13a.62.62,0,0,0,.23-.85.65.65,0,0,0-.86-.23Z" transform="translate(-69.5 -167.23)"/><path class="cls-2" d="M107.2,186a2.33,2.33,0,0,0-1.21,1.43,1.68,1.68,0,0,0,.49,1.72,1.6,1.6,0,0,0,1.78.26,1.27,1.27,0,0,0,.55-1.53,1.5,1.5,0,0,0-.59-.79,1.07,1.07,0,0,0-1-.12.76.76,0,0,0-.37.29.62.62,0,0,0-.06.48.63.63,0,0,0,.28.38.62.62,0,0,0,.48.06l.11,0s-.17,0-.1,0h0c.08,0-.09,0-.1,0h0c.07,0,0,.06-.08,0s0,0,0,0a.05.05,0,0,1,0,0c-.15-.07-.11-.1-.08-.06l.07.07c.05.05-.1-.14,0-.06l0,0,.06.1c-.11-.18,0-.08,0,0a.29.29,0,0,1,0,.09c0,.09,0-.1,0-.09s0,0,0,.05v.06c0,.08,0,.08,0-.07a.24.24,0,0,0,0,.08c0,.08,0-.08,0-.08l0,0,0,0s.11-.12,0-.07l0,0c-.07.07.13-.08,0,0l-.06,0s.15,0,.08,0l-.11,0c-.08,0,.09,0,.09,0h-.13c-.06,0-.12,0,.06,0l-.1,0s-.17-.06,0,0,0,0,0,0l-.11-.08c.16.1.06,0,0,0l-.09-.09c.13.13.05.07,0,0s-.08-.17,0-.05,0,0,0-.06a.11.11,0,0,1,0,0c0,.14,0,.11,0,0v-.15s0,0,0-.06c0,.16,0,.1,0,0s0-.1,0-.15,0,.11,0,0l0-.09a.64.64,0,0,1,.08-.14l0-.07,0,.07,0-.05a1.79,1.79,0,0,1,.25-.23c-.11.1-.09.06-.05,0l.09-.05a1,1,0,0,1,.17-.1.64.64,0,0,0,.23-.86.65.65,0,0,0-.86-.22Z" transform="translate(-69.5 -167.23)"/><path class="cls-2" d="M107.29,190.47a1.71,1.71,0,0,0-.65.41,2.12,2.12,0,0,0-.4.66,1.88,1.88,0,0,0,0,1.26,1.59,1.59,0,0,0,1.1,1,1.84,1.84,0,0,0,1.44-.27,1.74,1.74,0,0,0,.81-1.47.64.64,0,0,0-.63-.62.62.62,0,0,0-.62.62,1,1,0,0,1,0,.17l0-.17a1.82,1.82,0,0,1-.07.25l.06-.15a1,1,0,0,1-.14.24l.1-.13a1,1,0,0,1-.23.23l.12-.09a1.49,1.49,0,0,1-.3.18l.15-.07a1,1,0,0,1-.32.09l.16,0h-.3l.17,0a.72.72,0,0,1-.25-.07l.15.07a1.06,1.06,0,0,1-.2-.12l.13.1-.17-.17.1.12a1.59,1.59,0,0,1-.13-.22l.07.15a1,1,0,0,1-.08-.29l0,.16a1,1,0,0,1,0-.35l0,.17a1.06,1.06,0,0,1,.09-.35l-.07.15a1.35,1.35,0,0,1,.15-.26l-.09.13a1.54,1.54,0,0,1,.17-.19l-.12.1a.82.82,0,0,1,.2-.12l-.15.06.07,0a.7.7,0,0,0,.37-.29.62.62,0,0,0,.06-.48.64.64,0,0,0-.77-.44Z" transform="translate(-69.5 -167.23)"/><path class="cls-2" d="M107.71,196.94a2.34,2.34,0,0,0-1.57,2.22,2,2,0,0,0,1.75,1.87,1.74,1.74,0,0,0,1.35-.37,1.69,1.69,0,0,0,.57-1,1.91,1.91,0,0,0-.2-1.28,1.52,1.52,0,0,0-1.18-.72,1.64,1.64,0,0,0-1.69,2,.64.64,0,0,0,.77.44.62.62,0,0,0,.43-.77.32.32,0,0,0,0-.09c0-.12,0,.16,0,0v-.09c0-.12,0,.15,0,0l0-.09c0-.11-.08.14,0,0l0-.09s.1-.08,0,0l.13-.14c.09-.09-.12.08,0,0l.08-.05.09,0c.11-.05-.15,0,0,0l.08,0h.16c-.16,0-.11,0,0,0s.08.06,0,0l.09,0c.06,0,.06.08,0,0a.1.1,0,0,0,0,0s.09.15,0,0l.09.15c.06.1,0-.15,0,0l0,.09s0,.06,0,.09,0-.07,0-.07,0,.14,0,.21,0,.14,0,0a.29.29,0,0,0,0,.09l-.06.18c0-.16,0-.09,0,0s0,0,0,0a.35.35,0,0,1-.05.08c0,.09.12-.12,0,0l-.07.07c-.08.08.13-.09,0,0l-.08,0c-.08,0-.09,0,0,0a.94.94,0,0,0-.16,0c-.12,0,.16,0,0,0H108c.17,0,.1,0,0,0l-.2-.06c-.06,0,0-.05,0,0l-.09,0-.09-.05-.06,0,0,0c0-.06-.11-.1-.15-.15s-.06-.11,0,0l0-.05a1,1,0,0,0-.1-.18c.09.11,0,.09,0,0a1,1,0,0,1,0-.14c0-.13,0,.15,0,0V199c0-.07,0-.05,0,.05a.17.17,0,0,1,0-.07l0-.11s0-.11,0-.14l0,.08,0-.07.08-.13.06-.1c.07-.11-.09.1,0,0a1.66,1.66,0,0,1,.18-.19l0,0q.08-.06,0,0a.77.77,0,0,0,.13-.09l.1-.05.06,0c-.09,0-.1,0,0,0a.63.63,0,0,0-.33-1.21Z" transform="translate(-69.5 -167.23)"/><path class="cls-2" d="M106.81,203.35a2.18,2.18,0,0,0-.21,1,2.48,2.48,0,0,0,.24,1,2.38,2.38,0,0,0,1.35,1.22,2.11,2.11,0,0,0,.49.09.84.84,0,0,0,.68-.32,2,2,0,0,0,.48-.92,2,2,0,0,0,0-1.05,1,1,0,0,0-.46-.61,1.56,1.56,0,0,0-.6-.15,1.6,1.6,0,0,0-1.65,1.26.67.67,0,0,0,.06.48.64.64,0,0,0,.37.29.62.62,0,0,0,.48-.07.57.57,0,0,0,.29-.37s0-.07,0-.11l0-.05c0-.06,0,0,0,.07a.25.25,0,0,1,0-.07c0-.06.11-.12,0,0l.13-.13c-.12.13-.07,0,0,0l.08-.05c.12-.06-.13.05,0,0l.11,0h.08c-.19.05-.1,0,0,0h.11s-.19,0-.06,0l.11,0-.08,0,0,0-.22-.23.06.11c0,.11,0-.14,0,0s0,.14,0,.21c0-.18,0-.1,0,0V205s0,.06,0,.09,0-.16,0,0a1.33,1.33,0,0,1,0,.19c0,.16.06-.1,0,0a.59.59,0,0,1,0,.08.35.35,0,0,1-.05.08c0,.09.11-.13,0,0s-.22.2,0,.07l.31-.08s-.16,0,0,0,0,0,0,0l-.18,0s-.12-.07,0,0l-.08,0-.15-.09s-.12-.09,0,0,0,0,0,0l-.14-.13s-.15-.21,0,0l-.11-.16-.09-.16c0-.05,0-.15,0,0l0-.08,0-.17a.19.19,0,0,0,0-.08c0-.15,0,.08,0,0a2,2,0,0,1,0-.35c0,.22,0,0,0,0a.19.19,0,0,1,0-.08c0-.15-.05.11,0,0a.64.64,0,0,0-.22-.86.64.64,0,0,0-.86.23Z" transform="translate(-69.5 -167.23)"/><path class="cls-2" d="M106.58,207.84a1.56,1.56,0,0,0,.9,2.92l-.44-.18a1.49,1.49,0,0,1,.44.58s0,.13,0,.16,0,.11,0,.17,0,0,0,0a.28.28,0,0,1,0,.09v.24c0,.1,0-.09,0,0a.29.29,0,0,0,0,.09l0,.15s-.06.09-.07.13-.06.08,0,0,0,0,0,.05l-.05.06c-.07.06.08-.06,0,0l-.15.1s-.15.06,0,0l-.2.06-.11,0h-.14s-.12,0,0,0h-.08l-.13,0-.11-.06s-.07-.07,0,0,0,0,0-.05l0-.06c.07.09,0,0,0,0l0-.07c0-.06,0,.07,0,0a.24.24,0,0,1,0-.08c0-.09,0,.1,0,0v-.2c0-.11,0,.05,0-.06l.06-.23c0-.11,0,0,0,0a.59.59,0,0,1,0-.08,1.08,1.08,0,0,1,.11-.18s.07-.1,0,0l.06-.07a1.29,1.29,0,0,1,.17-.16,2.25,2.25,0,0,1,.84-.38l.55-.13.51-.07a.65.65,0,0,0,.63-.62.63.63,0,0,0-.63-.63,4.46,4.46,0,0,0-3,1.2,1.91,1.91,0,1,0,2.67,2.72,2.34,2.34,0,0,0,.23-2.87,2.47,2.47,0,0,0-.53-.63.61.61,0,0,0-.44-.19s-.26,0-.13,0l-.12,0c-.07,0-.07,0,0,0l-.1-.07c.08.06,0,0,0,0s0-.06,0,0l-.06-.11c0,.11,0-.06,0-.07s0,0,0-.06c0,.14,0,0,0-.06s0,.08,0-.06,0,.11,0-.06,0-.05,0,0l.1-.06a.64.64,0,0,0,.22-.86.63.63,0,0,0-.85-.22Z" transform="translate(-69.5 -167.23)"/><path class="cls-2" d="M105,214.51a.83.83,0,0,1,0,.15s0,.1,0,0,0,0,0,0a1.29,1.29,0,0,1,0,.28c0,.08,0-.15,0,0a.17.17,0,0,0,0,.07,1,1,0,0,0,0,.14.19.19,0,0,0,0,.07c0,.09,0,0,0,0a.83.83,0,0,0-.07.13.75.75,0,0,1-.07.12l0,.07c0,.07,0,0,0-.05l-.2.22-.06,0s.12-.08,0,0l-.11.08-.14.06s.14-.05,0,0l-.08,0a.64.64,0,0,0-.27,1.05l.41.45a.62.62,0,0,0,.88,0,.64.64,0,0,0,0-.88L105,216,104.7,217a2.35,2.35,0,0,0,1.54-2.82.65.65,0,0,0-.77-.44.63.63,0,0,0-.44.77Z" transform="translate(-69.5 -167.23)"/><path class="cls-2" d="M107.75,224.93a19.52,19.52,0,0,0-2.5,19c.3.73,1.51.41,1.2-.34a18.43,18.43,0,0,1,2.38-18.05c.49-.64-.59-1.26-1.08-.63Z" transform="translate(-69.5 -167.23)"/><path class="cls-2" d="M101.37,242.05a5.55,5.55,0,0,0,.69,7,.64.64,0,0,0,.89,0l.71-.66c.58-.55-.3-1.43-.89-.88l-.71.66H103a4.3,4.3,0,0,1-.5-5.53.63.63,0,0,0-1.08-.63Z" transform="translate(-69.5 -167.23)"/><path class="cls-2" d="M104.05,246a3.1,3.1,0,0,0,2.39,4.62.63.63,0,1,0,0-1.25h-.08c-.07,0-.06,0,0,0s-.11,0-.13,0l-.28-.09c-.12,0,.11.06,0,0l-.11-.06c-.06,0-.22-.1-.25-.16l0,0s0,0,0,0a.52.52,0,0,1-.11-.1,1.8,1.8,0,0,1-.19-.2c-.09-.09.07.1,0,0l-.09-.12a2,2,0,0,1-.14-.25.31.31,0,0,1-.06-.13l0,.07,0-.08a1.61,1.61,0,0,1-.09-.29l0-.13s0-.05,0-.08v.08s0-.24,0-.3v-.12a.28.28,0,0,1,0-.09c0-.07,0-.05,0,0a1.48,1.48,0,0,1,0-.24.58.58,0,0,1,0-.14c0-.15,0,.08,0,0a1.35,1.35,0,0,1,.15-.26.63.63,0,1,0-1.08-.63Z" transform="translate(-69.5 -167.23)"/><path class="cls-2" d="M104.38,252.05a2.85,2.85,0,0,0,3.11.88,2.89,2.89,0,0,0,1.88-2.73.63.63,0,1,0-1.25,0v.17s0,.19,0,.06a2.61,2.61,0,0,1-.06.27l-.06.16,0,0a2,2,0,0,1-.14.25l0,.05a.69.69,0,0,1-.11.13,1.8,1.8,0,0,1-.2.19c.09-.08,0,0-.06,0l-.14.09-.12.06s0,0,0,0l-.08,0-.3.07c-.12,0,0,0,0,0h-.31s-.2,0-.06,0l-.3-.07-.13,0c-.17-.06.1.05-.06,0l-.27-.16s-.1-.07,0,0l-.13-.11a2.73,2.73,0,0,1-.23-.25.62.62,0,0,0-.88,0,.64.64,0,0,0,0,.88Z" transform="translate(-69.5 -167.23)"/><path class="cls-2" d="M108.31,245.24c-.07,0,0,0,.06,0l.14.08.12.07c.17.11,0,0,.06,0a2,2,0,0,1,.21.2,1.72,1.72,0,0,1,.16.18l.16.26a1,1,0,0,1,.07.15c0-.08,0,0,0,.06s.06.19.08.29,0,.17,0,.11,0,.12,0,.12a2,2,0,0,1-1,1.84.63.63,0,0,0-.22.85.62.62,0,0,0,.85.22,3.2,3.2,0,0,0,1.62-3,3.25,3.25,0,0,0-2-2.74.62.62,0,1,0-.33,1.2Z" transform="translate(-69.5 -167.23)"/><path class="cls-2" d="M109.19,240.6l.11.06.07.05-.06-.05s.15.14.18.17.09.08.08.1-.06-.08,0-.05a.1.1,0,0,0,0,.05,1.55,1.55,0,0,1,.12.22l.06.11,0,0s0,0,0,0a1.82,1.82,0,0,1,.07.25l0,.12a.13.13,0,0,1,0,.06q0,.08,0-.06s0,.21,0,.26a2.09,2.09,0,0,1,0,.25v0c0,.07,0,.06,0,0s0,.12,0,.13l-.06.24s0,.08,0,.12.06-.11,0,0l-.12.22-.06.08c-.08.12,0,0,0,0l-.18.18-.05,0-.07.05.85.22-.4-.86a.62.62,0,0,0-.85-.23.64.64,0,0,0-.22.86l.39.87a.64.64,0,0,0,.86.22,2.89,2.89,0,0,0-.09-4.78.62.62,0,0,0-.85.22.64.64,0,0,0,.22.86Z" transform="translate(-69.5 -167.23)"/><path class="cls-2" d="M109.76,232.79A4.22,4.22,0,0,0,110,235a2.7,2.7,0,0,1,.19,1.77,1,1,0,0,1-.2.27c-.07.06,0,0-.09.07s-.18.08-.1.06l-.09,0c-.11,0,0,0-.11,0s.11,0,0,0c.08,0,0,.06,0,0,0,.09,0,0,0,0s0,0,0,0,0-.16,0-.06,0-.07,0-.08,0,0,0,.05a.19.19,0,0,1,0-.07s0,0,0,0l0-.06s0,0,0,.05,0,0,0,0-.13,0,0,0a.63.63,0,0,0-.34-1.21,1.29,1.29,0,0,0-.81,1.73,1.42,1.42,0,0,0,2.09.73,2.34,2.34,0,0,0,1-2.52,11.25,11.25,0,0,0-.37-1.38,2.67,2.67,0,0,1-.12-1.25.62.62,0,1,0-1.2-.33Z" transform="translate(-69.5 -167.23)"/><path class="cls-2" d="M111.46,228.5a2.09,2.09,0,0,0,.91,2.38,1.83,1.83,0,0,0,2.37-.26,2.23,2.23,0,0,0,.48-2.18,1.84,1.84,0,0,0-.79-1,1.9,1.9,0,0,0-1.12-.24,2.38,2.38,0,0,0-1.29.53,1.79,1.79,0,0,0-.63,1.08.67.67,0,0,0,.06.48.66.66,0,0,0,.37.29.65.65,0,0,0,.49-.06.63.63,0,0,0,.28-.38,1.16,1.16,0,0,1,0-.18l0-.09c0-.05,0,.09,0,.09l0-.06c0-.05.06-.1.09-.16l0,.08,0,0,.07-.08.06,0,0,0s-.13.1-.06.05l.16-.1.08,0c.14-.07,0,0,0,0l.19-.06.09,0s.15,0,0,0,0,0,0,0h.2c.06,0,.15,0,0,0l.19,0c.06,0,.14.07,0,0l.07,0,.08,0s.13.1,0,0,0,0,0,0l.07.07c.08.1-.08-.11,0,0l.06.09,0,.08c.06.1,0-.14,0,0a1.21,1.21,0,0,1,0,.18s0,.07,0,.1,0-.16,0-.11a.13.13,0,0,0,0,.06v.2s0,.15,0,0,0,0,0,0a1.05,1.05,0,0,1,0,.19l0,.08c0,.13.06-.12,0,0a1,1,0,0,1-.1.17.35.35,0,0,1,0,.08c0,.08.11-.12,0,0l-.13.14,0,0c-.06,0,.12-.09.06-.05l-.07.05-.08,0h0c-.09,0,.13-.05.06,0l-.17,0c-.09,0,.16,0,0,0h-.19c-.06,0,.11,0,.1,0a.22.22,0,0,1-.11,0l-.1,0-.06,0c-.08,0,.06,0,.06,0s-.16-.09-.21-.12,0,0,0,0l0,0-.09-.08-.09-.09,0,0c-.06-.06,0,0,0,.06a.68.68,0,0,1-.14-.23l0,0c0-.09,0,.12,0,0l0-.12,0-.12v0c0-.1,0,.13,0,.06s0-.08,0-.12,0-.18,0-.06,0,0,0-.05a.74.74,0,0,1,0-.14.62.62,0,0,0-1.2-.33Z" transform="translate(-69.5 -167.23)"/><path class="cls-2" d="M111.89,224.94v3a.63.63,0,0,0,1.25,0v-3a.64.64,0,0,0-.62-.63.65.65,0,0,0-.63.63Z" transform="translate(-69.5 -167.23)"/><path class="cls-2" d="M109.18,222.92c0,.06,0,.18,0,0,0,0,0,.06,0,.08l-.06.18c.07-.21,0,0,0,0a.47.47,0,0,1-.06.09c.11-.16.07-.08,0,0l-.13.14s-.15.1,0,0a.18.18,0,0,1-.07,0l-.16.1-.1.05c.17-.09.08,0,0,0l-.19,0-.09,0c-.14,0,.09,0,0,0h-.29s-.15,0,0,0,0,0,0,0l-.09,0-.09,0c-.1,0,.16.08,0,0l-.16-.09s.13.11,0,0l-.08-.08a.63.63,0,0,0-.88,0,.62.62,0,0,0,0,.88,2,2,0,0,0,1.78.53,2.27,2.27,0,0,0,1.49-.93,1.75,1.75,0,0,0,.33-1,.63.63,0,0,0-.62-.63.65.65,0,0,0-.63.63Z" transform="translate(-69.5 -167.23)"/><path class="cls-2" d="M108.83,220.49l.06-.06s.08,0,0,0l.12-.08c.05,0,.21-.08,0,0l.15-.06.12,0c.16,0-.15,0,0,0s.21,0,.31,0-.17,0-.06,0h.07l.13,0,.14,0s.12,0,0,0l0,0,.23.14c.09.06-.12-.1,0,0l0,0a1.36,1.36,0,0,1,.12.12l0,0c.08.08-.09-.13,0,0l.07.11.06.11c0,.11-.05-.15,0,0l0,.09,0,.14c0-.19,0,0,0,0v.15c0,.08,0-.18,0-.06a.29.29,0,0,1,0,.09.88.88,0,0,1,0,.15c0-.14,0-.11,0-.07l0,.09-.08.13,0,.05c.08-.15.06-.07,0,0a2.39,2.39,0,0,1-.23.22l0,0s0,0-.08.06l-.14.08-.08,0s-.13,0,0,0l-.18.06-.15,0c-.12,0,.16,0,0,0h-.27c-.06,0-.11,0,.06,0l-.09,0L109,222c.14,0,.11.05.06,0L109,222a.63.63,0,0,0-.86.22.64.64,0,0,0,.23.86,2.33,2.33,0,0,0,3.21-1.25,1.91,1.91,0,0,0-.21-1.75,2.43,2.43,0,0,0-1.46-1,2.16,2.16,0,0,0-2,.5.64.64,0,0,0,0,.89.65.65,0,0,0,.89,0Z" transform="translate(-69.5 -167.23)"/><path class="cls-2" d="M117.45,227.57a7,7,0,0,0-1,4.45l1.22-.16c-.13-.39-.14-.78.28-1a.88.88,0,0,1,1,.14,3,3,0,0,1,.78,1.74,2.43,2.43,0,0,1-.44,1.75,2.85,2.85,0,0,1-2.27.87l.62.62v-1h-1.24a3.9,3.9,0,0,0,.35,1.38c.12.29.44.81.3,1.13-.32.72.75,1.36,1.08.63a2,2,0,0,0,0-1.57,5.82,5.82,0,0,1-.53-1.57.62.62,0,0,0-1.24,0v1a.62.62,0,0,0,.62.62c2,0,3.74-1.08,4-3.17.17-1.63-.8-4-2.73-3.9a1.94,1.94,0,0,0-1.77,2.64c.21.62,1.31.57,1.23-.17a5.84,5.84,0,0,1,.85-3.82c.43-.68-.65-1.31-1.08-.63Z" transform="translate(-69.5 -167.23)"/><path class="cls-2" d="M114.6,242.86c.15,0,.19,0,.09-.07s0-.1,0-.09a.58.58,0,0,1,.46.14c.37.31.33.94.28,1.37a8.29,8.29,0,0,1-1,3l.54-.31c.91.07.59,1.79.41,2.29a3.33,3.33,0,0,1-1.59,1.83.63.63,0,0,0,.32,1.17l1.11,0-.54-.31a1.74,1.74,0,0,1-.85,2.29.63.63,0,0,0-.13,1,.29.29,0,0,1-.19.5.63.63,0,0,0,0,1.25,1.55,1.55,0,0,0,1.07-2.63l-.12,1a3,3,0,0,0,1.3-4,.63.63,0,0,0-.54-.31l-1.11,0,.31,1.16c1.73-1,3.21-3.6,2-5.51a1.47,1.47,0,0,0-2.39-.28,1.18,1.18,0,0,0,.9,1.84.61.61,0,0,0,.54-.31c.84-1.53,2.36-5.47-.19-6.27a1.39,1.39,0,0,0-1.92,1.24,1.28,1.28,0,0,0,1.81,1.16c.73-.33.09-1.41-.63-1.08Z" transform="translate(-69.5 -167.23)"/><path class="cls-2" d="M101.05,234.37a9.14,9.14,0,0,0-.25,5.64.63.63,0,0,0,1.21-.34,8,8,0,0,1,.24-5,.62.62,0,1,0-1.2-.33Z" transform="translate(-69.5 -167.23)"/><path class="cls-2" d="M104.82,227.37l.43-.44-1-.13a1.17,1.17,0,0,0,0,.11c.06.1,0-.09,0,0s.05.14.07.22a1.55,1.55,0,0,1,0,.21c0,.08,0-.14,0,0s0,.08,0,.12v.2s0,.08,0,.12,0-.1,0,0a3.54,3.54,0,0,1-.11.44l0,.09c-.05.14.06-.12,0,0a1.62,1.62,0,0,1-.1.18,1.45,1.45,0,0,1-.12.19c-.06.1,0,0,0,0s-.07.09-.08.1l-.14.14-.09.09c-.11.09.11-.08,0,0l-.17.11-.11.06h0a.65.65,0,0,0-.44.77.64.64,0,0,0,.77.44,3,3,0,0,0,1.69-1.79,2.94,2.94,0,0,0-.17-2.36.64.64,0,0,0-1-.13l-.42.44a.63.63,0,1,0,.88.89Z" transform="translate(-69.5 -167.23)"/><path class="cls-2" d="M109.94,229.56a1.65,1.65,0,0,0-1.87.3,2.4,2.4,0,0,0-.76,1.89,19.63,19.63,0,0,1,.16,2,1.79,1.79,0,0,1,0,.27,1,1,0,0,1-.11.29l-.1.17c.06-.08-.06.06-.07.06a.44.44,0,0,1-.16.1.63.63,0,0,0-.43.77.62.62,0,0,0,.76.43,2.51,2.51,0,0,0,1.38-2.89,3.78,3.78,0,0,1,0-1.86,1.3,1.3,0,0,1,.34-.4.5.5,0,0,1,.23-.09c-.1,0,.07,0,.09,0s.08,0,0,0a.64.64,0,0,0,.86-.23.62.62,0,0,0-.23-.85Z" transform="translate(-69.5 -167.23)"/><path class="cls-2" d="M113.5,235.81l-.33,3.53a.62.62,0,0,0,.63.62.63.63,0,0,0,.62-.62l.33-3.53a.63.63,0,0,0-.62-.63.65.65,0,0,0-.63.63Z" transform="translate(-69.5 -167.23)"/><path class="cls-2" d="M118.84,243.43a39.52,39.52,0,0,0-.67,12.08c.08.79,1.33.8,1.25,0a38.24,38.24,0,0,1,.63-11.74c.16-.79-1-1.12-1.21-.34Z" transform="translate(-69.5 -167.23)"/><path class="cls-2" d="M123.38,238.46a1.52,1.52,0,0,0-1.42.85.65.65,0,0,0,.1.76,3.4,3.4,0,0,1,.24,5,.63.63,0,0,0,.12,1,2,2,0,0,1,1,1.9,2,2,0,0,1-.37,1.14c-.24.31-.45.39-.47.82s.13,1.05.12,1.58a8.08,8.08,0,0,1-.21,1.62,8.45,8.45,0,0,1-1.36,3c-.46.66.62,1.28,1.08.63a9.58,9.58,0,0,0,1.59-7.07l-.16.61a3.38,3.38,0,0,0-.59-5.3l.12,1a4.65,4.65,0,0,0-.23-6.73l.09.76.34-.24a.63.63,0,0,0,0-1.25Z" transform="translate(-69.5 -167.23)"/><path class="cls-2" d="M123.53,231.67a5.46,5.46,0,0,0-.83,2.85,2.54,2.54,0,0,0,1.3,2.06,1.7,1.7,0,0,0,2.2-.55,1.54,1.54,0,0,0-.11-2.05.64.64,0,0,0-.89,0,2.6,2.6,0,0,0-.58,2.43,2.07,2.07,0,0,0,1.82,1.44,1.7,1.7,0,0,0,1.75-1.19,1.67,1.67,0,0,0-.7-1.93.63.63,0,0,0-.64,1.08s.14.09.08,0,0,.08,0,0a.41.41,0,0,1,.07.11c0,.06,0-.07,0,0s0,.19,0,0v.11c0,.15,0-.07,0,.07l0,.11c0,.13,0-.06,0,.06l-.06.09c.06-.09,0,0-.05.05s0,0,0,0,.09,0-.09,0l-.13,0c.11,0-.08,0-.09,0s0,0-.06,0a.79.79,0,0,1-.68-.62,1.18,1.18,0,0,1,0-.56,1.48,1.48,0,0,1,.28-.56h-.89s.11.12,0,0,.07.16,0,0c0,0,0,.16,0,0,0,0,0,.19,0,0,0,.06,0,.11,0,.16s0,0,0,0l-.08.14c0,.06,0-.05,0,0l-.12.12c.1-.08,0,0-.06,0s-.06,0,0,0,0,0,0,0-.07,0,0,0h0a.78.78,0,0,1-.43-.16,1.37,1.37,0,0,1-.48-1.22,4.83,4.83,0,0,1,.66-1.86.64.64,0,0,0-.23-.86.62.62,0,0,0-.85.23Z" transform="translate(-69.5 -167.23)"/><path class="cls-2" d="M126.07,229.43a2.17,2.17,0,0,1,0,.36.37.37,0,0,1,0,.15c.05-.13,0,0,0,0a1.81,1.81,0,0,1-.09.31l-.06.16c0-.1,0,0,0,0a1.74,1.74,0,0,1-.15.26l-.09.15s-.13.17,0,.06a5.33,5.33,0,0,1-.46.49.63.63,0,0,0,.44,1.07h.29a.88.88,0,0,1,.28,0h0l.12,0,.27.08.11,0c.07,0-.09,0,0,0l.27.15.1.06s.09.07,0,0l.23.21a.64.64,0,0,0,.89,0,.65.65,0,0,0,0-.89,3.44,3.44,0,0,0-2.62-1l.44,1.06a3.58,3.58,0,0,0,1.28-2.9.64.64,0,0,0-.63-.62c-.3,0-.66.28-.62.62Z" transform="translate(-69.5 -167.23)"/><path class="cls-2" d="M126.93,255.77a7.06,7.06,0,0,0,.18-9.75l-.28,1a5.15,5.15,0,0,0,3.68-7.41c-.36-.72-1.43-.09-1.08.63a3.9,3.9,0,0,1-2.93,5.58.62.62,0,0,0-.28,1,5.78,5.78,0,0,1-.18,8c-.58.56.31,1.44.89.89Z" transform="translate(-69.5 -167.23)"/><path class="cls-2" d="M120,238.29l-2.27,1a.62.62,0,0,0-.29.38.67.67,0,0,0,.06.48.63.63,0,0,0,.38.28.73.73,0,0,0,.48-.06l2.27-1A.63.63,0,0,0,121,239a.66.66,0,0,0-.06-.48.65.65,0,0,0-.38-.29.73.73,0,0,0-.48.06Z" transform="translate(-69.5 -167.23)"/><path class="cls-2" d="M110.79,256a3.88,3.88,0,0,0-2-.2,6,6,0,0,1-.84.07h-.32s.1,0,0,0l-.2,0s-.22-.08-.12,0l-.17-.1-.07,0s.06.06,0,0-.09-.07-.1-.11.08.13,0,0l0-.07c-.05-.08,0,0,0,0s0-.05,0-.06a.48.48,0,0,1,0-.15s0,.14,0,.07,0-.06,0-.09,0,0,0-.06,0,0,0,0a.5.5,0,0,0,0-.13c0-.08-.07.1,0,0l0-.06c0-.08-.09.08,0,0s-.05,0-.05,0l0,0c-.08,0,0,0,0,0s0,0,0,0h.07c.08,0-.09,0,0,0s.06,0,.07,0-.08-.06,0,0l.09.05c.07,0-.06-.06,0,0l.08.07,0,0c0-.06,0,0,0,0a.41.41,0,0,1,0,.09c.05.08,0-.09,0,0s0,.07,0,.11,0-.08,0,0v.13a.57.57,0,0,1,0,.13c0,.11,0-.07,0,0l-.06.26a3.09,3.09,0,0,1-.17.45.63.63,0,0,0,1,.76l1.26-1.44a.62.62,0,1,0-.88-.88l-1.27,1.43,1,.76a2.63,2.63,0,0,0,.15-2.52,1.47,1.47,0,0,0-2.16-.46,1.59,1.59,0,0,0-.25,1.91,2.17,2.17,0,0,0,2,1,10,10,0,0,0,1.21-.1c.2,0,.4,0,.6,0h.21l.15,0s.19.06.09,0a.64.64,0,0,0,.85-.22.63.63,0,0,0-.22-.86Z" transform="translate(-69.5 -167.23)"/><path class="cls-2" d="M112,252.91a9,9,0,0,0,2-6.5.63.63,0,0,0-1.25,0,7.78,7.78,0,0,1-1.59,5.62.64.64,0,0,0,0,.88.63.63,0,0,0,.89,0Z" transform="translate(-69.5 -167.23)"/><path class="cls-2" d="M128.3,241.61l0-.78-.79.6c.12,0-.13-.07,0,0l.07,0,.08.06c.06,0-.11-.1,0,0l.12.14c.06.05-.08-.13,0,0a.41.41,0,0,1,0,.09.35.35,0,0,1,0,.08c0,.1,0-.11,0,0l.06.18s0,.13,0,0,0,0,0,0a.11.11,0,0,1,0,.08c0,.07,0,.11,0,0l0,.15c0,.15,0,0,0,0l0,.09a1,1,0,0,0-.09.13c0-.11.07-.08,0,0l-.07.07-.06.06,0,0-.16.09c-.09,0,0,0,0,0l-.1,0c-.06,0-.27,0,0,0a.75.75,0,0,0-.45.18.67.67,0,0,0-.18.45c0,.3.28.66.63.62a1.89,1.89,0,0,0,1.16-.53,1.7,1.7,0,0,0,.53-1,1.82,1.82,0,0,0-.23-1.25,1.92,1.92,0,0,0-1-.82.59.59,0,0,0-.54.11.67.67,0,0,0-.25.49l0,.78a.62.62,0,0,0,.62.62.64.64,0,0,0,.63-.62Z" transform="translate(-69.5 -167.23)"/><path class="cls-2" d="M125.05,252.06l.11.08L125,252a1.28,1.28,0,0,1,.28.29l-.09-.13a2,2,0,0,1,.2.35l-.07-.15a1.69,1.69,0,0,1,.12.44l0-.17a1.55,1.55,0,0,1,0,.43l0-.17a1.36,1.36,0,0,1-.09.36l.06-.15,0,.05a.67.67,0,0,0-.06.48.6.6,0,0,0,.28.38.64.64,0,0,0,.86-.23,2.21,2.21,0,0,0,.21-.84,2.06,2.06,0,0,0-.09-.74,2.21,2.21,0,0,0-.94-1.26.64.64,0,0,0-.86.23.63.63,0,0,0,.23.85Z" transform="translate(-69.5 -167.23)"/><path class="cls-2" d="M121,250.45v1.77a.63.63,0,0,0,.62.63.65.65,0,0,0,.63-.63v-1.77a.63.63,0,0,0-.63-.62.62.62,0,0,0-.62.62Z" transform="translate(-69.5 -167.23)"/><path class="cls-2" d="M121,243.13l-.27,3a.63.63,0,1,0,1.25,0l.27-3a.63.63,0,1,0-1.25,0Z" transform="translate(-69.5 -167.23)"/><path class="cls-2" d="M132.29,231.21c-.35.31-.6.71-1.06.84s-.65,1.11,0,1.21a1.23,1.23,0,0,1,1.14,1,1.19,1.19,0,0,1-.78,1.3.63.63,0,0,0,.16,1.23,1.51,1.51,0,0,1,.81,2.7l.92.71c.13-.45.4-.61.75-.91l-1-.28c.08.41-.2.52-.51.73-.67.45,0,1.53.63,1.08a2.88,2.88,0,0,0,.94-.83,1.8,1.8,0,0,0,.15-1.31.64.64,0,0,0-1-.28,3,3,0,0,0-1.07,1.46c-.15.49.47,1,.92.71a2.84,2.84,0,0,0,1.12-3.06,2.73,2.73,0,0,0-2.56-2l.17,1.22a2.42,2.42,0,0,0-.36-4.71v1.21a4.16,4.16,0,0,0,1.61-1.17c.6-.54-.28-1.42-.88-.88Z" transform="translate(-69.5 -167.23)"/><path class="cls-2" d="M133.89,239.31a9.82,9.82,0,0,0,4.77-5.37c.24-.77-1-1.09-1.21-.33a8.53,8.53,0,0,1-4.19,4.62c-.71.39-.08,1.47.63,1.08Z" transform="translate(-69.5 -167.23)"/><path class="cls-2" d="M139.37,233.29A41.19,41.19,0,0,0,139,246.9c.1.79,1.35.8,1.25,0a40.21,40.21,0,0,1,.35-13.27c.16-.79-1-1.12-1.21-.34Z" transform="translate(-69.5 -167.23)"/><path class="cls-2" d="M134.33,241c-.92,1.74,0,3.52.94,5a5.33,5.33,0,0,1,1,2.26,1.77,1.77,0,0,1-.7,1.75.63.63,0,0,0,.63,1.08c1.54-.91,1.56-2.91.91-4.37s-2.61-3.37-1.69-5.11c.37-.71-.71-1.34-1.08-.63Z" transform="translate(-69.5 -167.23)"/><path class="cls-2" d="M132.47,244.78l-.93.09a.63.63,0,0,0-.6.79c.38,1.33,1.16,2.48,1.57,3.79a3,3,0,0,1-.36,3c-.55.59.33,1.48.88.89a4,4,0,0,0,.79-3.75c-.33-1.49-1.26-2.75-1.68-4.21l-.6.79.93-.09a.65.65,0,0,0,.63-.63.63.63,0,0,0-.63-.62Z" transform="translate(-69.5 -167.23)"/><path class="cls-2" d="M129.7,253.5l.91-.05-.6-.79a6.78,6.78,0,0,0,.36,5.86c.39.7,1.47.07,1.08-.63a5.62,5.62,0,0,1-.24-4.9.62.62,0,0,0-.6-.79l-.91.05a.63.63,0,0,0-.63.62.64.64,0,0,0,.63.63Z" transform="translate(-69.5 -167.23)"/><path class="cls-2" d="M136.08,253.38a1.72,1.72,0,0,1,.5,1.75,1.75,1.75,0,0,1-1.31,1.18l.61,1.05c.1-.09,0,0,.08-.06l.07,0c.06,0-.05,0,.06,0h.1a.43.43,0,0,1,.22.07.33.33,0,0,1,.12.11.34.34,0,0,1,0,.34.56.56,0,0,1-.16.21s-.11.06-.11.06-.11,0,0,0a.65.65,0,0,0-.63.63.63.63,0,0,0,.63.62,1.68,1.68,0,0,0,1.33-.83,1.63,1.63,0,0,0,.07-1.6,1.72,1.72,0,0,0-2.64-.41.63.63,0,0,0,.6,1,2.94,2.94,0,0,0,1.37-5c-.59-.56-1.47.32-.89.88Z" transform="translate(-69.5 -167.23)"/><path class="cls-2" d="M144.35,235.54l-.88-.07a.64.64,0,0,0-.63.63c.15,1.89-.67,3.73-.37,5.63a3.34,3.34,0,0,0,3,3,2.15,2.15,0,0,0,2.18-2.52,1.76,1.76,0,0,0-2.86-1.14,3.12,3.12,0,0,0-1.17,2.14c-.11,1.11.33,2.21.18,3.32-.11.79,1.1,1.13,1.21.33a11.82,11.82,0,0,0-.13-2.72,2.3,2.3,0,0,1,.47-1.9c.27-.31.82-.52,1,0a1,1,0,0,1-.26,1.09c-.45.39-1.18.13-1.6-.2a2.59,2.59,0,0,1-.87-1.87c-.15-1.72.57-3.39.43-5.11l-.62.62.88.07c.8.07.8-1.18,0-1.25Z" transform="translate(-69.5 -167.23)"/><path class="cls-2" d="M142.07,251.3l-.08,0a.46.46,0,0,1-.13-.12,1.28,1.28,0,0,1-.1-.29.71.71,0,0,1,.15-.65c.51-.46,1.43.07,1.63.67.6,1.72-1.74,3.78-3.31,2.69a.63.63,0,0,0-.92.37,2.82,2.82,0,0,0,2.5,3.3.63.63,0,0,0,.63-.62.64.64,0,0,0-.63-.63,1.55,1.55,0,0,1-1.29-1.72l-.92.37a3.11,3.11,0,0,0,3.25,0,3.83,3.83,0,0,0,2-2.92,2.6,2.6,0,0,0-1.66-2.81,2,2,0,0,0-2.61,1.14,1.87,1.87,0,0,0,1.49,2.47.62.62,0,0,0,.62-.62.64.64,0,0,0-.62-.63Z" transform="translate(-69.5 -167.23)"/><path class="cls-2" d="M145.22,231.26a5.12,5.12,0,0,1,0,.68l0,.33a.25.25,0,0,1,0,.09c0-.13,0-.07,0,0a1.7,1.7,0,0,0,0,.22c0,.23-.12.46-.19.68,0,.05,0,.08,0,0s0,.06,0,.08l-.07.15-.09.15,0,0c-.06.1,0,0,0,0s-.18.2-.22.24,0,0,0,0l-.07,0-.17.1-.07,0c-.08,0,.11,0,0,0l-.13,0-.11,0c.11,0,.13,0,.07,0H144a1.31,1.31,0,0,1-.28,0h-.08c-.08,0,.14,0,0,0l-.17,0-.31-.09c-.1,0,.12.06,0,0l-.14-.08,0,0c-.1-.06,0,0,0,0s-.08-.07-.1-.09,0-.05-.05-.05.07.12,0,0a.13.13,0,0,0,0-.05c-.06-.08,0,.09,0,0l0-.06c0-.06,0,.14,0,.07s0-.2,0-.07,0,0,0,0,.07-.06,0,0,.06-.11.09-.15-.12.12,0,0l.07-.07.07-.06c.05,0-.14.09,0,0l.18-.11.09,0c.12-.06-.13.05,0,0l.23-.08.19,0,.11,0c.12,0-.17,0,0,0a2,2,0,0,1,.42,0h.09c-.21,0-.11,0-.05,0l.19.05h0l-.08,0,.09.05.06,0c-.13-.06-.11-.08,0,0s-.07-.13,0,0a.1.1,0,0,0,0,.07s-.05-.16-.05-.1,0,0,0,0,0-.19,0-.06a.27.27,0,0,0,0,.09s0-.16,0,0a.56.56,0,0,0,0,.12c0,.07.07-.14,0,0a2,2,0,0,1-.17.27l0,.06c-.05.07.1-.12,0,0l-.15.17a.64.64,0,0,0,0,.82.62.62,0,0,0,.81.16l.53-.37a.63.63,0,0,0-.63-1.08l-.53.37.76,1a2.48,2.48,0,0,0,.74-1.43,1.19,1.19,0,0,0-.57-1.09,2.5,2.5,0,0,0-2.2-.07,2.06,2.06,0,0,0-1,.77,1.33,1.33,0,0,0,0,1.49,2.22,2.22,0,0,0,1.52.87,2.38,2.38,0,0,0,1.75-.3c1.18-.8,1.4-2.39,1.37-3.71a.63.63,0,0,0-.62-.63.65.65,0,0,0-.63.63Z" transform="translate(-69.5 -167.23)"/><path class="cls-2" d="M146.66,238.38a.43.43,0,0,1,0-.33c0-.11-.06.11,0-.07l.07-.12a.89.89,0,0,1,.17-.19.54.54,0,0,1,.7-.09c-.09-.07.11.12.07.08s.11.21.06.1a1,1,0,0,1,.08.29c0-.11,0,.12,0,.16s0,.14,0,0a.74.74,0,0,1,0,.14s0,.15,0,0l-.06.1s-.09.14,0,.09-.07.06-.07.06,0,0,0,0l-.16.09.76,1a2.09,2.09,0,0,1,3.1.41.63.63,0,0,0,1.08-.63,3.37,3.37,0,0,0-5.07-.67.63.63,0,0,0-.05.82.63.63,0,0,0,.81.16,2,2,0,0,0,.08-3.43,1.85,1.85,0,0,0-2.17.39,1.93,1.93,0,0,0-.43,2.18.63.63,0,1,0,1.08-.63Z" transform="translate(-69.5 -167.23)"/><path class="cls-2" d="M154.49,228c1.18.5.68,2.45.49,3.38a13.86,13.86,0,0,0-.69,3.92,11.38,11.38,0,0,0,.74,2.82,8.8,8.8,0,0,0,1.63,3.14,1.55,1.55,0,0,0,2.61-.31c.44-.67-.65-1.3-1.08-.63a1.41,1.41,0,0,1-.26.31s-.06,0-.11,0a2.85,2.85,0,0,1-.74-.91,14.24,14.24,0,0,1-1.22-3.07,4.51,4.51,0,0,1-.24-2.4c.24-1.36.67-2.68.81-4.06s-.2-2.78-1.61-3.37c-.74-.31-1.07.89-.33,1.2Z" transform="translate(-69.5 -167.23)"/><path class="cls-2" d="M157.44,230a1.8,1.8,0,1,1,1.52,2.55l.16,1.23c1-.2,1.8.77,2,1.64a6.63,6.63,0,0,1-.63,3.57.63.63,0,0,0,.6.79l2.21.17c.81.07.8-1.18,0-1.25l-2.21-.17.61.79c.55-1.52,1.11-3.27.42-4.84a3,3,0,0,0-3.32-1.9c-.71.14-.52,1.21.17,1.22a3.05,3.05,0,1,0-2.6-4.43c-.38.71.7,1.35,1.08.63Z" transform="translate(-69.5 -167.23)"/><path class="cls-2" d="M159.42,221.82c-1,1.19-.37,2.69.45,3.78a3.73,3.73,0,0,1,.87,1.53c0,.4-.07.88-.42,1a.63.63,0,0,0,0,1.2l1,.26a.62.62,0,0,0,.33-1.2l-1-.26v1.2c1.42-.41,1.58-2.13,1-3.27-.32-.66-.85-1.17-1.21-1.79-.25-.42-.53-1.13-.16-1.56.52-.6-.36-1.49-.88-.88Z" transform="translate(-69.5 -167.23)"/><path class="cls-2" d="M162.1,231.41a16.19,16.19,0,0,1,2.26,8.67.63.63,0,0,0,.94.54l2.37-1.74-.91-.38a11.84,11.84,0,0,1-.22,5.58.63.63,0,0,0,.61.79,1.15,1.15,0,1,1,.31,2.27.63.63,0,0,0-.31,1.17c.55.5.46.84-.28,1a.63.63,0,0,0-.54.94c.5.91-.49,1.55-1.26,1s-1.26.59-.63,1.07a2,2,0,0,0,3-2.68l-.54.94a1.77,1.77,0,0,0,.91-3.32l-.32,1.16a2.52,2.52,0,0,0,2.42-2.56,2.49,2.49,0,0,0-2.73-2.21l.6.79a13.3,13.3,0,0,0,.21-6.24.63.63,0,0,0-.92-.37l-2.37,1.74.94.54a17.54,17.54,0,0,0-2.43-9.3.63.63,0,0,0-1.08.63Z" transform="translate(-69.5 -167.23)"/><path class="cls-2" d="M160.58,245a.54.54,0,0,1,.65-.15l-.38-.29a1.63,1.63,0,0,1-1.17,2.21c-.7.14-.53,1.24.17,1.23a1.55,1.55,0,0,1,.47,3,.63.63,0,0,0,.34,1.21,2.8,2.8,0,0,0-.81-5.5L160,248a2.9,2.9,0,0,0,2.22-2.71c0-.61-.12-1.5-.81-1.67a1.8,1.8,0,0,0-1.92.77c-.46.66.62,1.28,1.08.63Z" transform="translate(-69.5 -167.23)"/><path class="cls-2" d="M154.43,246.68a1,1,0,0,0-.52-1.4,1.43,1.43,0,0,0-1.47.73c-.8,1.23-.06,2.55.8,3.5a3.94,3.94,0,0,1,1.18,1.7c.1.54-.28,1.26-.9,1.21s-1-.64-.49-1,.84.14.89.6c.17,1.51-1,3.1-2.07,4-.62.51.27,1.39.89.89a6.63,6.63,0,0,0,2.42-4.34,2.59,2.59,0,0,0-.55-2,1.67,1.67,0,0,0-2.05-.33,1.85,1.85,0,0,0,.45,3.4,2.21,2.21,0,0,0,2.57-2.87,7.19,7.19,0,0,0-1.68-2.35,1.92,1.92,0,0,1-.56-1.2,1.05,1.05,0,0,1,.11-.43c0-.06.09-.11.12-.16l.07-.05c.25-.08.15-.24-.28-.48-.45.67.63,1.29,1.07.63Z" transform="translate(-69.5 -167.23)"/><path class="cls-2" d="M147.86,254.86a2.68,2.68,0,0,0,0,2.66,2.53,2.53,0,0,0,2.38,1.26,2.63,2.63,0,0,0,1.56-.63.63.63,0,0,0,0-.88.64.64,0,0,0-.89,0l0,0-.06,0-.15.09s-.12.08-.14.07h0l-.08,0-.16.05s-.15,0-.16,0h-.37a1.92,1.92,0,0,1-.32-.09l0,0-.08,0-.14-.08a.67.67,0,0,1-.14-.09c.07.06.08.06,0,0l0,0-.1-.1-.06-.06q-.06-.07,0,0a2.12,2.12,0,0,1-.17-.27l0-.08c0,.09,0,.11,0,0a.88.88,0,0,0,0-.15c0-.05,0-.1,0-.16s0-.19,0-.07,0-.06,0-.08v-.16c0-.05,0-.11,0-.16s0-.05,0,.05,0-.06,0-.08a2.81,2.81,0,0,1,.08-.31c0-.06,0,0,0,0l0-.07.08-.14a.63.63,0,0,0-.22-.86.64.64,0,0,0-.86.23Z" transform="translate(-69.5 -167.23)"/><path class="cls-2" d="M145.57,257.69a4.57,4.57,0,0,0-.76,3.48,2.42,2.42,0,0,0,1,1.4,2,2,0,0,0,1.52.25,1.77,1.77,0,0,0,1.31-1.13.63.63,0,0,0-.44-.77.65.65,0,0,0-.77.44c.06-.16,0,0,0,0s0,0,0,0l-.06.07s-.14.11,0,0l-.12.08c-.06,0-.12,0,0,0l-.16.05c-.05,0-.21,0-.05,0h-.3c.16,0,0,0,0,0s-.2-.07-.11,0-.09-.05-.1-.06-.15-.12-.06,0l-.12-.11s-.11-.14,0-.05l-.1-.17a1.09,1.09,0,0,1-.08-.15v0a.76.76,0,0,1,0-.11,2.09,2.09,0,0,1-.08-.34c0,.13,0,0,0-.07v-.2a1.33,1.33,0,0,1,0-.32,5.64,5.64,0,0,1,.68-1.65.63.63,0,1,0-1.08-.63Z" transform="translate(-69.5 -167.23)"/><path class="cls-2" d="M141.57,260.2l-.69-.05.32,1.16.16-.1h0l.09,0,.19-.05s-.13,0,0,0h.21c.09,0-.1,0,0,0l.18,0c.09,0-.08,0,0,0l.08,0,.09.05c.07,0-.11-.09,0,0l.13-1-.52.31-.27.14-.11.06-.11.05h0a4.13,4.13,0,0,1-.5.15h-.35s-.2,0-.07,0a.79.79,0,0,1-.22-.06c-.1,0,0,0,0,0s-.08,0-.09-.06l-.07,0c-.11-.07.11.1,0,0l-.13-.14c-.09-.09,0,0,0,0l0-.06a1,1,0,0,1-.1-.17c-.06-.11,0,.11,0,0a.19.19,0,0,0,0-.08.24.24,0,0,0,0-.08s0,0,0-.07,0,0,0,.06a.75.75,0,0,0,0-.15v-.09c0,.17,0,.11,0,.07l0-.1s-.07.14,0,.06,0-.09.05-.08-.12.12,0,0-.1.07,0,0,0,0,0,0l.12,0h-.06s.1,0,.12,0-.15,0-.06,0l.11,0-.07,0,.07,0,.06,0c.12.07-.09-.09,0,0l.06.06.07.08h0l0,0s.12.18.14.22,0,0,0,0,0,.08,0,.1l0,.11c0,.12,0-.05,0,0s0,.18,0,.21,0-.13,0,0,0,.1,0,.15l0,.09c0-.15,0,.05,0,.08a2.39,2.39,0,0,1-.13.21s-.12.15,0,0l-.1.12-.21.21-.22.19-.1.08,0,0c-.16.12-.34.23-.51.35a.63.63,0,0,0-.22.85.62.62,0,0,0,.85.23,4.47,4.47,0,0,0,1.94-2,2,2,0,0,0-.88-2.39,1.47,1.47,0,0,0-1.41,0,1.38,1.38,0,0,0-.72,1,2,2,0,0,0,1.06,2c1.15.57,2.42-.09,3.4-.7a.63.63,0,0,0,.13-1,2,2,0,0,0-2.46-.19.64.64,0,0,0,.32,1.17l.69.05a.62.62,0,0,0,.62-.62.64.64,0,0,0-.62-.63Z" transform="translate(-69.5 -167.23)"/><path class="cls-2" d="M129.07,261.09s0,0,0-.08,0-.06,0,.05V261c0-.11,0,.13,0,.06a.31.31,0,0,0,0-.08c0-.06.05,0,0,.06s0,0,0-.06a.21.21,0,0,1,0-.06l-.05.06.11-.11c.07-.07,0,0,0,0l.09-.06.06,0c.08-.05,0,0-.05,0l.18-.06c.08,0-.17,0,0,0h.08c-.11,0,0,0,0,0l.06,0c-.1,0-.11-.05,0,0s0,.06,0,0a.27.27,0,0,0,.08.07l0,.05c-.08-.05-.07-.1,0,0a.22.22,0,0,0,0,.08c0,.05,0,.08,0-.05,0,.05,0,.1,0,.15s0,.06,0,.08,0-.11,0,0a.81.81,0,0,1,0,.16c0,.07,0,.09,0,0s0,.05,0,.07a.84.84,0,0,1,0,.17c0,.06,0,0,0-.05a.47.47,0,0,0-.05.1l-.05.08c0,.07-.06,0,0,0s-.07.07-.1.1l0,0s0,0,0,0l0,0-.07.05-.08,0-.07,0,.07,0a.72.72,0,0,1-.21,0l-.08,0c.13,0,.07,0,0,0h-.31a1.06,1.06,0,0,1-.19-.06l-.09,0c-.13-.05.09,0,0,0l-.17-.1-.09-.06s0,0,0,0,0,0,0-.05a1.54,1.54,0,0,1-.19-.17l-.06-.07c-.1-.11,0,.08,0,0s-.18-.29-.26-.45v0a1,1,0,0,1-.06-.16,1.82,1.82,0,0,1-.07-.25l-.06-.23a.5.5,0,0,0,0-.12c0-.16,0,.09,0,0a.64.64,0,0,0-.62-.63c-.31,0-.67.28-.63.63a3.72,3.72,0,0,0,1.07,2.35,2.42,2.42,0,0,0,2.41.53,1.88,1.88,0,0,0,1-.81,2,2,0,0,0,.24-1.07,1.71,1.71,0,0,0-.46-1.09,1.41,1.41,0,0,0-1.1-.43c-.89.08-1.8,1-1.45,1.9a.64.64,0,0,0,.77.44.62.62,0,0,0,.43-.77Z" transform="translate(-69.5 -167.23)"/><path class="cls-2" d="M124.19,261.47a1,1,0,0,1,0-.14.25.25,0,0,1,0-.07c0-.11,0,.09,0,0a2,2,0,0,1,.14-.25c0-.07-.08.09,0,0l.06-.07.1-.1.06-.05c.06-.06,0,0,0,0s.1-.07.14-.09l.12-.07c.12-.06-.11,0,0,0l.3-.08h.25c.07,0-.13,0-.06,0l.16,0-.46-.61c0,.09,0,.18,0,.27s0-.14,0-.08,0,0,0,.06a1,1,0,0,1,0,.14s0,.06,0,.07,0-.12,0-.07a.67.67,0,0,1-.06.12l-.07.11c-.07.11.07-.07,0,0l-.18.18-.06.05s.11-.07,0,0a.57.57,0,0,1-.13.08l-.11.06c-.1,0,.12,0,0,0l-.27.07H124s-.06,0-.07,0H124l-.13,0-.07,0c-.06,0,.08,0,.08,0l-.11-.05-.1-.06,0,0c-.06,0,.1.09,0,0l-.16-.16c-.1-.09.06.09,0,0l-.07-.11a.41.41,0,0,1,0-.09s-.07-.15,0-.05l0-.05,0-.13a.5.5,0,0,1,0-.13s0-.08,0,0,0,0,0,0a1.92,1.92,0,0,1,0-.24c0-.08,0,.14,0,.06l0-.06,0-.13a.14.14,0,0,0,0-.06c0-.06-.06.11,0,.06a.83.83,0,0,0,.07-.13l-1,.12,0,.05c0,.05,0,0,0-.05l0,.06c0,.06,0,0,0-.06l0,.1c0-.11,0-.13,0-.06a.08.08,0,0,1,0,.07c0,.1.05-.16,0,0v0c0,.06,0,0,0,0l0,0c0,.06,0,0,0,0s-.07.07-.1.09a.61.61,0,0,0-.19.44.64.64,0,0,0,.19.45.6.6,0,0,0,.44.18.78.78,0,0,0,.44-.18,1.35,1.35,0,0,0,0-2,.64.64,0,0,0-1,.13,2.22,2.22,0,0,0,.4,2.66,2,2,0,0,0,1.39.55,2.19,2.19,0,0,0,1.47-.65,2.06,2.06,0,0,0,.64-1.62.66.66,0,0,0-.46-.6,2.29,2.29,0,0,0-2.8,1.66.62.62,0,1,0,1.2.33Z" transform="translate(-69.5 -167.23)"/><path class="cls-2" d="M117.26,259.14a8.59,8.59,0,0,1,.2-1,2.25,2.25,0,0,1,.08-.24s0-.08,0-.11,0,.11,0,0a1.39,1.39,0,0,1,.11-.21.36.36,0,0,1,.07-.1l0-.05c0-.07,0,0,0,0s.11-.12.16-.17a.73.73,0,0,0,.09-.08s-.1.07,0,0l.07,0,.08-.05,0,0s-.13,0-.07,0a1.52,1.52,0,0,0,.2-.06s-.15,0-.09,0h.24c.1,0-.15,0,0,0l.18.05h0l0,0,.16.1s-.11-.09,0,0l.07.07,0,0s-.08-.12-.06-.07l0,.07,0,0s0-.14,0-.09l0,.09c0,.08,0-.17,0,0s0,.13,0,0,0,0,0,0,0,0,0,0,0,0,0-.05-.05.08-.06.1.09-.09,0,0l-.07.07c-.07.07.11-.06,0,0l-.09.06-.05,0,0,0-.12,0-.23,0c-.12,0,.13,0,0,0h-.61c-.09,0,0,0,0,0s-.1,0-.13,0l-.13,0c-.11,0,.08.05,0,0l-.14-.08.06,0-.06-.05,0,0s.06.1,0,0a.39.39,0,0,0-.06-.11s0,.12,0,.06a.19.19,0,0,1,0-.07.15.15,0,0,1,0-.06s0,.14,0,.06v-.05c0-.08,0,.13,0,.05l0-.05s-.07.13,0,.05-.1.1,0,0l-.07.06,0,0s-.14,0-.09,0l.06,0c.05,0-.09,0-.1,0h.11s-.13,0-.09,0h0l-.08,0s.14.09,0,0,0,0,0,0-.09-.13,0-.06,0,.07,0,0,0-.06,0,0,0,0,0-.1a.65.65,0,0,0,.63.63.64.64,0,0,0,.62-.63,1,1,0,0,0-.46-.81,1.22,1.22,0,0,0-.7-.18,1.14,1.14,0,0,0-1.08,1.21,1.57,1.57,0,0,0,1.09,1.38,3.14,3.14,0,0,0,1.61.05,2,2,0,0,0,1.29-.79,1.34,1.34,0,0,0,0-1.43,1.94,1.94,0,0,0-2.45-.65,2.48,2.48,0,0,0-1.09,1.33,5.53,5.53,0,0,0-.36,1.44.66.66,0,0,0,.06.48.65.65,0,0,0,.38.29.64.64,0,0,0,.77-.44Z" transform="translate(-69.5 -167.23)"/><path class="cls-2" d="M113.08,258.82l1-.5-.86-.22,0,.06c0-.09,0-.11,0,0a.69.69,0,0,1,0,.13c0,.09.05.17.07.25s0,.22,0,0c0,.05,0,.1,0,.15a1,1,0,0,1,0,.25.76.76,0,0,1,0,.15c0,.07,0,.12,0,0a2.47,2.47,0,0,0-.06.29,1.13,1.13,0,0,0-.08.24l0-.05a.16.16,0,0,1,0,.07l-.06.13.54-.31h0l-.07,0c-.1,0,.15.09,0,0l-.07-.05c.15.08.09.08,0,0l-.07-.07s.11.15,0,0l0-.08c-.07-.11,0,.14,0,0a.19.19,0,0,0,0-.07c0-.07,0-.16,0,0,0,0,0-.05,0-.08s0-.05,0-.08c0,.2,0,.11,0,0s0-.05,0,.06l.06-.09a.63.63,0,1,0-1.08-.63,1.42,1.42,0,0,0,1.17,2.14.64.64,0,0,0,.54-.31,3.14,3.14,0,0,0,.07-2.89.6.6,0,0,0-.37-.29.67.67,0,0,0-.48.06l-1,.5a.64.64,0,0,0-.22.86.63.63,0,0,0,.85.22Z" transform="translate(-69.5 -167.23)"/><path class="cls-2" d="M134.91,262.48l-.55-.13s-.19,0-.21-.05.11.06.06,0l.07.06c-.12-.1.06.09,0,0s.05.15,0,0,0-.05,0,.06a.17.17,0,0,1,0-.07c0-.14,0,0,0,0a.33.33,0,0,1,0-.13c-.05.09-.05.11,0,.05l0-.06c-.07.08-.08.1,0,.05s0,0,0,0c.1-.06-.13,0,0,0s.07,0,0,0h.08c.07,0,.06,0,0,0s.2.13.09,0l.12.12s0,0,0,0a.41.41,0,0,1,.05.09c0,.06,0,.06,0,0l0,.1a.36.36,0,0,1,0,.1c0-.08,0-.07,0,0a1.19,1.19,0,0,1,0,.15,1.12,1.12,0,0,0,0,.15s-.09.24,0,.14a2.3,2.3,0,0,1-.23.4s-.13.18-.06.1l-.16.19-.32.36a5.27,5.27,0,0,0-.63.86l1.16.32-.17-1.58a.64.64,0,0,0-.63-.62.62.62,0,0,0-.62.62l.17,1.58a.63.63,0,0,0,.46.6.66.66,0,0,0,.71-.28,3,3,0,0,1,.52-.71,9.14,9.14,0,0,0,.67-.84,2.24,2.24,0,0,0,.35-2,1.58,1.58,0,0,0-1.77-1,1.27,1.27,0,0,0-.92,1.32,1.19,1.19,0,0,0,.37.85,2.59,2.59,0,0,0,1.16.4.63.63,0,1,0,.33-1.21Z" transform="translate(-69.5 -167.23)"/><path class="cls-2" d="M143.89,264.18a1.61,1.61,0,0,0-1.52,2,2.23,2.23,0,0,0,2.21,1.56,5.9,5.9,0,0,0,1.81-.37.65.65,0,0,0,.44-.77.64.64,0,0,0-.77-.44,7.49,7.49,0,0,1-.77.23,2.7,2.7,0,0,1-.39.08h-.47c-.14,0,.11,0,0,0l-.31-.08c-.12,0,.1.05,0,0l-.13-.07-.11-.07c-.11-.06.08.08,0,0l-.09-.09c-.11-.12,0,.07,0,0l-.07-.11c-.07-.12,0,.11,0,0s0-.11,0-.12,0,.12,0,.05v-.06c0-.15,0,.1,0,0l0-.12,0-.06s0,0,0,.06l0-.1.05-.07,0,.05.1-.1s-.13.09,0,0,0,0,0,0l.11,0h0a.62.62,0,0,0,.62-.62.64.64,0,0,0-.62-.63Z" transform="translate(-69.5 -167.23)"/><path class="cls-2" d="M147.71,264.48c.87,1.65,3.13,1.79,4.57.83,2-1.29,2-4,1.59-6l-1,.61a3,3,0,0,0,3.43.66,2.91,2.91,0,0,0,1.35-1.15c.36-.61.25-1.83.87-2.22s1.43-.08,2-.32a2,2,0,0,0,1.17-1.51c.15-.44.3-.76.82-.74a1,1,0,0,1,.92.78c.36,1-.33,2.06-.92,2.82s.39,1.52.88.89c1.07-1.38,2.09-3.41.73-5a2.07,2.07,0,0,0-3.57.68c-.17.52-.23.89-.83,1-.39.06-.79,0-1.18.1a2,2,0,0,0-1.59,1.42c-.27.8-.22,1.65-1.08,2.07a1.8,1.8,0,0,1-2.16-.35c-.45-.5-1.15,0-1,.61.27,1.43.38,3.43-.86,4.49-.85.73-2.44.84-3-.26-.38-.71-1.46-.08-1.08.63Z" transform="translate(-69.5 -167.23)"/><path class="cls-2" d="M157.51,263l0-.12,0,.06,0-.05a1.48,1.48,0,0,1,.13-.21c0-.09-.11.13,0,0l.06-.06c.06-.06.13-.11.18-.17-.13.13,0,0,0,0l.11-.06.19-.1c-.17.1-.06,0,0,0l.12,0,.24-.05-.17,0a1.55,1.55,0,0,1,.43,0l-.16,0,.15,0-.46-.6a1.88,1.88,0,0,1,0,.41l0-.17a1.65,1.65,0,0,1-.07.32.88.88,0,0,1,0,.15c0,.07.06-.14,0-.05l0,.09a2,2,0,0,1-.17.27s-.07.1,0,0,0,0,0,0l-.12.13-.12.11-.06.05c-.08.08.1-.07,0,0a2.11,2.11,0,0,1-.27.18l-.15.07c.18-.1,0,0,0,0a1.87,1.87,0,0,1-.34.08l.17,0H157a.63.63,0,1,0,0,1.25,2.77,2.77,0,0,0,2.62-2.87.63.63,0,0,0-.46-.6,2.45,2.45,0,0,0-2.84,1.63.63.63,0,0,0,.44.77.64.64,0,0,0,.77-.43Z" transform="translate(-69.5 -167.23)"/><path class="cls-2" d="M158.29,252.63l.22-1.4-1.15.15.06.1-.07-.14a.9.9,0,0,1,.08.28l0-.17a1.71,1.71,0,0,1,0,.32l0-.17a1.64,1.64,0,0,1-.1.38l.06-.15a1.29,1.29,0,0,1-.19.32l.1-.12a2.13,2.13,0,0,1-.26.26l.13-.1a1.56,1.56,0,0,1-.28.16l.15-.06a1.29,1.29,0,0,1-.28.08l.17,0h-.17l.63.63,0-.76a.63.63,0,0,0-1.25,0l0,.76a.63.63,0,0,0,.62.62,2,2,0,0,0,1.68-2.85.62.62,0,0,0-.62-.3.79.79,0,0,0-.3.12.63.63,0,0,0-.22.33l-.22,1.4a.66.66,0,0,0,.06.48.65.65,0,0,0,.38.29A.62.62,0,0,0,158,253a.65.65,0,0,0,.29-.38Z" transform="translate(-69.5 -167.23)"/><path class="cls-2" d="M149.66,247.88a.59.59,0,0,0,0-.08c.08.12,0,.1,0,0s0-.12,0,0v-.16c0-.08,0,.16,0,.06l0-.09c0-.06.06-.09,0,0l.08-.15c0-.06-.1.12,0,0l.06-.06c.06-.06.07,0,0,0l.08-.05c.09-.05-.15.05,0,0l.09,0-.79-.61s0,.14,0,0,0,0,0,0a1,1,0,0,1,0,.17,2.3,2.3,0,0,1-.1.35,1.66,1.66,0,0,1-.06.16c0,.07.06-.13,0,0l-.05.09a3.07,3.07,0,0,1-.17.31l-.09.15-.06.07c-.05.07,0,0,0,0s-.15.18-.24.27a2.1,2.1,0,0,1-.27.24c-.08.07.09-.06,0,0l-.08.05-.16.11.76.1c-.08-.1.08.12,0,0l0-.06,0-.09s0,.14,0,0,0-.11,0-.17,0,.16,0,.05v-.18c0-.08,0,.15,0,0s0-.1,0-.16-.07.13,0,0l0-.08s0,0,0-.07l-.06.08s0,0,.05-.05a.63.63,0,0,0-.89-.89,1.77,1.77,0,0,0,0,2.37.62.62,0,0,0,.75.1,4,4,0,0,0,1.87-3,.6.6,0,0,0-.25-.49.63.63,0,0,0-.55-.11,1.53,1.53,0,0,0-.92,2.19.63.63,0,0,0,1.08-.63Z" transform="translate(-69.5 -167.23)"/><path class="cls-2" d="M151.56,234.35a1.9,1.9,0,0,1-.08-.36l0,.17a1.93,1.93,0,0,1,0-.48l0,.17a2.19,2.19,0,0,1,.14-.5l-.07.15a1.9,1.9,0,0,1,.23-.39l-.1.13a1.54,1.54,0,0,1,.17-.19H151l.05.06-.09-.13a.75.75,0,0,1,.07.12l-.07-.15a.93.93,0,0,1,0,.13l0-.16a.54.54,0,0,1,0,.18l0-.17a1.46,1.46,0,0,1-.05.2L151,233a2,2,0,0,1-.11.2l.09-.13-.14.15.12-.1a.54.54,0,0,1-.15.09l.15-.06-.15,0,.17,0h-.14l.16,0-.12,0a.62.62,0,0,0-.48.06.61.61,0,0,0-.28.37.65.65,0,0,0,.06.49.7.7,0,0,0,.37.28,1.34,1.34,0,0,0,1.33-2.18.64.64,0,0,0-.88,0,2.49,2.49,0,0,0-.61,2.53.66.66,0,0,0,.29.37.62.62,0,0,0,.48.06.63.63,0,0,0,.43-.77Z" transform="translate(-69.5 -167.23)"/><path class="cls-2" d="M156.52,243.13c-.12-.08,0,0-.06,0l-.12-.12c.08.09,0,0,0-.06s-.09-.19-.07-.13,0-.1,0-.12,0-.19,0-.12,0-.09,0-.11v-.09c0,.07,0,.07,0,0l-.28.38c.06,0,0,0-.05,0a.38.38,0,0,1-.15,0,.27.27,0,0,1-.14,0l0,0c.08.07-.07-.12,0,0s-.06-.12,0,0,.05.19,0,0c0,.09,0,.09,0,0,0,.07,0,.06,0,0s0,0,0,0,0-.05,0,0,.06-.05,0,0,0,0,0,0-.08,0,0,0-.19,0-.07,0l-.19,0c-.12,0,0,0-.09,0a2.4,2.4,0,0,1-.59-.42,3.94,3.94,0,0,1-.9-1.17,2.73,2.73,0,0,1-.28-.66,5.75,5.75,0,0,1-.18-.8.62.62,0,0,0-.77-.44.63.63,0,0,0-.43.77,5.15,5.15,0,0,0,.8,2.14,4.74,4.74,0,0,0,1.69,1.64,1.89,1.89,0,0,0,1.35.22,1.13,1.13,0,0,0,.83-.84c.16-.79-.59-1.8-1.44-1.32-.47.27-.43,1-.28,1.46a2.07,2.07,0,0,0,.87,1.14.62.62,0,0,0,.85-.22.63.63,0,0,0-.22-.85Z" transform="translate(-69.5 -167.23)"/><path class="cls-2" d="M162.52,222.75l2.51,10.8c.18.78,1.39.45,1.21-.33l-2.51-10.8c-.19-.79-1.39-.46-1.21.33Z" transform="translate(-69.5 -167.23)"/><path class="cls-2" d="M149.86,172.33a39.43,39.43,0,0,0-11.32-.51c-.79.08-.8,1.33,0,1.25a38.21,38.21,0,0,1,11,.47c.78.15,1.12-1.06.33-1.21Z" transform="translate(-69.5 -167.23)"/><path class="cls-2" d="M141.72,169.43a11.66,11.66,0,0,0-8.65-1.41c-.78.18-.45,1.39.33,1.21a10.37,10.37,0,0,1,7.69,1.28c.69.43,1.31-.65.63-1.08Z" transform="translate(-69.5 -167.23)"/><path class="cls-2" d="M131.17,171.62l-.19.2s-.07,0,.05,0l-.05,0-.13.08,0,0c-.1.06.12,0,0,0l-.13.05-.12,0h-.06c-.12,0,.16,0,0,0h-.33l-.09,0-.26-.08,0,0,0,0-.14-.08-.1-.07c.16.09.05,0,0,0l-.1-.09a.1.1,0,0,0,0,0s.09.12,0,0l-.07-.11s0,0,0-.05,0,0,0,.05a.78.78,0,0,0,0-.14.19.19,0,0,0,0-.08c0-.11,0,.12,0,.05a2.81,2.81,0,0,1,0-.29c0-.1,0,.06,0,.07a.25.25,0,0,0,0-.08,1.09,1.09,0,0,1,.05-.17c0-.06.09-.18,0,0l.06-.13.08-.13,0-.06c.08-.11,0,.07,0,0a2.72,2.72,0,0,1,.24-.24s.08-.07,0,0,0,0,0,0l.15-.08.06,0s-.16.05,0,0l.16,0h.07c.06,0-.18,0,0,0h.19a.63.63,0,0,0,.63-.62.65.65,0,0,0-.63-.63,2.34,2.34,0,0,0-2.3,2.32,2.25,2.25,0,0,0,3.9,1.32.7.7,0,0,0,.18-.44.65.65,0,0,0-.18-.44.63.63,0,0,0-.89,0Z" transform="translate(-69.5 -167.23)"/><path class="cls-2" d="M128.49,169.79a21.3,21.3,0,0,1-7.28,1.77.65.65,0,0,0-.61.8c.11.36-.57.89-.82.52s.13-.86.44-.81l-.27-1-1.24,1c-.62.51.27,1.39.89.89l1.23-1a.63.63,0,0,0-.27-1,1.81,1.81,0,0,0-1.66,2.91c1.18,1.23,3.35-.17,2.91-1.75l-.6.79a23,23,0,0,0,7.91-1.94c.74-.32.1-1.4-.63-1.08Z" transform="translate(-69.5 -167.23)"/><path class="cls-2" d="M138.27,172.1c-.43-1-1.61-1-2.5-.92l-.65,0h-.31c-.15,0,.08,0,0,0l-.14,0-.13,0c-.09,0,.11.07,0,0l-.1-.06.05,0s0-.05-.06-.06.07.09,0,0l0-.07,0,.06a.31.31,0,0,1,0-.08c0,.09,0,0,0,0s0-.1,0,0,0-.08,0-.09.06-.1.08-.13h0l.12-.12h0l.14-.09a.5.5,0,0,1,.16-.05,3.39,3.39,0,0,1,1.27,0l-.6-.79c.06-.14,0,.06-.05.08l-.06.08h0l-.14.15c-.06,0-.06,0,0,0l-.08.06a1,1,0,0,0-.17.1h0l-.09,0-.2.06-.12,0h-.41l-.2-.06-.09,0c.07,0,.08,0,0,0l-.17-.1c-.06,0-.06,0,0,0l-.08-.06s-.15-.19-.07-.07a.63.63,0,0,0-.85-.22.62.62,0,0,0-.23.85,2.45,2.45,0,0,0,4.19-.53c.17-.42-.26-.75-.61-.79a2.89,2.89,0,0,0-2.53.56,1.59,1.59,0,0,0-.14,2.16c.69.8,2,.51,2.87.53l.38,0c-.18,0,0,0,.06,0l.17.05s.08.05,0,0l.08,0,.05,0c.09,0-.07-.09,0,0l0,0c.07.06,0,0,0,0a1.62,1.62,0,0,1,.1.18.63.63,0,0,0,1.08-.63Z" transform="translate(-69.5 -167.23)"/><path class="cls-2" d="M129,175.27a4.64,4.64,0,0,1-4.38-1.3l-.44,1.07H125l-.45-1.07a3.3,3.3,0,0,1-1.81.81.63.63,0,0,0-.43.77.65.65,0,0,0,.77.44,4.55,4.55,0,0,0,2.36-1.14.63.63,0,0,0-.44-1.06h-.77a.63.63,0,0,0-.44,1.07,5.94,5.94,0,0,0,5.59,1.62c.79-.19.45-1.39-.33-1.21Z" transform="translate(-69.5 -167.23)"/><path class="cls-2" d="M133.27,175.87l.06-.1,0-.06,0,.06c.06,0,.12-.13.17-.17s-.12.07,0,0l.1-.06.1-.06,0,0,0,0,.23-.07s.11,0,.12,0-.15,0,0,0h.24c.06,0-.15,0,0,0l.12,0,.09,0c-.08,0-.09,0,0,0l0,0s.2.09.21.13-.08-.06-.05,0a.1.1,0,0,1,.05,0l.09.09.08.09c-.1-.09,0,0,0,0a1.57,1.57,0,0,1,.12.21s-.06-.14,0,0a.36.36,0,0,1,0,.11.35.35,0,0,0,0,.12s0-.16,0,0a2.43,2.43,0,0,1,0,.27.62.62,0,0,0,.62.62.65.65,0,0,0,.63-.62,2.18,2.18,0,0,0-4.08-1.24.63.63,0,1,0,1.08.63Z" transform="translate(-69.5 -167.23)"/><path class="cls-2" d="M140.14,175.77c0-.1,0,.13,0,0v0s0,.12,0,.08,0,0,0,0,0,0,0,0l.07-.11c0-.07-.09.09,0,0l0,0,0,0-.05,0s.09-.06.11-.07l0,0c.1-.06-.09,0,0,0a1.82,1.82,0,0,0,.25-.07h0s.12,0,.15,0-.13,0-.07,0l.06,0,.07,0h0c-.06,0,0,0,0,0l0,0c.07,0-.08-.09,0,0l.07.07s.09.15,0,0l.08.12s0,0,0,.06,0-.11,0,0,0,.11.05.16,0,.07,0,.09,0-.13,0-.05,0,.09,0,.14a.86.86,0,0,1,0,.16s0,.1,0,0,0,.05,0,.06a1.32,1.32,0,0,1-.08.3l0,.07s.05-.1,0,0l-.09.17-.08.12c-.05.07.06-.06,0,0l0,.06-.28.28a.18.18,0,0,0-.07.05l0,0-.17.11-.37.22q-.4.21-.84.39a.62.62,0,0,0-.22.85.64.64,0,0,0,.85.23,6.27,6.27,0,0,0,1.77-1,2.74,2.74,0,0,0,.94-1.78,2.07,2.07,0,0,0-.63-1.75,1.67,1.67,0,0,0-1.7-.26,1.49,1.49,0,0,0-1,1.7.63.63,0,0,0,.76.44.64.64,0,0,0,.44-.77Z" transform="translate(-69.5 -167.23)"/><path class="cls-2" d="M146,177l-.31-.93v.34s.08-.24,0-.13.13-.2,0-.11a1.29,1.29,0,0,1,.17-.16L146,176c.07,0,.07,0,0,0l.11,0,.11,0c-.07,0-.07,0,0,0s.25,0,.11,0c0,0,.24.08.13,0s.2.14.1.06.17.18.09.08a.76.76,0,0,1,.12.19c-.06-.11,0,.08,0,.11s0,.08,0,.12h0s0,.25,0,.11a1.74,1.74,0,0,1-.05.22c0-.13-.05.07-.07.09a.64.64,0,0,0,.54,1l2.37,0a.63.63,0,0,0,0-1.25l-2.37,0,.54.94a1.9,1.9,0,0,0-1.26-2.87,2,2,0,0,0-1.67.6,1.83,1.83,0,0,0-.45.83,2.78,2.78,0,0,0,.32,1.27A.62.62,0,0,0,146,177Z" transform="translate(-69.5 -167.23)"/><path class="cls-2" d="M143.75,170.71a13.84,13.84,0,0,1,10.74.76c.72.36,1.35-.71.63-1.08a15.07,15.07,0,0,0-11.7-.88c-.76.25-.43,1.46.33,1.2Z" transform="translate(-69.5 -167.23)"/><path class="cls-2" d="M154.54,174.59l-2.77-1.78a.64.64,0,0,0-.86.23.63.63,0,0,0,.23.85l2.77,1.78a.64.64,0,0,0,.86-.23.63.63,0,0,0-.23-.85Z" transform="translate(-69.5 -167.23)"/><path class="cls-2" d="M154.36,176.77l-2.59-1.94a.62.62,0,0,0-.48-.06.6.6,0,0,0-.37.29.63.63,0,0,0,.22.85l2.59,1.94a.65.65,0,0,0,.49.06.62.62,0,0,0,.14-1.14Z" transform="translate(-69.5 -167.23)"/><path class="cls-2" d="M156.68,179.68l-1.58,1.84,1,.76c.69-1.49,2.36-.5,2.72.68a6.18,6.18,0,0,1-.59,3.79.62.62,0,0,0,.77.76,1.75,1.75,0,0,1,2.24,1.49,5.47,5.47,0,0,1-.48,2.89c-.18.48.34.86.76.77a2.12,2.12,0,0,1,2.47,2.9l1.2.33c.26-.44.57-.44.92,0a2.26,2.26,0,0,1,.2,1.05,9.53,9.53,0,0,1-.09,1.19c-.12,1.19-.27,2.38-.44,3.57q-.48,3.27-1.22,6.48c-.18.79,1,1.12,1.21.33q.67-3,1.14-6a36,36,0,0,0,.65-5.56c0-1.08-.39-2.34-1.59-2.58a1.59,1.59,0,0,0-2,1.21.62.62,0,0,0,1.2.33,3.38,3.38,0,0,0-4-4.44l.77.77c.55-1.49.95-3.28,0-4.71a2.83,2.83,0,0,0-3.31-1.2l.77.77c.73-2,1.39-4.59-.49-6.18a2.55,2.55,0,0,0-3.92.75c-.27.6.49,1.34,1,.76l1.58-1.84c.52-.61-.36-1.5-.88-.89Z" transform="translate(-69.5 -167.23)"/><path class="cls-2" d="M152.4,182c2.06-1.35,1.92,3.92,2.35,4.89.57,1.28,4,3.41,2.67,4.95a.64.64,0,0,0,.12,1c2.47,1.17,2,4.21,1.56,6.4a.62.62,0,0,0,.17.61,4.74,4.74,0,0,1,1.77,4.34c-.09.8,1.16.79,1.25,0a5.87,5.87,0,0,0-2.14-5.22l.16.61c.55-2.75.9-6.38-2.14-7.82l.13,1c2.44-2.79-2.24-4.79-2.63-7.18-.23-1.38,0-3-1-4.12a2.26,2.26,0,0,0-2.94-.51c-.67.44,0,1.53.63,1.08Z" transform="translate(-69.5 -167.23)"/><path class="cls-2" d="M156.85,178.44a9.76,9.76,0,0,1,6.32,10.45c-.12.79,1.08,1.13,1.21.34a11,11,0,0,0-7.2-12c-.76-.26-1.09.94-.33,1.2Z" transform="translate(-69.5 -167.23)"/><path class="cls-2" d="M157.24,175.57a5.18,5.18,0,0,1,3.83,1.9,5.12,5.12,0,0,1,.94,4.31c-.18.78,1,1.12,1.2.33a6.27,6.27,0,0,0-6-7.79.63.63,0,0,0,0,1.25Z" transform="translate(-69.5 -167.23)"/><path class="cls-2" d="M158,172a1.39,1.39,0,0,1,.93-1.45l-.79-.61.06,2.93a.63.63,0,0,0,.79.6l2.21-.71-.77-.44a3.43,3.43,0,0,1-.21,2.05c-.19.48.35.86.77.77l1.72-.38-.79-.6.08,2.27a.63.63,0,0,0,.79.6,1.16,1.16,0,0,1,1.45,1.33.62.62,0,0,0,.6.79,1.16,1.16,0,0,1,.71,2c-.56.58.32,1.46.89.89a2.42,2.42,0,0,0-1.6-4.14l.6.79a2.41,2.41,0,0,0-3-2.86l.79.6-.08-2.27a.64.64,0,0,0-.79-.6l-1.72.38.77.77a4.68,4.68,0,0,0,.21-2.72.64.64,0,0,0-.77-.44l-2.21.72.79.6-.06-2.93a.64.64,0,0,0-.8-.6,2.7,2.7,0,0,0-1.8,3c.12.79,1.32.46,1.21-.33Z" transform="translate(-69.5 -167.23)"/><path class="cls-2" d="M165.86,186.32a1.08,1.08,0,0,1,1.35-.14,1.09,1.09,0,0,1,.32,1.32.62.62,0,0,0,.29.71,4.27,4.27,0,0,1,2.49,4.68c-.17.79,1,1.12,1.2.33a5.5,5.5,0,0,0-3.06-6.09l.28.71a2.27,2.27,0,0,0-3.75-2.4c-.58.56.31,1.45.88.88Z" transform="translate(-69.5 -167.23)"/><path class="cls-2" d="M169.61,195a.63.63,0,0,0,0-1.25.63.63,0,0,0,0,1.25Z" transform="translate(-69.5 -167.23)"/><path class="cls-2" d="M168.19,191.93l-.29-1.58-1.21.33A17.65,17.65,0,0,0,170,196a.62.62,0,0,0,.88,0,.63.63,0,0,0,0-.88,16.14,16.14,0,0,1-3-4.75.63.63,0,1,0-1.21.33l.3,1.58a.64.64,0,0,0,.77.44.65.65,0,0,0,.43-.77Z" transform="translate(-69.5 -167.23)"/><path class="cls-2" d="M169.41,201.74a1.47,1.47,0,0,1-.5,2.76.63.63,0,0,0-.37.91,1.48,1.48,0,0,0,1.73.69l-.77-.43c.49,1.51-.85,2.93-1.08,4.39a2.76,2.76,0,0,0,1.21,3.1c.72.35,1.36-.73.63-1.08-1-.47-.69-1.86-.37-2.67.52-1.33,1.29-2.62.82-4.08a.64.64,0,0,0-.77-.43.23.23,0,0,1-.32-.12l-.37.92a2.74,2.74,0,0,0,2.19-2.14,2.77,2.77,0,0,0-1.4-2.9c-.7-.39-1.33.69-.63,1.08Z" transform="translate(-69.5 -167.23)"/><path class="cls-2" d="M173.06,196l-.85-.15a.63.63,0,0,0-.49,1.14c2.07,1.51,3.2,3.91,4.15,6.21,1.18,2.86,2.31,5.73,3.47,8.59.3.74,1.51.42,1.21-.33-1.24-3.07-2.44-6.16-3.73-9.21a14.49,14.49,0,0,0-4.46-6.34l-.49,1.14.86.16c.79.13,1.13-1.07.33-1.21Z" transform="translate(-69.5 -167.23)"/><path class="cls-2" d="M174.6,207.72a2.87,2.87,0,0,1,.66,2.56,1.5,1.5,0,0,1-.7.77,1,1,0,0,1-.41.1.49.49,0,0,1-.36-.1c.07,0-.06-.05-.08-.08s0,0,0,0a.61.61,0,0,0-.07-.1.54.54,0,0,1,0-.11s0,.1,0,0a2.1,2.1,0,0,1-.06-.24c0,.11,0-.08,0-.11s0-.14,0-.06,0,0,0,0l0-.11s-.05.11,0,0a.41.41,0,0,1,.05-.09s0,0,0,0,0,0,0,0,.11-.05,0,0a.45.45,0,0,1,.18,0,.6.6,0,0,1,.37.16.79.79,0,0,1,.25.82c-.26,1.05-1.44,1.44-2.33,1.75a.65.65,0,0,0-.44.77.62.62,0,0,0,.77.43c1.33-.46,2.88-1.12,3.21-2.66a2.09,2.09,0,0,0-.51-1.94,1.7,1.7,0,1,0-2.53,2.26,2.07,2.07,0,0,0,3.24,0c1.21-1.32.74-3.19-.19-4.52a.63.63,0,0,0-1.08.64Z" transform="translate(-69.5 -167.23)"/><path class="cls-2" d="M169.85,216.06s0-.07,0-.08,0,.14,0,0v0h0s0,.05,0,0,0,.12,0,0,0-.05,0-.08,0-.11,0,0,0,0,0,0a.43.43,0,0,0,0-.07s-.07.08,0,0l.06-.06s-.12.07,0,0l.08,0s-.14,0,0,0-.1,0,0,0h.11l-.45-1.07a2.26,2.26,0,0,1-.25.29,1.07,1.07,0,0,1-.16.14l-.05,0a2.2,2.2,0,0,1-.32.21l-.17.09-.08,0h0c-.12,0-.24.09-.37.12l-.16,0-.1,0h0a2.54,2.54,0,0,1-.39,0h-.16c-.07,0-.07,0,0,0l-.11,0,.46.6s0-.19,0,0c0,0,0-.16,0-.08s0,0,0-.06-.08.06,0,0,0,0,0,0,.09,0,0,0,.18,0,0,0H168l-.44-1.07-1.67,1.43,1.07.44,0-.93a.63.63,0,0,0-1.25,0l0,.93a.63.63,0,0,0,1.07.44l1.66-1.42a.62.62,0,0,0,.13-.68.64.64,0,0,0-.57-.39,1.48,1.48,0,0,0-1.54,1.53.65.65,0,0,0,.46.6,3.68,3.68,0,0,0,3.54-1.28.62.62,0,0,0-.44-1.06,1.46,1.46,0,0,0-1.28,2.18.64.64,0,0,0,.86.22.62.62,0,0,0,.22-.85Z" transform="translate(-69.5 -167.23)"/><path class="cls-2" d="M163.61,214.9c-.15-.47-.51-1.4.13-1.64.13,0,.15,0,.11.1-.09.27-.44.29-.69.25l.38.92a6.21,6.21,0,0,0-1.64-8.19l-.15,1.14,1.2-.18a.63.63,0,0,0,.43-.77.64.64,0,0,0-.77-.44l-1.19.18c-.59.1-.54.87-.15,1.15a5,5,0,0,1,1.19,6.48.62.62,0,0,0,.37.91,1.88,1.88,0,0,0,2.11-.82,1.36,1.36,0,0,0-.66-1.91,1.64,1.64,0,0,0-1.81.63,2.83,2.83,0,0,0-.07,2.52c.24.77,1.45.44,1.21-.33Z" transform="translate(-69.5 -167.23)"/><path class="cls-2" d="M174.87,215.52a4.17,4.17,0,0,0-1.52,3.39.63.63,0,0,0,.79.6,10.21,10.21,0,0,0,6.25-3.73c.35-.45.05-1.25-.61-1a1.3,1.3,0,0,0-.81,1.71,1.51,1.51,0,0,0,2.08.73c1.76-.76,1.41-3,.95-4.46l-1.14.48a3.23,3.23,0,0,0,3.68,1.57.63.63,0,0,0-.34-1.21,2,2,0,0,1-2.26-1,.63.63,0,0,0-1.14.48,4.24,4.24,0,0,1,.28,2.3.93.93,0,0,1-.63.72.38.38,0,0,1-.3,0c-.07,0,0-.12,0-.1l-.61-1a9.22,9.22,0,0,1-5.69,3.41l.79.6a3,3,0,0,1,1.16-2.51c.62-.51-.27-1.39-.89-.88Z" transform="translate(-69.5 -167.23)"/><path class="cls-2" d="M172.94,203.21v0l0,.16a.65.65,0,0,1,0-.13l-.06.15a.75.75,0,0,1,.07-.12l-.1.13a.74.74,0,0,1,.12-.13l-.12.1a.6.6,0,0,1,.15-.09l-.14.06.17-.05-.17,0h.18l-.17,0,.14,0-.15-.07.1.06-.22-.22a2.26,2.26,0,0,1,.11.22l-.06-.14a1.89,1.89,0,0,1,.13.48l0-.16a2.09,2.09,0,0,1,0,.5l0-.16a2,2,0,0,1-.13.48l.06-.15v0a.66.66,0,0,0-.06.48.63.63,0,0,0,.77.44.64.64,0,0,0,.37-.29,2.58,2.58,0,0,0,.24-1,2.3,2.3,0,0,0-.14-.9,1.43,1.43,0,0,0-.36-.62,1,1,0,0,0-.44-.2,1.34,1.34,0,0,0-1,.17,1.49,1.49,0,0,0-.42.41,1.34,1.34,0,0,0-.17.58.65.65,0,0,0,.18.44.63.63,0,0,0,.45.18.62.62,0,0,0,.44-.18.72.72,0,0,0,.18-.44Z" transform="translate(-69.5 -167.23)"/><path class="cls-2" d="M172.36,191.4a3.44,3.44,0,0,0,3.06,1.84.65.65,0,0,0,.63-.63.64.64,0,0,0-.63-.62c-.12,0-.25,0-.37,0,0,0,.14,0,0,0H175l-.18-.05-.18,0-.08,0c-.07,0-.06-.06,0,0a.65.65,0,0,0-.17-.08l-.16-.09-.16-.11-.06,0c-.1-.08.12.1,0,0l-.25-.24-.13-.14c-.06-.08,0,0,0,0l-.05-.07a2.33,2.33,0,0,1-.2-.34.63.63,0,0,0-.85-.22.65.65,0,0,0-.23.86Z" transform="translate(-69.5 -167.23)"/><path class="cls-2" d="M175.23,198.89a40.35,40.35,0,0,1,5.5,9.53c.33.73,1.41.1,1.08-.63-.79-1.75-1.58-3.51-2.51-5.18a31.73,31.73,0,0,0-3.18-4.61c-.52-.62-1.4.27-.89.89Z" transform="translate(-69.5 -167.23)"/><path class="cls-2" d="M124.2,168.42l-3.28,1a.63.63,0,0,0,.33,1.21l3.28-1a.63.63,0,0,0-.33-1.21Z" transform="translate(-69.5 -167.23)"/><path class="cls-2" d="M95.3,188.8a60.4,60.4,0,0,0-8.73,14.39c-.32.73.76,1.37,1.08.63a59.09,59.09,0,0,1,8.54-14.14c.5-.62-.38-1.51-.89-.88Z" transform="translate(-69.5 -167.23)"/><path class="cls-2" d="M98.4,186.6l1.52-2.78a.63.63,0,0,0-1.08-.63L97.32,186a.63.63,0,0,0,.23.85.62.62,0,0,0,.85-.22Z" transform="translate(-69.5 -167.23)"/><path class="cls-2" d="M102.09,181.65a3.94,3.94,0,0,0,2.36-2.13.66.66,0,0,0,.06-.48.61.61,0,0,0-.76-.44.59.59,0,0,0-.38.29,3.94,3.94,0,0,1-.41.72l.09-.13a3.15,3.15,0,0,1-.6.61l.13-.1a3.71,3.71,0,0,1-.74.44l.14-.07-.22.09a.62.62,0,0,0,.33,1.2Z" transform="translate(-69.5 -167.23)"/><path class="cls-2" d="M107.21,177.08a3.12,3.12,0,0,0,2.2-1,.63.63,0,1,0-.89-.88,2,2,0,0,1-.3.28l.12-.1a2.33,2.33,0,0,1-.55.32l.15-.06a2.72,2.72,0,0,1-.62.17l.17,0a2.66,2.66,0,0,1-.28,0,.62.62,0,0,0-.62.62.64.64,0,0,0,.62.63Z" transform="translate(-69.5 -167.23)"/><path class="cls-2" d="M135.05,222.12a1.66,1.66,0,0,1-1.7,2.2l.44.77.36-1.68-1.23-.17a3.2,3.2,0,0,1-3.44,2.77l.6.46.07-.34-1-.75a3.48,3.48,0,0,1-2.91,1.45l.6.79.24-.71c.16-.49-.48-1-.92-.7-1.91,1.39-4,1.76-6.25,2.17-.79.14-.46,1.34.33,1.2,2.38-.42,4.56-.84,6.55-2.29l-.92-.71-.23.71a.63.63,0,0,0,.6.79,4.8,4.8,0,0,0,4-2.07c.41-.58-.53-1.3-1-.76a1.69,1.69,0,0,0-.39,1.55.64.64,0,0,0,.61.46,4.46,4.46,0,0,0,4.69-4c.07-.7-1.09-.85-1.23-.17l-.36,1.69a.64.64,0,0,0,.44.77,2.91,2.91,0,0,0,3.23-3.74c-.28-.75-1.48-.43-1.2.33Z" transform="translate(-69.5 -167.23)"/><path class="cls-2" d="M133.79,218.43a5.81,5.81,0,0,1-3.39,1.38l.62.62.11-.24-.62-.62a3.44,3.44,0,0,1-6.69,1.41.64.64,0,0,0-1.14-.15,5.5,5.5,0,0,1-3.82,2.16c-.79.07-.8,1.33,0,1.25a6.85,6.85,0,0,0,4.9-2.78l-1.14-.14a4.69,4.69,0,0,0,9.14-1.75.64.64,0,0,0-.63-.63,1.36,1.36,0,0,0-1.36,1.49.65.65,0,0,0,.63.63,7.22,7.22,0,0,0,4.28-1.75c.61-.52-.28-1.41-.89-.88Z" transform="translate(-69.5 -167.23)"/><path class="cls-2" d="M129.87,216.78a1.19,1.19,0,0,1,1.26-1.05l-.61-.79a5.45,5.45,0,0,1-6.38,4.28c-.78-.19-1.12,1-.33,1.2a6.71,6.71,0,0,0,7.92-5.15.64.64,0,0,0-.6-.79,2.41,2.41,0,0,0-2.46,2,.64.64,0,0,0,.44.77.62.62,0,0,0,.76-.43Z" transform="translate(-69.5 -167.23)"/><path class="cls-2" d="M124.57,218.83a22.17,22.17,0,0,1-8.89,2l.61.79c0-.05-.06-.08.07-.06a1.11,1.11,0,0,1,.17,0c.22.1.14.36,0,.54-.42.72-1.51.56-2.2.5s-.8,1.18,0,1.25a4,4,0,0,0,2.6-.4,2,2,0,0,0,.92-2c-.29-1.33-2.45-1.6-2.8-.17a.64.64,0,0,0,.6.8,23.81,23.81,0,0,0,9.53-2.2c.72-.34.09-1.42-.64-1.08Z" transform="translate(-69.5 -167.23)"/><path class="cls-2" d="M139.19,219.19a1.81,1.81,0,0,1,1.45,2.08c-.17.86-.85,1.67-.16,2.5a1.6,1.6,0,0,0,2.1.14c.74-.51,1-2.43,2-2.32l-.6-.8-1.08,2.84h1.2a1.77,1.77,0,0,1,1.36-2.18,1.74,1.74,0,0,1,1.82,2l1.23.17a1.33,1.33,0,0,1,1.92-.91,2.08,2.08,0,0,1,.63,2.58.63.63,0,0,0,1,.76,1.39,1.39,0,0,1,2.32,1.14.63.63,0,0,0,1.25,0,2.65,2.65,0,0,0-4.45-2l1,.76c.67-1.55.37-3.74-1.39-4.43a2.56,2.56,0,0,0-3.49,2.13.62.62,0,0,0,1.22.16,2.9,2.9,0,1,0-5.58.18.63.63,0,0,0,1.2,0l1.09-2.83a.63.63,0,0,0-.61-.79,2.21,2.21,0,0,0-2.12,1.55c-.13.26-.69,1.51-1,.94-.17-.32.32-1.05.38-1.42a3.06,3.06,0,0,0-2.69-3.47c-.79-.1-.79,1.15,0,1.25Z" transform="translate(-69.5 -167.23)"/><path class="cls-2" d="M142.4,216.75a1.34,1.34,0,0,1,2.37-.77c.54.66.43,1.68.79,2.44.94,2,2.88,1.07,4.54,1.26,1,.13,1.57,1,2,1.89a6.67,6.67,0,0,0,1.59,2.27,2.29,2.29,0,0,0,3.63-.79l-1.14.15.75,1.29a.63.63,0,0,0,1.08-.63l-.75-1.29a.63.63,0,0,0-1.14.15c-.39,1.06-1.78.11-2.15-.39-.56-.76-.86-1.68-1.43-2.45a3.31,3.31,0,0,0-2.06-1.4,19.54,19.54,0,0,0-2.65.06c-1.18,0-1.26-1-1.48-1.94a3,3,0,0,0-1.26-2,2.6,2.6,0,0,0-3.91,1.81c-.12.78,1.08,1.12,1.21.33Z" transform="translate(-69.5 -167.23)"/><path class="cls-2" d="M147.19,216.06c-.32-.48.5-.72.84-.56a2.93,2.93,0,0,1,1.19,1.57,4.61,4.61,0,0,0,2.26,2.67,12,12,0,0,0,3.18.71,4.12,4.12,0,0,1,2.78,1.22c.51.62,1.39-.27.89-.89a5.22,5.22,0,0,0-3.47-1.56c-1.23-.18-2.79-.22-3.69-1.19a11.15,11.15,0,0,1-1.18-2.21,3.2,3.2,0,0,0-1.69-1.55c-1.36-.46-3.12,1-2.19,2.42.45.67,1.53,0,1.08-.63Z" transform="translate(-69.5 -167.23)"/><path class="cls-2" d="M120.54,224.4l-2.78,1.77a.62.62,0,1,0,.63,1.07l2.78-1.76a.64.64,0,0,0,.22-.86.63.63,0,0,0-.85-.22Z" transform="translate(-69.5 -167.23)"/><path class="cls-2" d="M151.5,216.15l8.56,5a.63.63,0,0,0,.63-1.08l-8.56-5a.63.63,0,0,0-.63,1.08Z" transform="translate(-69.5 -167.23)"/><path class="cls-2" d="M138.17,203.85c.83,1.58,1.81,3.38,1.42,5.23a2.62,2.62,0,0,1-3.26,2.17c-.77-.25-1.1,1-.34,1.21a3.85,3.85,0,0,0,4.7-2.66c.72-2.3-.39-4.59-1.44-6.58-.37-.71-1.45-.08-1.08.63Z" transform="translate(-69.5 -167.23)"/><path class="cls-2" d="M125.41,198.71c0-.1,0,.16,0,.06v-.05s0,.15,0,.11,0-.12,0,0,0,0,0,0-.06.07-.06.07l0,0,0,0-.07.06.06,0,0,0c.07,0-.08,0-.08,0l.16,0s-.1,0-.1,0h0s.16,0,0,0,0,0,0,0l0,0s0,.05-.08,0l.07,0s-.11-.1-.07,0,0,0,.06,0l0,0c.05,0-.07-.07,0-.07s0,.06,0,.08,0-.15,0,0a.17.17,0,0,1,0,.1.14.14,0,0,1,0,.06s0-.16,0-.09,0,.07,0,.1,0,.07,0,.11,0-.15,0,0a1.17,1.17,0,0,1,0,.2c0,.1.06-.12,0,0a.75.75,0,0,1-.07.12l0,.08c.08-.14,0,0,0,0a1.07,1.07,0,0,1-.19.18l0,0,0,0-.13.09-.24.14c-.18.1-.36.18-.54.26h.63l0,0c-.09,0,.09.09,0,0l-.08-.07c-.08-.08,0,.05,0,.05l0,0-.06-.11c-.06-.1.05.16,0,0l0-.1a.43.43,0,0,0,0,0c0-.11,0,.13,0,.07s0-.09,0-.13,0-.07,0-.11,0,.15,0,.07a.43.43,0,0,0,0,0l0-.12,0-.05s-.07.15,0,.08l.06-.11,0,0c0-.06-.11.12,0,.05l.08-.07c.07-.07-.12.07,0,0l0,0a.63.63,0,1,0-.63-1.08,1.73,1.73,0,0,0-.74,1.79,1.62,1.62,0,0,0,.43.84.78.78,0,0,0,.86.28l.49-.23a2.56,2.56,0,0,0,1.43-1.59,1.9,1.9,0,0,0-.13-1.2,1.28,1.28,0,0,0-.86-.67,1.42,1.42,0,0,0-1.11.23,1.14,1.14,0,0,0-.48,1.22.63.63,0,0,0,.77.44.64.64,0,0,0,.43-.77Z" transform="translate(-69.5 -167.23)"/><path class="cls-2" d="M146,199.59a1.54,1.54,0,0,0,0-.17s-.06.13,0,0l0-.08,0-.06s.08-.1,0,0,0,0,0,0l.06-.06.06-.06c.06-.06,0,0,0,0l.15-.1.08,0c.06,0-.15.06,0,0l.17-.05-.77-.43a4.14,4.14,0,0,1,.21.59.94.94,0,0,1,0,.16.8.8,0,0,0,0,.15s0-.15,0,0,0,0,0,.06v.18s0,.14,0,.15,0-.13,0-.05,0,.05,0,.08l0,.13c0,.13.06-.12,0,0l-.06.11s-.1.13,0,0,0,0,0,0-.08.05-.11.09.12-.08.06,0l-.05,0-.09.05c-.12.07.11,0,0,0l-.12,0c-.1,0,.15,0,0,0s-.09,0-.11,0,.15,0,.09,0l-.07,0h0l.06,0s-.11-.08,0,0,0,0,0,0,.08.14,0,0a.56.56,0,0,0,0-.08s0,.09,0,.09v0s0-.06,0-.09,0,.13,0,.11v0a.27.27,0,0,1,0-.09v-.05c0-.06,0,.15,0,.09s0-.06,0-.09,0,0,0,0-.06.13,0,.09a.59.59,0,0,0,0-.08c0-.06-.11.12-.06.08l0,0c.08-.08-.13.09,0,0s-.15,0-.05,0-.18,0,0,0a.63.63,0,0,0,0-1.25,1.31,1.31,0,0,0-.77,2.22,1.4,1.4,0,0,0,1.55.25,1.9,1.9,0,0,0,1.07-1.23,3.24,3.24,0,0,0-.25-2,.63.63,0,0,0-.77-.43,2,2,0,0,0-1.47,1.44.64.64,0,0,0,.44.77.63.63,0,0,0,.77-.43Z" transform="translate(-69.5 -167.23)"/><path class="cls-2" d="M129.15,194.2a7.52,7.52,0,0,0-3.74.1c-1.24.27-2.44.69-3.68.93-.79.15-.46,1.36.33,1.2,1.17-.22,2.3-.6,3.46-.88a6.48,6.48,0,0,1,3.3-.15.62.62,0,0,0,.33-1.2Z" transform="translate(-69.5 -167.23)"/><path class="cls-2" d="M143.59,196.06l7.07-.58c.8-.06.8-1.31,0-1.25l-7.07.58c-.79.07-.8,1.32,0,1.25Z" transform="translate(-69.5 -167.23)"/><path class="cls-2" d="M97.36,246.66a6.41,6.41,0,0,0,4.11,5.94.63.63,0,0,0,.77-.43.64.64,0,0,0-.43-.77,5.15,5.15,0,0,1-3.2-4.74.63.63,0,0,0-1.25,0Z" transform="translate(-69.5 -167.23)"/><path class="cls-2" d="M93.31,219.05l3.79.24a.63.63,0,1,0,0-1.25l-3.79-.24a.63.63,0,0,0,0,1.25Z" transform="translate(-69.5 -167.23)"/><path class="cls-2" d="M164.4,218.65l2.78.51a.63.63,0,1,0,.33-1.21l-2.77-.51a.64.64,0,0,0-.77.44.63.63,0,0,0,.43.77Z" transform="translate(-69.5 -167.23)"/><path class="cls-2" d="M171,219.48l1.26-.51a.57.57,0,0,0,.22-.11.47.47,0,0,0,.16-.18.66.66,0,0,0,.06-.48.63.63,0,0,0-.29-.37.58.58,0,0,0-.48-.06l-1.26.5a.65.65,0,0,0-.22.11.69.69,0,0,0-.16.18.66.66,0,0,0-.06.48.6.6,0,0,0,.29.37.59.59,0,0,0,.48.07Z" transform="translate(-69.5 -167.23)"/><path class="cls-2" d="M133.73,268.28a47.61,47.61,0,0,1,1.13,11.22.63.63,0,0,0,1.25,0A49.3,49.3,0,0,0,134.94,268c-.18-.79-1.38-.45-1.21.33Z" transform="translate(-69.5 -167.23)"/><path class="cls-2" d="M143.26,269.4a70.23,70.23,0,0,0,1.92,12.31.62.62,0,0,0,1.2-.33,69.29,69.29,0,0,1-1.87-12c0-.8-1.31-.81-1.25,0Z" transform="translate(-69.5 -167.23)"/><path class="cls-2" d="M137.35,270.46l-1.93,4.76a.62.62,0,0,0,1.14.48l1.81-4.19a.65.65,0,0,0-.22-.86.63.63,0,0,0-.86.23l-1.81,4.19,1.14.48,1.93-4.75a.62.62,0,0,0-1.2-.34Z" transform="translate(-69.5 -167.23)"/><path class="cls-2" d="M139.65,271l.27.1.16.06,0,0c.18.08.36.18.54.28a4.94,4.94,0,0,1,.49.3l.24.17c.15.11-.09-.08.05,0l.11.09a7.41,7.41,0,0,1,.85.83l.18.23c-.07-.09,0,0,0,0l.09.12c.12.17.23.35.34.54l.7-.92h0l-.1-.05-.19-.1-.18-.11-.09-.07h0a2.2,2.2,0,0,1-.27-.26l-.15-.16h0l-.06-.09a2.77,2.77,0,0,1-.22-.37l-.08-.14c.07.13,0-.08,0-.1a2.17,2.17,0,0,1-.11-.42.43.43,0,0,1,0-.11c0,.08,0,.08,0,0a1.62,1.62,0,0,1,0-.22.63.63,0,0,0-.63-.62.62.62,0,0,0-.62.62,3.76,3.76,0,0,0,2.43,3.39.62.62,0,0,0,.66-.22.64.64,0,0,0,.05-.69,7.58,7.58,0,0,0-4.13-3.38.63.63,0,0,0-.77.43.65.65,0,0,0,.44.77Z" transform="translate(-69.5 -167.23)"/><path class="cls-2" d="M81.58,213.49a2.57,2.57,0,0,0,1.13,3.6" transform="translate(-69.5 -167.23)"/><path class="cls-2" d="M81,213.18a3.08,3.08,0,0,0-.28,2.55,3.14,3.14,0,0,0,1.79,2,.64.64,0,0,0,.77-.44.66.66,0,0,0-.44-.77c.16.07-.09,0-.13-.07a.81.81,0,0,1-.18-.12l0,0,0,0-.1-.09-.15-.16s-.1-.14,0,0a.44.44,0,0,1-.08-.11,1.18,1.18,0,0,1-.11-.19L82,215.6s-.09-.15,0,0a.9.9,0,0,1-.08-.23l-.06-.24s0-.07,0-.11,0,.05,0,0,0-.32,0-.48,0,0,0,0,0-.11,0-.13a1.55,1.55,0,0,1,.07-.23l0-.11c0-.14-.06.12,0,0a1.71,1.71,0,0,1,.13-.23.63.63,0,1,0-1.08-.63Z" transform="translate(-69.5 -167.23)"/><path class="cls-2" d="M86.62,218.55h1.52a.65.65,0,0,0,.44-.18.62.62,0,0,0,.18-.44.63.63,0,0,0-.62-.63H86.62a.65.65,0,0,0-.44.18.63.63,0,0,0,.44,1.07Z" transform="translate(-69.5 -167.23)"/><path class="cls-2" d="M86.68,206.37v-.19a.48.48,0,0,0-.06-.24.34.34,0,0,0-.13-.2.39.39,0,0,0-.2-.13.48.48,0,0,0-.24-.06l-.16,0a.61.61,0,0,0-.28.16l-.1.12a.72.72,0,0,0-.08.32v.19a.42.42,0,0,0,0,.24.57.57,0,0,0,.33.33.42.42,0,0,0,.24.05l.17,0a.57.57,0,0,0,.27-.16l.1-.13a.56.56,0,0,0,.09-.31Z" transform="translate(-69.5 -167.23)"/><path class="cls-2" d="M107.56,217.27l1,.57a.67.67,0,0,0,.48.06.62.62,0,0,0,.37-.28.65.65,0,0,0,.07-.49.7.7,0,0,0-.29-.37l-1-.57a.61.61,0,0,0-.48-.06.65.65,0,0,0-.37.28.6.6,0,0,0-.06.49.68.68,0,0,0,.28.37Z" transform="translate(-69.5 -167.23)"/><path class="cls-2" d="M163,220l.58-2.46a.63.63,0,0,0-1.21-.33l-.57,2.46a.62.62,0,1,0,1.2.33Z" transform="translate(-69.5 -167.23)"/><path class="cls-2" d="M98.53,243.44l.57-1.14a.66.66,0,0,0,.06-.48.63.63,0,0,0-.29-.37.58.58,0,0,0-.48-.06.62.62,0,0,0-.37.28l-.57,1.14a.62.62,0,0,0-.06.48.67.67,0,0,0,.28.38.69.69,0,0,0,.49.06.63.63,0,0,0,.37-.29Z" transform="translate(-69.5 -167.23)"/><path class="cls-2" d="M118.45,262.16c1.74,1.81,3.87,3.83,6.6,3.55a.65.65,0,0,0,.62-.63.62.62,0,0,0-.62-.62c-2.4.24-4.19-1.6-5.71-3.18-.56-.58-1.44.3-.89.88Z" transform="translate(-69.5 -167.23)"/><path class="cls-2" d="M104.78,223.74l.38-.76a.39.39,0,0,0,.07-.23.42.42,0,0,0,0-.25.46.46,0,0,0-.11-.22.52.52,0,0,0-.17-.16.69.69,0,0,0-.49-.06.63.63,0,0,0-.37.29l-.38.76a.45.45,0,0,0-.07.23.43.43,0,0,0,0,.25.53.53,0,0,0,.11.21.46.46,0,0,0,.18.16.58.58,0,0,0,.48.06.58.58,0,0,0,.37-.28Z" transform="translate(-69.5 -167.23)"/><path class="cls-2" d="M114.29,172.84l.38-.35.09-.07.06,0,.05,0,.1-.07a6,6,0,0,1,.88-.53c.14-.08.29-.14.44-.21s-.08,0,0,0l.12,0,.25-.09a7.23,7.23,0,0,1,1-.26.62.62,0,0,0,.44-.77.65.65,0,0,0-.77-.44,7.89,7.89,0,0,0-3.93,2,.64.64,0,0,0,0,.89.65.65,0,0,0,.89,0Z" transform="translate(-69.5 -167.23)"/><path class="cls-2" d="M167.34,183.69h.57a.53.53,0,0,0,.24-.06.47.47,0,0,0,.2-.12.57.57,0,0,0,.13-.21.47.47,0,0,0,.05-.24l0-.16a.71.71,0,0,0-.16-.28l-.13-.1a.68.68,0,0,0-.31-.08h-.57a.39.39,0,0,0-.24.05.57.57,0,0,0-.21.13.41.41,0,0,0-.12.2.53.53,0,0,0-.06.24l0,.17a.71.71,0,0,0,.16.28l.13.09a.59.59,0,0,0,.32.09Z" transform="translate(-69.5 -167.23)"/><path class="cls-2" d="M176.83,214.38l.56.2a.53.53,0,0,0,.25,0,.45.45,0,0,0,.23-.08.4.4,0,0,0,.18-.16.43.43,0,0,0,.11-.21l0-.17a.58.58,0,0,0-.08-.31l-.1-.13a.63.63,0,0,0-.27-.16l-.57-.2a.53.53,0,0,0-.25,0,.4.4,0,0,0-.23.08.46.46,0,0,0-.18.16.53.53,0,0,0-.11.21l0,.16a.69.69,0,0,0,.08.32l.1.13a.71.71,0,0,0,.28.16Z" transform="translate(-69.5 -167.23)"/><path class="cls-2" d="M169.61,198.66h.07l-.16,0,.08,0-.15-.06.08,0-.13-.09.08.07-.1-.13a.2.2,0,0,1,0,.08l-.06-.15a.24.24,0,0,1,0,.08l0-.16v.07a.6.6,0,0,0,0,.24.56.56,0,0,0,.34.33.48.48,0,0,0,.24.06l.16,0a.61.61,0,0,0,.28-.16l.1-.12a.72.72,0,0,0,.08-.32v-.06a1.1,1.1,0,0,0,0-.18.64.64,0,0,0,0-.07,2.14,2.14,0,0,0-.1-.22,1.24,1.24,0,0,0-.14-.18.9.9,0,0,0-.19-.15,1.36,1.36,0,0,0-.21-.1l-.08,0a.93.93,0,0,0-.24,0,.6.6,0,0,0-.24.05.53.53,0,0,0-.2.13.63.63,0,0,0-.13.2.43.43,0,0,0,0,.25l0,.16a.61.61,0,0,0,.16.28l.13.1a.65.65,0,0,0,.31.08Z" transform="translate(-69.5 -167.23)"/><path class="cls-2" d="M162.06,198l.95,1.51a.63.63,0,0,0,.37.29.66.66,0,0,0,.48-.06.64.64,0,0,0,.23-.86l-1-1.51a.66.66,0,0,0-.37-.29.7.7,0,0,0-.49.06.64.64,0,0,0-.22.86Z" transform="translate(-69.5 -167.23)"/><path class="cls-2" d="M166,211.48v.19a.48.48,0,0,0,.06.24.46.46,0,0,0,.13.21.37.37,0,0,0,.2.12.48.48,0,0,0,.24.06l.17,0a.74.74,0,0,0,.27-.16l.1-.13a.59.59,0,0,0,.08-.32v-.19a.42.42,0,0,0,0-.24.63.63,0,0,0-.13-.2.53.53,0,0,0-.2-.13.49.49,0,0,0-.24,0l-.17,0a.57.57,0,0,0-.27.16l-.1.13a.59.59,0,0,0-.09.31Z" transform="translate(-69.5 -167.23)"/><path class="cls-2" d="M182.49,211a.63.63,0,0,0,0-1.25.63.63,0,0,0,0,1.25Z" transform="translate(-69.5 -167.23)"/><path class="cls-2" d="M170.37,187.1a.63.63,0,0,0,0-1.25.63.63,0,0,0,0,1.25Z" transform="translate(-69.5 -167.23)"/><path class="cls-2" d="M179.27,219.5a.63.63,0,0,0,0-1.25.63.63,0,0,0,0,1.25Z" transform="translate(-69.5 -167.23)"/><path class="cls-2" d="M102,219.5a.63.63,0,0,0,0-1.25.63.63,0,0,0,0,1.25Z" transform="translate(-69.5 -167.23)"/><path class="cls-2" d="M163.39,244.77l.57.95a.65.65,0,0,0,.37.28.42.42,0,0,0,.25,0,.39.39,0,0,0,.23-.07.67.67,0,0,0,.29-.37.69.69,0,0,0-.07-.49l-.56-.94a.65.65,0,0,0-.38-.29.42.42,0,0,0-.25,0,.48.48,0,0,0-.23.07.69.69,0,0,0-.29.38.68.68,0,0,0,.07.48Z" transform="translate(-69.5 -167.23)"/><path class="cls-2" d="M128.35,266.42a2.65,2.65,0,0,0,2.73-.62.64.64,0,0,0,0-.89.63.63,0,0,0-.88,0l-.12.11h0c.09-.07,0,0,0,0a2.4,2.4,0,0,1-.27.16l-.06,0,0,0-.14.05a1.8,1.8,0,0,1-.32.06l.16,0a2.35,2.35,0,0,1-.53,0l.16,0a1.63,1.63,0,0,1-.42-.11.62.62,0,0,0-.48.07.6.6,0,0,0-.29.37.64.64,0,0,0,.44.77Z" transform="translate(-69.5 -167.23)"/><path class="cls-2" d="M138.68,266.52h-.06l.15.06-.06,0,.13.1-.06-.06.1.12a.16.16,0,0,1,0-.07l.06.15a.3.3,0,0,1,0-.1l0,.17a.33.33,0,0,1,0-.14l0,.16a.7.7,0,0,1,0-.14l-.06.15a.54.54,0,0,1,.07-.13l-.09.13a.27.27,0,0,1,.07-.08l-.12.1.09-.06-.15.06.09,0-.17,0h.13l-.17,0,.15,0-.15-.07a1.19,1.19,0,0,1,.15.09l-.13-.1a.67.67,0,0,1,.14.15l-.09-.13a1,1,0,0,1,.11.21l-.06-.15a.86.86,0,0,1,.06.23l0-.17a.89.89,0,0,1,0,.28l0-.17a2,2,0,0,1-.13.42l.07-.15a4.16,4.16,0,0,1-.28.51.64.64,0,0,0,.23.86.63.63,0,0,0,.85-.23,2.77,2.77,0,0,0,.26-.48,2.69,2.69,0,0,0,.23-.78,1.55,1.55,0,0,0-.41-1.2,1.2,1.2,0,0,0-1.21-.34,1.11,1.11,0,0,0-.73.92,1,1,0,0,0,.68,1.11.63.63,0,0,0,.77-.44.64.64,0,0,0-.43-.77Z" transform="translate(-69.5 -167.23)"/><path class="cls-2" d="M147.44,252.56l.19.57a.51.51,0,0,0,.11.22.69.69,0,0,0,.18.16.48.48,0,0,0,.23.07.43.43,0,0,0,.25,0l.15-.06a.61.61,0,0,0,.22-.23l.07-.15a.62.62,0,0,0,0-.33l-.19-.57a.53.53,0,0,0-.11-.21.55.55,0,0,0-.18-.16.49.49,0,0,0-.23-.08.53.53,0,0,0-.25,0l-.15.06a.58.58,0,0,0-.22.22l-.07.15a.62.62,0,0,0,0,.33Z" transform="translate(-69.5 -167.23)"/></svg>