<svg width="596" height="842" viewBox="0 0 596 842" fill="none" xmlns="http://www.w3.org/2000/svg">
<path d="M524.7 539.8H85.7C78.9 539.8 73.4 534.3 73.4 527.5V250.8C73.4 244 78.9 238.5 85.7 238.5H524.7C531.5 238.5 537 244 537 250.8V527.5C537 534.3 531.5 539.8 524.7 539.8Z" fill="#1B1B1B"/>
<path d="M521 475.7C521 453.3 520.9 431 520.8 408.6C520.7 383.8 520.6 359.1 520.5 334.3C520.4 312.4 520.7 290.5 520.3 268.6C520.2 263.7 516.5 260.6 511.8 260.6C510.2 260.6 508.5 260.6 506.9 260.6C502.3 260.6 497.7 260.6 493.1 260.5C479.8 260.4 466.5 260.4 453.2 260.3C435.7 260.2 418.1 260.1 400.6 260.1C380.3 260 360.1 259.9 339.8 259.8C318.6 259.7 297.3 259.6 276.1 259.6C255.4 259.5 234.6 259.5 213.9 259.4C195.4 259.4 176.9 259.3 158.4 259.3C154.4 259.3 150.4 259.3 146.4 259.3C144.2 259.3 144.2 262.7 146.4 262.7C164 262.7 181.6 262.7 199.1 262.8C219.2 262.8 239.3 262.9 259.4 263C280.5 263.1 301.5 263.1 322.6 263.2C343.1 263.3 363.5 263.4 384 263.5C402.3 263.6 420.6 263.7 438.9 263.8C453.5 263.9 468.1 263.9 482.7 264C492 264 501.4 264.1 510.7 264.1C511.7 264.1 512.9 264 513.9 264.3C516.8 265.3 516.9 267.9 516.9 270.5C516.9 275.5 516.9 280.4 516.9 285.4C516.9 296.4 517 307.4 517 318.4C517.1 342.7 517.2 366.9 517.3 391.2C517.4 414.4 517.5 437.6 517.5 460.8C517.5 465.8 517.5 470.8 517.5 475.7C517.6 477.9 521 477.9 521 475.7Z" fill="white"/>
<path d="M147.6 607.3L147.8 607.5H147.6V607.3Z" stroke="black" stroke-miterlimit="10"/>
<path d="M445.7 515V515.2H165.4L189.9 436.2H421.2L445.7 515Z" stroke="white" stroke-width="4.0897" stroke-miterlimit="10"/>
<path d="M147.8 607.5H148.1V607.8L147.8 607.5Z" stroke="black" stroke-miterlimit="10"/>
<path d="M209.8 506.4C214.715 506.4 218.7 502.415 218.7 497.5C218.7 492.585 214.715 488.6 209.8 488.6C204.885 488.6 200.9 492.585 200.9 497.5C200.9 502.415 204.885 506.4 209.8 506.4Z" stroke="white" stroke-width="4.0897" stroke-miterlimit="10"/>
<path d="M243.9 499.6C248.815 499.6 252.8 495.615 252.8 490.7C252.8 485.785 248.815 481.8 243.9 481.8C238.985 481.8 235 485.785 235 490.7C235 495.615 238.985 499.6 243.9 499.6Z" stroke="white" stroke-width="4.0897" stroke-miterlimit="10"/>
<path d="M400 507.1C404.915 507.1 408.9 503.115 408.9 498.2C408.9 493.285 404.915 489.3 400 489.3C395.085 489.3 391.1 493.285 391.1 498.2C391.1 503.115 395.085 507.1 400 507.1Z" stroke="white" stroke-width="4.0897" stroke-miterlimit="10"/>
<path d="M365.9 500.3C370.815 500.3 374.8 496.315 374.8 491.4C374.8 486.485 370.815 482.5 365.9 482.5C360.985 482.5 357 486.485 357 491.4C357 496.315 360.985 500.3 365.9 500.3Z" stroke="white" stroke-width="4.0897" stroke-miterlimit="10"/>
<path d="M358.4 338.7V397.2C358.4 405.1 352 411.6 344 411.6H258.3C256.6 411.6 254.9 411.3 253.4 410.7C247.9 408.7 244 403.4 244 397.2V338.7C244 330.8 250.4 324.3 258.4 324.3H344C352 324.4 358.4 330.8 358.4 338.7Z" stroke="white" stroke-width="4.0897" stroke-miterlimit="10"/>
<path d="M277.3 359.8C277.3 380.3 268 398.6 253.3 410.7C247.8 408.7 243.9 403.4 243.9 397.2V338.7C243.9 330.8 250.3 324.3 258.3 324.3H267C273.5 334.6 277.3 346.8 277.3 359.8Z" fill="white"/>
<path d="M358.4 338.7V397.2C358.4 405.1 352 411.6 344 411.6H338.3C326.8 397.6 319.9 379.7 319.9 360.2C319.9 347.3 322.9 335.1 328.3 324.3H344C352 324.4 358.4 330.8 358.4 338.7Z" fill="white"/>
<path d="M230.8 360.5C231.2 360.4 231.6 360.3 232 360.2C232.2 360.1 232.3 360.1 232.3 359.8C232.3 359.6 232.3 359.4 232 359.3C231.5 359.2 231 359 230.5 358.8C230.2 358.7 230.3 358.4 230.2 358.2C230.1 358 230.3 357.9 230.4 357.8C230.8 357.6 231.2 357.4 231.6 357.2C232.1 356.9 232.1 356.8 231.7 356.4C231.6 356.3 231.5 356.3 231.4 356.3C231.1 356.2 230.7 356.1 230.4 356.1C230.1 356.1 229.9 355.9 229.9 355.6C229.9 355.4 229.9 355.3 230.1 355.2C230.5 354.9 230.9 354.6 231.2 354.4C231.3 354.3 231.6 354.2 231.5 353.9C231.4 353.6 231.2 353.6 231 353.6C230.5 353.6 230.1 353.6 229.6 353.6C229.2 353.6 229.2 353.3 229.1 353C229 352.8 229.2 352.7 229.3 352.6C229.6 352.3 230 352.1 230.3 351.8C230.5 351.6 230.6 351.5 230.5 351.2C230.4 350.9 230.2 350.9 230 350.9C229.6 350.9 229.1 350.9 228.7 351C228.3 351.1 228.3 350.8 228.1 350.6C228 350.4 228.1 350.3 228.2 350.2C228.5 349.9 228.8 349.5 229.1 349.2C229.3 349 229.4 348.8 229.3 348.6C229.2 348.3 228.9 348.4 228.7 348.5C228.3 348.6 227.9 348.7 227.5 348.8C227.2 348.9 227.1 348.8 226.9 348.6C226.8 348.4 226.6 348.2 226.8 347.9C227.1 347.5 227.3 347.1 227.6 346.8C227.8 346.6 227.6 346.4 227.5 346.2C227.4 346 227.3 346.1 227.1 346.1C226.6 346.2 226.2 346.3 225.8 346.6C225.5 346.7 225.4 346.7 225.2 346.5C225 346.3 224.9 346.1 225.1 345.9C225.3 345.5 225.6 345 225.8 344.6C225.9 344.4 225.9 344.3 225.8 344.2C225.7 344.1 225.5 344 225.3 344.1C224.8 344.2 224.4 344.5 224.1 344.8C224 344.9 223.8 345.1 223.6 344.9C223.4 344.7 223 344.6 223.2 344.1C223.4 343.7 223.5 343.2 223.7 342.8C223.8 342.7 223.8 342.5 223.6 342.4C223.4 342.3 223.3 342.2 223.1 342.3C222.7 342.6 222.2 342.8 221.8 343.1C221.5 343.3 221.4 343.1 221.2 343C221 342.9 220.9 342.7 221 342.4C221.2 342 221.2 341.5 221.4 341C221.5 340.7 221.2 340.7 221 340.5C220.9 340.4 220.8 340.6 220.7 340.6C220.4 340.9 220.1 341.2 219.8 341.5C219.6 341.7 218.9 341.7 218.7 341.4C218.6 341.3 218.7 341.3 218.7 341.2C218.7 340.7 218.8 340.1 218.8 339.6C218.8 339.4 218.8 339.3 218.6 339.2C218.4 339.1 218.3 339.2 218.2 339.3C217.9 339.7 217.5 340 217.1 340.4C216.9 340.6 216.8 340.6 216.6 340.5C216.4 340.4 216.3 340.4 216.3 340.1C216.3 339.6 216.1 339.1 216.1 338.5C216.1 338.3 216 338.2 215.9 338.2C215.7 338.2 215.6 338.1 215.5 338.3C215.2 338.7 214.9 339 214.7 339.4C214.6 339.6 214.4 339.7 214.1 339.7C213.8 339.6 213.8 339.4 213.7 339.2C213.6 338.8 213.5 338.3 213.4 337.9C213.4 337.7 213.3 337.5 213 337.4C212.7 337.4 212.6 337.6 212.5 337.8C212.3 338.2 212.1 338.6 211.9 339C211.8 339.1 211.8 339.3 211.6 339.3C211.4 339.3 211.2 339.3 211.1 339C210.9 338.5 210.7 338 210.4 337.6C210.3 337.5 210.3 337.3 210.1 337.3C209.9 337.3 209.8 337.5 209.7 337.6C209.5 338 209.4 338.4 209.3 338.8C209.2 339 209.2 339.2 208.9 339.2C208.6 339.2 208.3 339.3 208.1 338.9C207.9 338.5 207.7 338.1 207.5 337.7C207.4 337.6 207.4 337.4 207.2 337.5C207 337.5 206.9 337.6 206.8 337.8C206.7 338.3 206.6 338.7 206.6 339.2C206.6 339.3 206.6 339.5 206.5 339.6C206.3 339.8 205.6 339.7 205.5 339.4C205.3 339 205 338.6 204.8 338.3C204.7 338.2 204.7 338 204.5 338.1C204.3 338.2 204 338.1 204 338.5C204 338.8 204 339.2 204 339.5C204.1 340.2 204.1 340.3 203.4 340.4C203.3 340.4 203.1 340.4 203 340.3C202.7 339.8 202.3 339.5 201.9 339.1C201.8 339 201.6 338.8 201.4 338.9C201.2 339 201.1 339.2 201.1 339.4C201.1 339.9 201.1 340.4 201.3 340.8C201.4 341 201.4 341.2 201.2 341.2C201 341.2 200.8 341.7 200.5 341.3C200.2 340.9 199.8 340.5 199.3 340.2C198.9 340 198.6 340.2 198.5 340.7C198.5 341.2 198.7 341.7 198.9 342.1C199 342.3 199 342.4 198.8 342.6C198.6 342.7 198.4 343 198.1 342.7C197.7 342.4 197.3 342.1 196.8 341.8C196.7 341.7 196.5 341.6 196.4 341.7C196.2 341.8 196.1 342 196.1 342.2C196.2 342.8 196.4 343.3 196.6 343.8C196.7 344 196.7 344.1 196.5 344.2C196.3 344.3 196.2 344.6 195.9 344.3C195.5 343.9 195.1 343.7 194.6 343.6C194 343.4 193.7 343.7 193.9 344.3C193.9 344.4 194 344.5 194 344.6C194.2 344.9 194.4 345.3 194.7 345.6C194.8 345.8 194.9 345.9 194.7 346.1C194.5 346.3 194.4 346.4 194.1 346.2C193.5 345.9 192.9 345.7 192.3 345.7C191.8 345.7 191.7 345.9 191.9 346.4C192.2 346.9 192.5 347.3 192.9 347.8C193 347.9 193.2 348 193 348.2C192.8 348.4 192.7 348.6 192.4 348.5C191.8 348.3 191.3 348.2 190.7 348.2C190.5 348.2 190.3 348.2 190.2 348.4C190.1 348.7 190.2 348.8 190.4 349C190.8 349.5 191.2 349.9 191.6 350.3C191.8 350.5 191.7 350.6 191.6 350.7C191.5 350.8 191.3 350.9 191.2 350.9C190.6 350.9 190.1 350.8 189.5 350.8C189.3 350.8 189.1 350.7 189 351C188.9 351.3 189 351.5 189.2 351.7C189.5 352 189.8 352.2 190.1 352.4C190.3 352.6 190.8 352.7 190.7 353.1C190.6 353.5 190.2 353.5 189.8 353.5C189.3 353.5 188.9 353.5 188.4 353.6C188.2 353.6 188 353.8 188 354C188 354.2 188.1 354.4 188.3 354.5C188.8 354.8 189.3 355.1 189.8 355.4C189.9 355.5 190.1 355.6 190 355.8C190 356 189.9 356.2 189.7 356.2C189.6 356.3 189.4 356.3 189.3 356.3C188.8 356.4 188.3 356.5 187.8 356.6C187.4 356.6 187.5 356.9 187.4 357.2C187.3 357.4 187.5 357.5 187.7 357.5C188.3 357.8 188.8 358 189.4 358.3C189.7 358.4 189.7 358.7 189.5 358.9C189.4 359 189.3 359.1 189.1 359.2C188.5 359.4 188 359.6 187.4 359.8C187.2 359.9 187.1 360 187.2 360.2C187.3 360.6 187.6 360.7 188 360.8C188.5 360.9 188.9 361 189.4 361.2C189.7 361.3 189.8 361.5 189.6 361.8C189.5 361.9 189.4 362.1 189.2 362.1C188.7 362.2 188.2 362.5 187.7 362.8C187.2 363 187.2 363.3 187.6 363.7C187.8 363.9 188 363.9 188.2 363.9C188.7 363.9 189.2 364 189.6 364C189.9 364 189.9 364.2 190 364.4C190 364.7 189.8 364.8 189.7 364.9C189.2 365.2 188.8 365.5 188.3 365.9C188 366.1 188 366.3 188.3 366.6C188.4 366.7 188.6 366.8 188.8 366.8C189.3 366.8 189.8 366.8 190.3 366.7C190.5 366.7 190.7 366.6 190.8 366.9C190.9 367.2 191 367.5 190.7 367.7C190.3 368.1 189.9 368.5 189.5 368.8C189.3 369 189.3 369.2 189.4 369.4C189.5 369.6 189.7 369.5 189.8 369.5C189.9 369.5 190.1 369.5 190.2 369.5C190.7 369.4 191.2 369.4 191.7 369.4C191.9 369.4 192 369.5 192.1 369.7C192.2 369.9 192.1 370 192 370.1C191.6 370.6 191.2 371.1 190.8 371.6C190.6 371.8 190.8 372 190.8 372.1C190.9 372.3 191 372.2 191.2 372.2C191.8 372 192.4 371.9 193.1 371.7C193.2 371.7 193.4 371.6 193.5 371.7C193.6 371.9 193.7 372 193.5 372.2C193.1 372.8 192.8 373.3 192.5 373.9C192.3 374.2 192.4 374.3 192.6 374.5C192.8 374.6 193 374.6 193.2 374.5C193.7 374.3 194.3 374.1 194.8 373.9C195 373.8 195.2 373.7 195.4 373.9C195.6 374.1 195.5 374.3 195.4 374.6C195.2 375 195 375.4 194.8 375.7C194.5 376.1 194.6 376.3 194.9 376.6C195.1 376.9 195.3 376.9 195.6 376.7C196 376.4 196.4 376.1 196.8 375.9C197.3 375.6 197.6 375.7 197.7 376.3C197.7 376.4 197.7 376.6 197.6 376.7C197.5 377.2 197.3 377.6 197.2 378.1C197.1 378.5 197.4 378.6 197.6 378.8C197.8 379 197.9 378.8 198.1 378.7C198.4 378.4 198.7 378.1 199.1 377.9C199.4 377.7 199.6 377.3 200 377.4C200.1 377.5 200.2 377.6 200.2 377.7C200.2 378.4 200 379.1 199.9 379.8C199.9 380.1 200 380.2 200.2 380.3C200.4 380.3 200.6 380.3 200.8 380.2C201.3 379.9 201.6 379.4 202 378.9C202.5 378.5 202.7 378.6 202.9 379.2C202.8 379.7 202.6 380.2 202.7 380.7C202.8 380.9 202.8 381.2 203.1 381.3C203.4 381.4 203.8 381.3 204 381C204.2 380.7 204.4 380.3 204.6 379.9C204.7 379.8 204.7 379.7 204.8 379.7C205.2 379.2 205.4 379.2 205.6 379.9C205.6 379.9 205.6 379.9 205.6 380C205.6 380.4 205.6 380.7 205.6 381.1C205.6 381.4 205.7 381.7 205.8 381.9C206 382.3 206.3 382.3 206.6 382C207 381.5 207.3 381 207.5 380.5C207.5 380.4 207.6 380.3 207.6 380.2C207.7 380.1 207.7 379.9 207.9 379.9C208.1 379.9 208.2 380 208.3 380.2C208.3 380.3 208.4 380.3 208.4 380.4C208.5 380.8 208.5 381.2 208.7 381.7C208.8 381.9 208.8 382.1 209 382.3C209.3 382.5 209.7 382.5 209.8 382.2C210 381.7 210.2 381.1 210.3 380.6C210.4 380.4 210.4 380.1 210.7 380.1C211 380.1 211.1 380.3 211.2 380.6C211.2 381.2 211.5 381.6 211.7 382.1C211.9 382.5 212.2 382.5 212.6 382.2C212.7 382.1 212.8 381.9 212.8 381.7C212.9 381.2 213 380.8 213 380.3C213.1 380.1 213.1 379.9 213.2 379.8C213.5 379.8 213.7 380 213.9 380.2C214.2 380.7 214.5 381.1 214.8 381.6C215 381.9 215.2 381.9 215.4 381.8C215.6 381.7 215.7 381.5 215.8 381.3C215.9 380.8 215.9 380.3 215.9 379.8C215.9 379.5 216 379.3 216.3 379.2C216.5 379.1 216.6 379.4 216.7 379.5C216.9 379.8 217.1 380.1 217.4 380.4C217.6 380.7 217.9 381.1 218.3 380.9C218.8 380.8 218.7 380.3 218.7 379.9C218.7 379.4 218.7 379 218.6 378.5C218.6 378.3 218.7 378.2 218.8 378.1C219 378.1 219.1 378.1 219.2 378.2C219.3 378.3 219.4 378.4 219.5 378.6C219.8 378.9 220.1 379.3 220.4 379.5C220.8 379.7 221.2 379.6 221.2 379.1C221.2 378.5 221.1 377.9 220.9 377.4C220.8 377.2 220.8 377 221 376.9C221.2 376.7 221.4 376.8 221.5 376.9C221.8 377.1 222 377.3 222.2 377.5C222.4 377.7 222.6 377.8 222.8 377.9C223 378 223.2 377.9 223.4 377.7C223.6 377.5 223.6 377.3 223.5 377.1C223.3 376.6 223.2 376.1 223 375.6C222.9 375.3 223.1 375.3 223.2 375.2C223.3 375.1 223.4 375.1 223.6 375.2C223.9 375.4 224.3 375.6 224.6 375.9C224.9 376.1 225.2 376.2 225.5 375.9C225.8 375.6 225.8 375.3 225.6 375C225.4 374.7 225.2 374.3 225 374C224.8 373.7 225.1 373.5 225.2 373.3C225.3 373.1 225.5 373.3 225.6 373.3C226 373.5 226.4 373.7 226.8 373.8C227.1 373.9 227.3 373.9 227.5 373.6C227.7 373.4 227.6 373.1 227.5 372.9C227.3 372.5 227.1 372.1 226.8 371.8C226.6 371.5 226.8 371.4 226.8 371.2C226.9 371 227.1 371.1 227.2 371.1C227.7 371.2 228.1 371.4 228.6 371.3C228.8 371.3 228.9 371.3 229 371.1C229 370.9 229.2 370.7 229 370.5C228.7 370.2 228.4 369.9 228.1 369.5C228 369.4 227.8 369.3 227.9 369.1C228.1 368.9 228.1 368.6 228.5 368.6C229 368.7 229.4 368.7 229.9 368.8C230 368.8 230.2 368.9 230.3 368.7C230.3 368.5 230.5 368.3 230.2 368.1C229.8 367.8 229.4 367.5 229 367.2C228.7 367 228.9 366.8 228.9 366.6C228.9 366.4 229 366.2 229.3 366.2C229.8 366.2 230.3 366.3 230.8 366.1C231 366.1 231.2 366.1 231.2 365.9C231.2 365.6 231.2 365.4 230.9 365.2C230.5 365 230.1 364.7 229.7 364.5C229.3 364.2 229.6 363.9 229.6 363.6C229.6 363.4 229.9 363.5 230 363.5C230.4 363.5 230.8 363.4 231.2 363.4C231.4 363.4 231.6 363.3 231.6 363C231.6 362.7 231.6 362.6 231.3 362.5C230.9 362.3 230.5 362.1 230.1 361.9C229.8 361.7 229.8 361.5 229.8 361.2C230.4 360.6 230.6 360.6 230.8 360.5Z" stroke="white" stroke-width="7" stroke-miterlimit="10"/>
<path d="M421.7 360.4C422.1 360.3 422.5 360.2 422.9 360.1C423.1 360 423.2 360 423.2 359.7C423.2 359.5 423.2 359.3 422.9 359.2C422.4 359.1 421.9 358.9 421.4 358.7C421.1 358.6 421.2 358.3 421.1 358.1C421 357.9 421.2 357.8 421.3 357.7C421.7 357.5 422.1 357.3 422.5 357.1C423 356.8 423 356.7 422.6 356.3C422.5 356.2 422.4 356.2 422.3 356.2C422 356.1 421.6 356 421.3 356C421 356 420.8 355.8 420.8 355.5C420.8 355.3 420.8 355.2 421 355.1C421.4 354.8 421.8 354.5 422.1 354.3C422.2 354.2 422.5 354.1 422.4 353.8C422.3 353.5 422.1 353.5 421.9 353.5C421.4 353.5 421 353.5 420.5 353.5C420.1 353.5 420.1 353.2 420 352.9C419.9 352.7 420.1 352.6 420.2 352.5C420.5 352.2 420.9 352 421.2 351.7C421.4 351.5 421.5 351.4 421.4 351.1C421.3 350.8 421.1 350.8 420.9 350.8C420.5 350.8 420 350.8 419.6 350.9C419.2 351 419.2 350.7 419 350.5C418.9 350.3 419 350.2 419.1 350.1C419.4 349.8 419.7 349.4 420 349.1C420.2 348.9 420.3 348.7 420.2 348.5C420.1 348.2 419.8 348.3 419.6 348.4C419.2 348.5 418.8 348.6 418.4 348.7C418.1 348.8 418 348.7 417.8 348.5C417.7 348.3 417.5 348.1 417.7 347.8C418 347.4 418.2 347 418.5 346.7C418.7 346.5 418.5 346.3 418.4 346.1C418.3 345.9 418.2 346 418 346C417.5 346.1 417.1 346.2 416.7 346.5C416.4 346.6 416.3 346.6 416.1 346.4C415.9 346.2 415.8 346 416 345.8C416.2 345.4 416.5 344.9 416.7 344.5C416.8 344.3 416.8 344.2 416.7 344.1C416.6 344 416.4 343.9 416.2 344C415.7 344.1 415.3 344.4 415 344.7C414.9 344.8 414.7 345 414.5 344.8C414.3 344.6 413.9 344.5 414.1 344C414.3 343.6 414.4 343.1 414.6 342.7C414.7 342.6 414.7 342.4 414.5 342.3C414.3 342.2 414.2 342.1 414 342.2C413.6 342.5 413.1 342.7 412.7 343C412.4 343.2 412.3 343 412.1 342.9C411.9 342.8 411.8 342.6 411.9 342.3C412.1 341.9 412.1 341.4 412.3 340.9C412.4 340.6 412.1 340.6 411.9 340.4C411.8 340.3 411.7 340.5 411.6 340.5C411.3 340.8 411 341.1 410.7 341.4C410.5 341.6 409.8 341.6 409.6 341.3C409.5 341.2 409.6 341.2 409.6 341.1C409.6 340.6 409.7 340 409.7 339.5C409.7 339.3 409.7 339.2 409.5 339.1C409.3 339 409.2 339.1 409.1 339.2C408.8 339.6 408.4 339.9 408 340.3C407.8 340.5 407.7 340.5 407.5 340.4C407.3 340.3 407.2 340.3 407.2 340C407.2 339.5 407 339 407 338.4C407 338.2 406.9 338.1 406.8 338.1C406.6 338.1 406.5 338 406.4 338.2C406.1 338.6 405.8 338.9 405.6 339.3C405.5 339.5 405.3 339.6 405 339.6C404.7 339.5 404.7 339.3 404.6 339.1C404.5 338.7 404.4 338.2 404.3 337.8C404.3 337.6 404.2 337.4 403.9 337.3C403.6 337.3 403.5 337.5 403.4 337.7C403.2 338.1 403 338.5 402.8 338.9C402.7 339 402.7 339.2 402.5 339.2C402.3 339.2 402.1 339.2 402 338.9C401.8 338.4 401.6 337.9 401.3 337.5C401.2 337.4 401.2 337.2 401 337.2C400.8 337.2 400.7 337.4 400.6 337.5C400.4 337.9 400.3 338.3 400.2 338.7C400.1 338.9 400.1 339.1 399.8 339.1C399.5 339.1 399.2 339.2 399 338.8C398.8 338.4 398.6 338 398.4 337.6C398.3 337.5 398.3 337.3 398.1 337.4C397.9 337.4 397.8 337.5 397.7 337.7C397.6 338.2 397.5 338.6 397.5 339.1C397.5 339.2 397.5 339.4 397.4 339.5C397.2 339.7 396.5 339.6 396.4 339.3C396.2 338.9 395.9 338.5 395.7 338.2C395.6 338.1 395.6 337.9 395.4 338C395.2 338.1 394.9 338 394.9 338.4C394.9 338.7 394.9 339.1 394.9 339.4C395 340.1 395 340.2 394.3 340.3C394.2 340.3 394 340.3 393.9 340.2C393.6 339.7 393.2 339.4 392.8 339C392.7 338.9 392.5 338.7 392.3 338.8C392.1 338.9 392 339.1 392 339.3C392 339.8 392 340.3 392.2 340.7C392.3 340.9 392.3 341.1 392.1 341.1C391.9 341.1 391.7 341.6 391.4 341.2C391.1 340.8 390.7 340.4 390.2 340.1C389.8 339.9 389.5 340.1 389.4 340.6C389.4 341.1 389.6 341.6 389.8 342C389.9 342.2 389.9 342.3 389.7 342.5C389.5 342.6 389.3 342.9 389 342.6C388.6 342.3 388.2 342 387.7 341.7C387.6 341.6 387.4 341.5 387.3 341.6C387.1 341.7 387 341.9 387 342.1C387.1 342.7 387.3 343.2 387.5 343.7C387.6 343.9 387.6 344 387.4 344.1C387.2 344.2 387.1 344.5 386.8 344.2C386.4 343.8 386 343.6 385.5 343.5C384.9 343.3 384.6 343.6 384.8 344.2C384.8 344.3 384.9 344.4 384.9 344.5C385.1 344.8 385.3 345.2 385.6 345.5C385.7 345.7 385.8 345.8 385.6 346C385.4 346.2 385.3 346.3 385 346.1C384.4 345.8 383.8 345.6 383.2 345.6C382.7 345.6 382.6 345.8 382.8 346.3C383.1 346.8 383.4 347.2 383.8 347.7C383.9 347.8 384.1 347.9 383.9 348.1C383.7 348.3 383.6 348.5 383.3 348.4C382.7 348.2 382.2 348.1 381.6 348.1C381.4 348.1 381.2 348.1 381.1 348.3C381 348.6 381.1 348.7 381.3 348.9C381.7 349.4 382.1 349.8 382.5 350.2C382.7 350.4 382.6 350.5 382.5 350.6C382.4 350.7 382.2 350.8 382.1 350.8C381.5 350.8 381 350.7 380.4 350.7C380.2 350.7 380 350.6 379.9 350.9C379.8 351.2 379.9 351.4 380.1 351.6C380.4 351.9 380.7 352.1 381 352.3C381.2 352.5 381.7 352.6 381.6 353C381.5 353.4 381.1 353.4 380.7 353.4C380.2 353.4 379.8 353.4 379.3 353.5C379.1 353.5 378.9 353.7 378.9 353.9C378.9 354.1 379 354.3 379.2 354.4C379.7 354.7 380.2 355 380.7 355.3C380.8 355.4 381 355.5 380.9 355.7C380.9 355.9 380.8 356.1 380.6 356.1C380.5 356.2 380.3 356.2 380.2 356.2C379.7 356.3 379.2 356.4 378.7 356.5C378.3 356.5 378.4 356.8 378.3 357.1C378.2 357.3 378.4 357.4 378.6 357.4C379.2 357.7 379.7 357.9 380.3 358.2C380.6 358.3 380.6 358.6 380.4 358.8C380.3 358.9 380.2 359 380 359.1C379.4 359.3 378.9 359.5 378.3 359.7C378.1 359.8 378 359.9 378.1 360.1C378.2 360.5 378.5 360.6 378.9 360.7C379.4 360.8 379.8 360.9 380.3 361.1C380.6 361.2 380.7 361.4 380.5 361.7C380.4 361.8 380.3 362 380.1 362C379.6 362.1 379.1 362.4 378.6 362.7C378.1 362.9 378.1 363.2 378.5 363.6C378.7 363.8 378.9 363.8 379.1 363.8C379.6 363.8 380.1 363.9 380.5 363.9C380.8 363.9 380.8 364.1 380.9 364.3C380.9 364.6 380.7 364.7 380.6 364.8C380.1 365.1 379.7 365.4 379.2 365.8C378.9 366 378.9 366.2 379.2 366.5C379.3 366.6 379.5 366.7 379.7 366.7C380.2 366.7 380.7 366.7 381.2 366.6C381.4 366.6 381.6 366.5 381.7 366.8C381.8 367.1 381.9 367.4 381.6 367.6C381.2 368 380.8 368.4 380.4 368.7C380.2 368.9 380.2 369.1 380.3 369.3C380.4 369.5 380.6 369.4 380.7 369.4C380.8 369.4 381 369.4 381.1 369.4C381.6 369.3 382.1 369.3 382.6 369.3C382.8 369.3 382.9 369.4 383 369.6C383.1 369.8 383 369.9 382.9 370C382.5 370.5 382.1 371 381.7 371.5C381.5 371.7 381.7 371.9 381.7 372C381.8 372.2 381.9 372.1 382.1 372.1C382.7 371.9 383.3 371.8 384 371.6C384.1 371.6 384.3 371.5 384.4 371.6C384.5 371.8 384.6 371.9 384.4 372.1C384 372.7 383.7 373.2 383.4 373.8C383.2 374.1 383.3 374.2 383.5 374.4C383.7 374.5 383.9 374.5 384.1 374.4C384.6 374.2 385.2 374 385.7 373.8C385.9 373.7 386.1 373.6 386.3 373.8C386.5 374 386.4 374.2 386.3 374.5C386.1 374.9 385.9 375.3 385.7 375.6C385.4 376 385.5 376.2 385.8 376.5C386 376.8 386.2 376.8 386.5 376.6C386.9 376.3 387.3 376 387.7 375.8C388.2 375.5 388.5 375.6 388.6 376.2C388.6 376.3 388.6 376.5 388.5 376.6C388.4 377.1 388.2 377.5 388.1 378C388 378.4 388.3 378.5 388.5 378.7C388.7 378.9 388.8 378.7 389 378.6C389.3 378.3 389.6 378 390 377.8C390.3 377.6 390.5 377.2 390.9 377.3C391 377.4 391.1 377.5 391.1 377.6C391.1 378.3 390.9 379 390.8 379.7C390.8 380 390.9 380.1 391.1 380.2C391.3 380.2 391.5 380.2 391.7 380.1C392.2 379.8 392.5 379.3 392.9 378.8C393.4 378.4 393.6 378.5 393.8 379.1C393.7 379.6 393.5 380.1 393.6 380.6C393.7 380.8 393.7 381.1 394 381.2C394.3 381.3 394.7 381.2 394.9 380.9C395.1 380.6 395.3 380.2 395.5 379.8C395.6 379.7 395.6 379.6 395.7 379.6C396.1 379.1 396.3 379.1 396.5 379.8C396.5 379.8 396.5 379.8 396.5 379.9C396.5 380.3 396.5 380.6 396.5 381C396.5 381.3 396.6 381.6 396.7 381.8C396.9 382.2 397.2 382.2 397.5 381.9C397.9 381.4 398.2 380.9 398.4 380.4C398.4 380.3 398.5 380.2 398.5 380.1C398.6 380 398.6 379.8 398.8 379.8C399 379.8 399.1 379.9 399.2 380.1C399.2 380.2 399.3 380.2 399.3 380.3C399.4 380.7 399.4 381.1 399.6 381.6C399.7 381.8 399.7 382 399.9 382.2C400.2 382.4 400.6 382.4 400.7 382.1C400.9 381.6 401.1 381 401.2 380.5C401.3 380.3 401.3 380 401.6 380C401.9 380 402 380.2 402.1 380.5C402.1 381.1 402.4 381.5 402.6 382C402.8 382.4 403.1 382.4 403.5 382.1C403.6 382 403.7 381.8 403.7 381.6C403.8 381.1 403.9 380.7 403.9 380.2C404 380 404 379.8 404.1 379.7C404.4 379.7 404.6 379.9 404.8 380.1C405.1 380.6 405.4 381 405.7 381.5C405.9 381.8 406.1 381.8 406.3 381.7C406.5 381.6 406.6 381.4 406.7 381.2C406.8 380.7 406.8 380.2 406.8 379.7C406.8 379.4 406.9 379.2 407.2 379.1C407.4 379 407.5 379.3 407.6 379.4C407.8 379.7 408 380 408.3 380.3C408.5 380.6 408.8 381 409.2 380.8C409.7 380.7 409.6 380.2 409.6 379.8C409.6 379.3 409.6 378.9 409.5 378.4C409.5 378.2 409.6 378.1 409.7 378C409.9 378 410 378 410.1 378.1C410.2 378.2 410.3 378.3 410.4 378.5C410.7 378.8 411 379.2 411.3 379.4C411.7 379.6 412.1 379.5 412.1 379C412.1 378.4 412 377.8 411.8 377.3C411.7 377.1 411.7 376.9 411.9 376.8C412.1 376.6 412.3 376.7 412.4 376.8C412.7 377 412.9 377.2 413.1 377.4C413.3 377.6 413.5 377.7 413.7 377.8C413.9 377.9 414.1 377.8 414.3 377.6C414.5 377.4 414.5 377.2 414.4 377C414.2 376.5 414.1 376 413.9 375.5C413.8 375.2 414 375.2 414.1 375.1C414.2 375 414.3 375 414.5 375.1C414.8 375.3 415.2 375.5 415.5 375.8C415.8 376 416.1 376.1 416.4 375.8C416.7 375.5 416.7 375.2 416.5 374.9C416.3 374.6 416.1 374.2 415.9 373.9C415.7 373.6 416 373.4 416.1 373.2C416.2 373 416.4 373.2 416.5 373.2C416.9 373.4 417.3 373.6 417.7 373.7C418 373.8 418.2 373.8 418.4 373.5C418.6 373.3 418.5 373 418.4 372.8C418.2 372.4 418 372 417.7 371.7C417.5 371.4 417.7 371.3 417.7 371.1C417.8 370.9 418 371 418.1 371C418.6 371.1 419 371.3 419.5 371.2C419.7 371.2 419.8 371.2 419.9 371C419.9 370.8 420.1 370.6 419.9 370.4C419.6 370.1 419.3 369.8 419 369.4C418.9 369.3 418.7 369.2 418.8 369C419 368.8 419 368.5 419.4 368.5C419.9 368.6 420.3 368.6 420.8 368.7C420.9 368.7 421.1 368.8 421.2 368.6C421.2 368.4 421.4 368.2 421.1 368C420.7 367.7 420.3 367.4 419.9 367.1C419.6 366.9 419.8 366.7 419.8 366.5C419.8 366.3 419.9 366.1 420.2 366.1C420.7 366.1 421.2 366.2 421.7 366C421.9 366 422.1 366 422.1 365.8C422.1 365.5 422.1 365.3 421.8 365.1C421.4 364.9 421 364.6 420.6 364.4C420.2 364.1 420.5 363.8 420.5 363.5C420.5 363.3 420.8 363.4 420.9 363.4C421.3 363.4 421.7 363.3 422.1 363.3C422.3 363.3 422.5 363.2 422.5 362.9C422.5 362.6 422.5 362.5 422.2 362.4C421.8 362.2 421.4 362 421 361.8C420.7 361.6 420.7 361.4 420.7 361.1C421.3 360.4 421.6 360.4 421.7 360.4Z" stroke="white" stroke-width="7" stroke-miterlimit="10"/>
<path d="M116.5 300.6L115 295.2C114.9 294.8 114.5 294.5 114 294.5H106.2C105.8 294.5 105.4 294.8 105.3 295.2L103.7 300.6C103.6 301 103.2 301.3 102.8 301.3H96.3C95.6 301.3 95.2 300.7 95.4 300L105.4 267.5C105.5 267.1 105.9 266.8 106.3 266.8H116C116.4 266.8 116.8 267.1 116.9 267.5L127.1 300C127.3 300.6 126.8 301.3 126.2 301.3H117.5C117.1 301.3 116.7 301 116.5 300.6ZM108.7 287H111.7C112.4 287 112.8 286.4 112.7 285.7L111.2 280.4C110.9 279.4 109.6 279.4 109.3 280.4L107.8 285.7C107.5 286.3 108 287 108.7 287Z" fill="white"/>
<path d="M469 299.1H172.8C170.3 299.1 168.2 297.1 168.2 294.5V283.2C168.2 280.7 170.2 278.6 172.8 278.6H469C471.5 278.6 473.6 280.6 473.6 283.2V294.5C473.6 297.1 471.6 299.1 469 299.1Z" fill="white"/>
<path d="M227.656 287.15C227.656 287.213 227.648 287.291 227.634 287.384C227.619 287.477 227.597 287.572 227.568 287.67C227.543 287.762 227.512 287.853 227.473 287.94C227.438 288.023 227.399 288.089 227.355 288.138C227.238 288.28 227.028 288.35 226.726 288.35C226.726 288.019 226.679 287.743 226.587 287.523C226.543 287.421 226.462 287.335 226.345 287.267C226.233 287.194 226.106 287.133 225.964 287.084C225.823 287.035 225.679 287.001 225.532 286.981C225.391 286.957 225.269 286.945 225.166 286.945C224.932 286.945 224.705 286.95 224.485 286.959C224.27 286.969 224.058 286.991 223.848 287.025C223.643 287.054 223.433 287.098 223.218 287.157C223.009 287.211 222.789 287.284 222.559 287.377C222.384 287.45 222.201 287.538 222.01 287.64C221.82 287.738 221.644 287.85 221.483 287.977C221.322 288.104 221.183 288.243 221.066 288.394C220.949 288.546 220.875 288.712 220.846 288.892C220.836 289.029 220.878 289.185 220.971 289.361C221.063 289.537 221.188 289.708 221.344 289.873C221.505 290.039 221.688 290.191 221.893 290.327C222.103 290.464 222.32 290.564 222.545 290.628C222.584 290.642 222.674 290.674 222.816 290.723C222.957 290.772 223.109 290.823 223.27 290.877C223.436 290.93 223.587 290.982 223.724 291.03C223.865 291.074 223.956 291.101 223.995 291.111C225.098 291.394 225.915 291.731 226.448 292.121C226.984 292.507 227.253 292.98 227.253 293.542C227.253 293.722 227.211 293.903 227.128 294.084C227.05 294.259 226.95 294.43 226.828 294.596C226.706 294.757 226.574 294.906 226.433 295.043C226.291 295.18 226.16 295.294 226.037 295.387C225.896 295.499 225.735 295.616 225.554 295.738C225.374 295.856 225.181 295.97 224.976 296.083C224.771 296.195 224.558 296.3 224.339 296.397C224.119 296.495 223.897 296.58 223.672 296.654C223.453 296.727 223.221 296.793 222.977 296.851C222.738 296.915 222.498 296.969 222.259 297.012C222.025 297.056 221.798 297.091 221.578 297.115C221.364 297.144 221.171 297.159 221 297.159C220.873 297.159 220.707 297.139 220.502 297.1C220.302 297.066 220.104 297.015 219.909 296.947C219.714 296.883 219.545 296.805 219.404 296.712C219.267 296.624 219.199 296.529 219.199 296.427C219.199 296.363 219.206 296.285 219.221 296.192C219.24 296.1 219.265 296.009 219.294 295.922C219.328 295.834 219.365 295.76 219.404 295.702C219.448 295.638 219.496 295.607 219.55 295.607C219.648 295.607 219.748 295.624 219.85 295.658C219.958 295.687 220.082 295.721 220.224 295.76C220.37 295.799 220.541 295.836 220.736 295.87C220.936 295.9 221.178 295.914 221.461 295.914C221.754 295.914 222.057 295.885 222.369 295.826C222.686 295.763 222.996 295.68 223.299 295.577C223.602 295.475 223.89 295.358 224.163 295.226C224.441 295.094 224.69 294.957 224.91 294.816C225.012 294.748 225.125 294.669 225.247 294.582C225.374 294.489 225.491 294.389 225.598 294.281C225.706 294.174 225.796 294.059 225.869 293.937C225.942 293.815 225.979 293.688 225.979 293.556C225.979 293.371 225.842 293.193 225.569 293.022C225.3 292.856 225.025 292.727 224.741 292.634C224.463 292.541 224.214 292.468 223.995 292.414C223.726 292.346 223.423 292.256 223.087 292.143C222.755 292.031 222.389 291.897 221.988 291.741C221.324 291.487 220.763 291.116 220.304 290.628C219.845 290.14 219.616 289.551 219.616 288.863C219.606 288.541 219.704 288.231 219.909 287.933C220.119 287.635 220.399 287.36 220.751 287.106C221.102 286.852 221.503 286.627 221.952 286.432C222.406 286.232 222.872 286.076 223.35 285.963C223.448 285.944 223.565 285.922 223.702 285.898C223.843 285.873 223.987 285.854 224.134 285.839C224.285 285.819 224.429 285.805 224.566 285.795C224.707 285.78 224.827 285.773 224.925 285.773C225.042 285.773 225.188 285.783 225.364 285.802C225.544 285.817 225.728 285.839 225.913 285.868C226.103 285.898 226.282 285.934 226.448 285.978C226.618 286.022 226.755 286.073 226.858 286.132C227.106 286.264 227.302 286.422 227.443 286.608C227.585 286.793 227.656 286.974 227.656 287.15ZM238.273 290.928C238.273 291.006 238.219 291.135 238.112 291.316C237.916 291.628 237.672 291.965 237.379 292.326C237.091 292.688 236.769 293.051 236.413 293.417C236.061 293.779 235.686 294.128 235.285 294.464C234.89 294.801 234.487 295.099 234.077 295.358C233.667 295.612 233.262 295.817 232.862 295.973C232.461 296.129 232.081 296.207 231.719 296.207H231.668C230.833 296.207 230.209 295.968 229.794 295.49C229.379 295.011 229.171 294.345 229.171 293.491C229.171 293.149 229.198 292.788 229.252 292.407C229.306 292.026 229.398 291.641 229.53 291.25C229.667 290.855 229.85 290.462 230.079 290.071C230.314 289.676 230.609 289.295 230.965 288.929C231.234 288.66 231.517 288.455 231.815 288.314C232.112 288.167 232.393 288.094 232.657 288.094C232.696 288.094 232.747 288.104 232.81 288.124C232.874 288.143 232.937 288.17 233.001 288.204C233.069 288.233 233.133 288.272 233.191 288.321C233.255 288.365 233.308 288.414 233.352 288.468C233.489 288.643 233.589 288.812 233.652 288.973C233.716 289.134 233.748 289.322 233.748 289.537C233.748 289.82 233.709 290.078 233.63 290.313C233.552 290.542 233.44 290.767 233.294 290.986C233.147 291.206 232.967 291.428 232.752 291.653C232.537 291.872 232.291 292.112 232.012 292.37C231.92 292.458 231.81 292.556 231.683 292.663C231.556 292.771 231.419 292.883 231.273 293C231.126 293.117 230.975 293.239 230.819 293.366C230.663 293.493 230.509 293.617 230.357 293.74C230.397 294.613 230.882 295.05 231.815 295.05C232.332 295.05 232.884 294.914 233.469 294.64C233.757 294.503 234.026 294.347 234.275 294.172C234.524 293.991 234.768 293.808 235.007 293.622C235.124 293.53 235.254 293.42 235.395 293.293C235.537 293.166 235.681 293.032 235.827 292.89C235.978 292.749 236.127 292.607 236.274 292.465C236.425 292.324 236.567 292.19 236.698 292.063C236.781 291.98 236.869 291.892 236.962 291.799C237.06 291.706 237.162 291.606 237.27 291.499L237.665 291.104C237.904 290.894 238.077 290.789 238.185 290.789C238.243 290.789 238.273 290.835 238.273 290.928ZM232.635 289.83C232.635 289.683 232.596 289.556 232.518 289.449C232.439 289.337 232.344 289.28 232.232 289.28C232.149 289.28 232.042 289.315 231.91 289.383C231.783 289.451 231.646 289.573 231.5 289.749C231.202 290.11 230.948 290.547 230.738 291.06C230.528 291.567 230.382 292.134 230.299 292.758C230.606 292.509 230.865 292.287 231.075 292.092C231.29 291.897 231.483 291.714 231.653 291.543C231.771 291.426 231.885 291.301 231.998 291.169C232.115 291.038 232.22 290.899 232.312 290.752C232.41 290.606 232.488 290.454 232.547 290.298C232.605 290.142 232.635 289.986 232.635 289.83ZM253.671 291.287C253.671 291.453 253.586 291.665 253.415 291.924C253.073 292.412 252.736 292.844 252.404 293.22C252.072 293.596 251.728 293.932 251.372 294.23C251.245 294.338 251.103 294.445 250.947 294.552C250.791 294.655 250.62 294.757 250.435 294.86C250.059 295.06 249.751 295.16 249.512 295.16C249.195 295.16 248.909 294.992 248.655 294.655C248.402 294.308 248.182 293.923 247.996 293.498C247.904 293.278 247.808 293.059 247.711 292.839C247.613 292.619 247.513 292.392 247.411 292.158C247.215 291.699 247.047 291.47 246.905 291.47C246.7 291.47 246.471 291.648 246.217 292.004C245.963 292.361 245.636 292.89 245.236 293.593C244.841 294.301 244.506 294.838 244.233 295.204C243.959 295.565 243.711 295.746 243.486 295.746C243.149 295.746 242.922 295.587 242.805 295.27C242.698 294.948 242.632 294.408 242.607 293.652C242.598 293.271 242.588 292.951 242.578 292.692C242.568 292.429 242.559 292.224 242.549 292.077C242.529 291.78 242.427 291.543 242.241 291.367C242.07 291.377 241.819 291.58 241.487 291.975C241.15 292.375 240.852 292.775 240.594 293.176C240.34 293.571 240.096 293.967 239.862 294.362C239.788 294.489 239.718 294.611 239.649 294.728C239.581 294.845 239.51 294.965 239.437 295.087C239.325 295.292 239.22 295.47 239.122 295.621C239.029 295.768 238.946 295.892 238.873 295.995C238.731 296.2 238.561 296.302 238.361 296.302C237.99 296.302 237.745 296.112 237.628 295.731C237.516 295.326 237.46 294.896 237.46 294.442C237.46 294.286 237.465 294.132 237.475 293.981C237.484 293.83 237.499 293.681 237.518 293.535C237.538 293.388 237.562 293.22 237.592 293.029C237.626 292.834 237.665 292.617 237.709 292.378C237.802 291.904 237.867 291.553 237.907 291.323C237.96 291.001 238.002 290.725 238.031 290.496C238.06 290.266 238.075 290.076 238.075 289.925C238.075 289.808 238.109 289.71 238.177 289.632C238.246 289.549 238.341 289.507 238.463 289.507C238.951 289.507 239.195 289.842 239.195 290.511C239.195 290.686 239.183 290.884 239.159 291.104C239.134 291.318 239.1 291.545 239.056 291.785C239.017 292.019 238.973 292.256 238.924 292.495C238.88 292.734 238.836 292.963 238.793 293.183C238.705 293.72 238.661 294.084 238.661 294.274C238.793 294.147 238.958 293.947 239.159 293.674C239.359 293.4 239.593 293.049 239.862 292.619C240.14 292.19 240.396 291.811 240.63 291.484C240.865 291.152 241.084 290.869 241.289 290.635C241.699 290.171 242.141 289.939 242.615 289.939C242.722 289.939 242.803 289.959 242.856 289.998C243.12 290.198 243.308 290.574 243.42 291.126C243.479 291.404 243.53 291.697 243.574 292.004C243.623 292.307 243.664 292.634 243.698 292.985C243.762 293.664 243.825 294.003 243.889 294.003C243.981 294.003 244.138 293.81 244.357 293.425C244.377 293.391 244.426 293.305 244.504 293.168C244.582 293.032 244.667 292.883 244.76 292.722C244.853 292.561 244.938 292.409 245.016 292.268C245.099 292.126 245.155 292.031 245.185 291.982C245.531 291.387 245.863 290.918 246.18 290.576C246.508 290.21 246.83 290.027 247.147 290.027C247.44 290.027 247.645 290.127 247.762 290.327C247.826 290.425 247.889 290.552 247.952 290.708C248.021 290.864 248.092 291.047 248.165 291.257C248.248 291.511 248.326 291.743 248.399 291.953C248.477 292.158 248.55 292.343 248.619 292.509C248.687 292.675 248.765 292.839 248.853 293C248.946 293.156 249.053 293.31 249.175 293.461C249.419 293.764 249.693 293.915 249.995 293.915C250.327 293.915 250.806 293.639 251.43 293.088C251.743 292.81 252.06 292.512 252.382 292.195C252.709 291.877 253.049 291.54 253.4 291.184C253.459 291.126 253.512 291.096 253.561 291.096C253.634 291.096 253.671 291.16 253.671 291.287ZM255.802 285.729C255.802 286.046 255.719 286.317 255.553 286.542C255.392 286.766 255.155 286.879 254.842 286.879C254.647 286.879 254.43 286.849 254.191 286.791C253.957 286.732 253.839 286.637 253.839 286.505C253.839 286.266 253.913 286.039 254.059 285.824C254.21 285.605 254.391 285.427 254.601 285.29C254.772 285.192 254.882 285.143 254.93 285.143C255.209 285.143 255.423 285.182 255.575 285.261C255.726 285.334 255.802 285.49 255.802 285.729ZM260.598 291.682V291.697C260.598 291.804 260.549 291.946 260.451 292.121C260.354 292.297 260.222 292.495 260.056 292.714C259.895 292.934 259.707 293.168 259.492 293.417C259.277 293.666 259.053 293.918 258.818 294.172C258.54 294.464 258.25 294.748 257.947 295.021C257.649 295.289 257.325 295.551 256.973 295.804C256.29 296.312 255.68 296.566 255.143 296.566C254.552 296.566 254.093 296.368 253.766 295.973C253.439 295.572 253.217 295.089 253.1 294.523C252.983 293.962 252.924 293.383 252.924 292.788C252.924 292.539 252.953 292.151 253.012 291.623C253.041 291.36 253.071 291.133 253.1 290.943C253.129 290.752 253.161 290.598 253.195 290.481C253.263 290.252 253.407 290.052 253.627 289.881C253.852 289.7 254.086 289.61 254.33 289.61C254.462 289.61 254.528 289.734 254.528 289.983C254.528 290.149 254.511 290.337 254.476 290.547C254.447 290.757 254.415 290.964 254.381 291.169C254.318 291.555 254.271 291.902 254.242 292.209C254.213 292.512 254.198 292.775 254.198 293C254.198 293.498 254.266 293.996 254.403 294.494C254.54 295.006 254.786 295.263 255.143 295.263C255.504 295.263 255.924 295.131 256.402 294.867C256.641 294.73 256.88 294.579 257.12 294.413C257.359 294.247 257.598 294.062 257.837 293.857C258.086 293.652 258.32 293.447 258.54 293.242C258.76 293.032 258.979 292.817 259.199 292.597C259.419 292.378 259.612 292.173 259.778 291.982C259.948 291.792 260.097 291.616 260.224 291.455C260.234 291.436 260.254 291.399 260.283 291.345C260.312 291.292 260.339 291.265 260.363 291.265L260.378 291.272C260.417 291.272 260.446 291.287 260.466 291.316C260.485 291.34 260.507 291.379 260.532 291.433C260.581 291.54 260.603 291.623 260.598 291.682ZM272.218 291.213C272.218 291.306 272.201 291.401 272.167 291.499C272.137 291.592 272.098 291.687 272.049 291.785C272.005 291.877 271.954 291.97 271.896 292.063C271.837 292.151 271.781 292.236 271.727 292.319C271.586 292.539 271.42 292.763 271.229 292.993C271.039 293.217 270.834 293.437 270.614 293.652C270.399 293.866 270.177 294.069 269.948 294.259C269.718 294.45 269.494 294.618 269.274 294.765C269.099 294.882 268.93 294.992 268.769 295.094C268.613 295.197 268.454 295.284 268.293 295.358C268.132 295.431 267.964 295.49 267.788 295.533C267.612 295.577 267.419 295.599 267.209 295.599C266.804 295.599 266.475 295.497 266.221 295.292C266.094 295.189 265.982 295.058 265.884 294.896C265.791 294.73 265.708 294.547 265.635 294.347C265.567 294.147 265.506 293.935 265.452 293.71C265.403 293.486 265.362 293.264 265.328 293.044C265.284 292.771 265.242 292.527 265.203 292.312C265.164 292.092 265.118 291.909 265.064 291.763C265.015 291.611 264.954 291.497 264.881 291.418C264.808 291.335 264.713 291.294 264.595 291.294C264.503 291.294 264.415 291.304 264.332 291.323C264.249 291.343 264.161 291.382 264.068 291.44C263.98 291.499 263.883 291.582 263.775 291.689C263.668 291.797 263.541 291.938 263.395 292.114C263.253 292.29 263.09 292.505 262.904 292.758C262.719 293.012 262.501 293.315 262.252 293.666C262.13 293.837 261.986 294.025 261.82 294.23C261.654 294.435 261.484 294.63 261.308 294.816C261.137 295.001 260.969 295.165 260.803 295.306C260.637 295.448 260.49 295.538 260.363 295.577C259.934 295.485 259.719 294.95 259.719 293.974C259.719 293.715 259.748 293.322 259.807 292.795C259.836 292.556 259.87 292.307 259.909 292.048C259.948 291.785 259.997 291.523 260.056 291.265C260.114 291.001 260.18 290.747 260.254 290.503C260.332 290.254 260.422 290.025 260.524 289.815C260.573 289.717 260.624 289.642 260.678 289.588C260.732 289.529 260.786 289.488 260.839 289.463C260.898 289.434 260.956 289.417 261.015 289.412C261.078 289.402 261.142 289.398 261.205 289.398C261.283 289.398 261.352 289.451 261.41 289.559C261.474 289.666 261.506 289.815 261.506 290.005C261.506 290.122 261.496 290.232 261.476 290.335C261.457 290.437 261.43 290.542 261.396 290.65C261.362 290.757 261.325 290.874 261.286 291.001C261.247 291.123 261.208 291.265 261.169 291.426C261.139 291.558 261.105 291.704 261.066 291.865C261.032 292.026 260.998 292.19 260.964 292.356C260.934 292.522 260.908 292.685 260.883 292.846C260.864 293.002 260.854 293.144 260.854 293.271C260.854 293.359 260.869 293.449 260.898 293.542C261.035 293.527 261.259 293.322 261.571 292.927C261.733 292.727 261.908 292.507 262.099 292.268C262.294 292.029 262.504 291.765 262.728 291.477C262.894 291.262 263.058 291.062 263.219 290.877C263.385 290.691 263.556 290.53 263.731 290.393C263.907 290.252 264.093 290.142 264.288 290.064C264.488 289.981 264.708 289.939 264.947 289.939C265.201 289.939 265.411 289.996 265.577 290.108C265.747 290.215 265.884 290.367 265.987 290.562C266.089 290.752 266.167 290.982 266.221 291.25C266.28 291.519 266.326 291.814 266.36 292.136C266.389 292.409 266.416 292.68 266.441 292.949C266.47 293.217 266.524 293.459 266.602 293.674C266.68 293.884 266.792 294.054 266.939 294.186C267.085 294.318 267.295 294.384 267.568 294.384C267.778 294.384 267.998 294.335 268.227 294.237C268.457 294.14 268.698 294.006 268.952 293.835C269.206 293.659 269.467 293.454 269.736 293.22C270.009 292.985 270.29 292.729 270.578 292.451C270.69 292.343 270.812 292.209 270.944 292.048C271.08 291.882 271.212 291.724 271.339 291.572C271.471 291.421 271.593 291.292 271.705 291.184C271.817 291.077 271.908 291.023 271.976 291.023C272.005 291.023 272.052 291.038 272.115 291.067C272.184 291.096 272.218 291.145 272.218 291.213ZM275.469 289.764C275.469 289.754 275.461 289.727 275.447 289.683C275.432 289.639 275.41 289.595 275.381 289.551C275.352 289.502 275.315 289.461 275.271 289.427C275.232 289.388 275.188 289.368 275.139 289.368H275.125C274.944 289.388 274.751 289.449 274.546 289.551C274.341 289.649 274.124 289.803 273.895 290.013C273.665 290.218 273.423 290.484 273.17 290.811C272.916 291.138 272.652 291.536 272.379 292.004C272.296 292.146 272.203 292.302 272.101 292.473C272.003 292.639 271.908 292.824 271.815 293.029C271.727 293.229 271.652 293.444 271.588 293.674C271.529 293.903 271.5 294.145 271.5 294.399C271.5 294.55 271.554 294.665 271.661 294.743C271.774 294.821 271.888 294.86 272.005 294.86C272.127 294.86 272.286 294.794 272.481 294.662C272.677 294.525 272.887 294.347 273.111 294.128C273.34 293.903 273.572 293.649 273.807 293.366C274.046 293.078 274.266 292.783 274.466 292.48C274.671 292.177 274.846 291.88 274.993 291.587C275.144 291.294 275.247 291.028 275.3 290.789C275.315 290.716 275.332 290.63 275.352 290.532C275.371 290.43 275.388 290.33 275.403 290.232C275.422 290.13 275.437 290.037 275.447 289.954C275.461 289.866 275.469 289.803 275.469 289.764ZM281.195 290.606C281.195 290.772 281.146 290.95 281.048 291.14C280.955 291.326 280.85 291.497 280.733 291.653C280.426 292.068 280.104 292.448 279.767 292.795C279.435 293.137 279.098 293.461 278.756 293.769C278.4 294.091 278.044 294.342 277.687 294.523C277.336 294.704 277.019 294.794 276.735 294.794C276.613 294.794 276.491 294.765 276.369 294.706C276.252 294.647 276.14 294.572 276.033 294.479C275.93 294.381 275.837 294.269 275.754 294.142C275.676 294.015 275.615 293.884 275.571 293.747C275.547 293.674 275.525 293.591 275.505 293.498C275.486 293.4 275.466 293.312 275.447 293.234C275.427 293.151 275.405 293.083 275.381 293.029C275.356 292.971 275.33 292.941 275.3 292.941C275.281 292.941 275.239 292.973 275.176 293.037C275.112 293.1 275.037 293.183 274.949 293.286C274.866 293.383 274.776 293.495 274.678 293.622C274.58 293.744 274.483 293.864 274.385 293.981C274.292 294.098 274.207 294.206 274.129 294.303C274.056 294.401 273.997 294.474 273.953 294.523C273.802 294.694 273.621 294.87 273.411 295.05C273.206 295.226 272.999 295.387 272.789 295.533C272.584 295.68 272.393 295.799 272.218 295.892C272.047 295.985 271.92 296.031 271.837 296.031C271.652 296.031 271.471 296.002 271.295 295.943C271.124 295.88 270.973 295.79 270.841 295.673C270.709 295.555 270.602 295.411 270.519 295.241C270.441 295.07 270.402 294.874 270.402 294.655C270.402 294.294 270.473 293.881 270.614 293.417C270.761 292.954 270.951 292.483 271.185 292.004C271.425 291.526 271.698 291.067 272.005 290.628C272.313 290.183 272.633 289.803 272.965 289.485C273.35 289.119 273.753 288.851 274.173 288.68C274.597 288.504 275.032 288.416 275.476 288.416C275.559 288.416 275.63 288.433 275.688 288.468C275.752 288.502 275.806 288.546 275.85 288.599C275.893 288.653 275.932 288.714 275.967 288.782C276.001 288.846 276.035 288.912 276.069 288.98C276.089 289.024 276.13 289.073 276.194 289.127C276.257 289.18 276.323 289.236 276.391 289.295C276.46 289.349 276.518 289.402 276.567 289.456C276.621 289.51 276.648 289.561 276.648 289.61C276.648 289.712 276.626 289.827 276.582 289.954C276.543 290.076 276.499 290.22 276.45 290.386C276.401 290.547 276.355 290.733 276.311 290.943C276.272 291.148 276.252 291.384 276.252 291.653C276.252 291.828 276.267 292.029 276.296 292.253C276.33 292.478 276.379 292.692 276.443 292.897C276.511 293.098 276.596 293.266 276.699 293.403C276.801 293.539 276.921 293.608 277.058 293.608C277.224 293.608 277.39 293.561 277.556 293.469C277.722 293.371 277.912 293.237 278.127 293.066C278.605 292.685 279.059 292.268 279.489 291.814C279.918 291.36 280.357 290.908 280.807 290.459C280.885 290.381 280.958 290.342 281.026 290.342C281.138 290.342 281.195 290.43 281.195 290.606ZM287.06 290.232C287.055 290.369 287.028 290.484 286.979 290.576C286.935 290.669 286.879 290.745 286.811 290.803C286.742 290.862 286.667 290.906 286.584 290.935C286.501 290.96 286.42 290.972 286.342 290.972C286.274 290.972 286.191 290.96 286.093 290.935C286 290.911 285.905 290.896 285.808 290.891C285.617 290.891 285.388 290.945 285.119 291.052C284.856 291.155 284.585 291.289 284.307 291.455C284.028 291.621 283.757 291.807 283.494 292.012C283.23 292.217 283.008 292.419 282.827 292.619C282.73 292.732 282.625 292.856 282.513 292.993C282.405 293.129 282.3 293.273 282.198 293.425C282.095 293.576 282.002 293.73 281.92 293.886C281.841 294.042 281.785 294.194 281.751 294.34C281.732 294.418 281.724 294.516 281.729 294.633C281.734 294.745 281.744 294.87 281.758 295.006C281.773 295.138 281.788 295.277 281.802 295.424C281.822 295.565 281.832 295.702 281.832 295.834C281.832 295.912 281.829 295.987 281.824 296.061C281.824 296.129 281.817 296.195 281.802 296.258C281.793 296.302 281.766 296.351 281.722 296.405C281.678 296.454 281.624 296.5 281.561 296.544C281.497 296.588 281.426 296.624 281.348 296.654C281.275 296.688 281.204 296.705 281.136 296.705C281.024 296.7 280.929 296.642 280.85 296.529C280.772 296.417 280.709 296.263 280.66 296.068C280.611 295.873 280.577 295.643 280.558 295.38C280.538 295.111 280.528 294.821 280.528 294.508C280.528 294.416 280.531 294.279 280.536 294.098C280.541 293.918 280.545 293.735 280.55 293.549C280.56 293.359 280.567 293.188 280.572 293.037C280.582 292.885 280.587 292.793 280.587 292.758C280.592 292.675 280.597 292.563 280.602 292.422C280.611 292.28 280.621 292.126 280.631 291.96C280.645 291.789 280.66 291.616 280.675 291.44C280.694 291.265 280.714 291.104 280.733 290.957C280.743 290.899 280.753 290.813 280.763 290.701C280.772 290.589 280.782 290.474 280.792 290.357C280.807 290.235 280.821 290.12 280.836 290.013C280.85 289.9 280.865 289.817 280.88 289.764C280.894 289.705 280.926 289.637 280.975 289.559C281.029 289.481 281.092 289.405 281.165 289.332C281.239 289.258 281.319 289.197 281.407 289.149C281.5 289.095 281.595 289.068 281.693 289.068C281.795 289.073 281.878 289.095 281.941 289.134C282.01 289.168 282.064 289.212 282.103 289.266C282.142 289.315 282.168 289.368 282.183 289.427C282.198 289.481 282.205 289.529 282.205 289.573C282.205 289.598 282.195 289.646 282.176 289.72C282.161 289.788 282.139 289.871 282.11 289.969C282.081 290.061 282.049 290.164 282.015 290.276C281.985 290.384 281.956 290.486 281.927 290.584C281.902 290.681 281.88 290.769 281.861 290.847C281.841 290.925 281.832 290.979 281.832 291.008C281.832 291.047 281.824 291.123 281.81 291.235C281.8 291.343 281.788 291.467 281.773 291.609C281.763 291.75 281.751 291.899 281.736 292.055C281.727 292.207 281.722 292.341 281.722 292.458C281.722 292.497 281.722 292.534 281.722 292.568C281.722 292.602 281.724 292.634 281.729 292.663C281.91 292.439 282.107 292.204 282.322 291.96C282.542 291.716 282.774 291.477 283.018 291.243C283.262 291.004 283.516 290.777 283.779 290.562C284.043 290.347 284.309 290.159 284.577 289.998C284.851 289.832 285.122 289.703 285.39 289.61C285.664 289.512 285.93 289.463 286.188 289.463C286.335 289.468 286.462 289.5 286.569 289.559C286.681 289.617 286.774 289.688 286.847 289.771C286.92 289.849 286.974 289.93 287.008 290.013C287.043 290.096 287.06 290.166 287.06 290.225V290.232ZM291.226 285.729C291.226 286.046 291.143 286.317 290.977 286.542C290.816 286.766 290.579 286.879 290.267 286.879C290.071 286.879 289.854 286.849 289.615 286.791C289.381 286.732 289.264 286.637 289.264 286.505C289.264 286.266 289.337 286.039 289.483 285.824C289.635 285.605 289.815 285.427 290.025 285.29C290.191 285.192 290.301 285.143 290.355 285.143C290.633 285.143 290.848 285.182 290.999 285.261C291.15 285.334 291.226 285.49 291.226 285.729ZM296.022 291.682C296.027 291.785 295.98 291.924 295.883 292.099C295.79 292.275 295.661 292.475 295.495 292.7C295.334 292.919 295.143 293.156 294.924 293.41C294.709 293.664 294.482 293.918 294.243 294.172C293.969 294.464 293.679 294.748 293.371 295.021C293.069 295.289 292.744 295.551 292.397 295.804C291.714 296.312 291.104 296.566 290.567 296.566C289.976 296.566 289.517 296.368 289.19 295.973C288.863 295.572 288.641 295.089 288.524 294.523C288.407 293.962 288.348 293.383 288.348 292.788C288.348 292.539 288.378 292.151 288.436 291.623C288.465 291.36 288.495 291.133 288.524 290.943C288.553 290.752 288.585 290.598 288.619 290.481C288.688 290.252 288.832 290.052 289.051 289.881C289.276 289.7 289.51 289.61 289.754 289.61C289.886 289.61 289.952 289.734 289.952 289.983C289.952 290.149 289.935 290.337 289.901 290.547C289.871 290.757 289.84 290.964 289.805 291.169C289.742 291.555 289.696 291.902 289.666 292.209C289.637 292.512 289.622 292.775 289.622 293C289.622 293.493 289.691 293.991 289.827 294.494C289.964 295.006 290.211 295.263 290.567 295.263C290.928 295.263 291.348 295.131 291.826 294.867C292.065 294.73 292.305 294.579 292.544 294.413C292.783 294.247 293.022 294.062 293.261 293.857C293.505 293.652 293.74 293.447 293.964 293.242C294.189 293.032 294.409 292.817 294.623 292.597C294.838 292.378 295.031 292.173 295.202 291.982C295.373 291.792 295.521 291.616 295.648 291.455C295.653 291.445 295.661 291.431 295.67 291.411C295.685 291.387 295.7 291.365 295.714 291.345C295.729 291.321 295.744 291.301 295.758 291.287C295.773 291.272 295.788 291.267 295.802 291.272C295.87 291.272 295.922 291.326 295.956 291.433C296 291.536 296.022 291.619 296.022 291.682ZM301.199 291.558C301.199 291.714 301.191 291.863 301.177 292.004C301.162 292.146 301.14 292.282 301.111 292.414C301.081 292.546 301.042 292.68 300.993 292.817C300.945 292.949 300.886 293.085 300.818 293.227C300.749 293.378 300.625 293.559 300.444 293.769C300.264 293.979 300.047 294.196 299.793 294.42C299.544 294.645 299.268 294.867 298.965 295.087C298.668 295.306 298.365 295.504 298.057 295.68C297.75 295.856 297.447 295.997 297.149 296.105C296.857 296.212 296.59 296.266 296.351 296.266C296.024 296.266 295.739 296.212 295.495 296.105C295.251 295.992 295.048 295.848 294.887 295.673C294.726 295.492 294.604 295.287 294.521 295.058C294.443 294.828 294.404 294.596 294.404 294.362C294.404 294.206 294.423 294.028 294.462 293.827C294.501 293.627 294.553 293.42 294.616 293.205C294.679 292.99 294.755 292.771 294.843 292.546C294.931 292.321 295.024 292.107 295.121 291.902C295.219 291.697 295.319 291.506 295.421 291.331C295.524 291.155 295.624 291.006 295.722 290.884C295.892 290.669 296.097 290.459 296.337 290.254C296.581 290.049 296.847 289.869 297.135 289.712C297.423 289.551 297.73 289.422 298.057 289.324C298.389 289.227 298.731 289.178 299.082 289.178C299.346 289.178 299.605 289.244 299.859 289.376C300.112 289.502 300.337 289.676 300.532 289.895C300.732 290.115 300.893 290.369 301.015 290.657C301.138 290.945 301.199 291.245 301.199 291.558ZM300.056 291.77C300.056 291.287 299.917 290.908 299.639 290.635C299.366 290.362 298.97 290.225 298.453 290.225C298.277 290.225 298.099 290.271 297.918 290.364C297.738 290.457 297.564 290.572 297.398 290.708C297.232 290.845 297.079 290.991 296.937 291.148C296.8 291.299 296.686 291.436 296.593 291.558C296.5 291.684 296.398 291.858 296.285 292.077C296.173 292.292 296.066 292.524 295.963 292.773C295.866 293.017 295.783 293.264 295.714 293.513C295.651 293.757 295.619 293.971 295.619 294.157C295.619 294.269 295.641 294.384 295.685 294.501C295.729 294.613 295.79 294.716 295.868 294.809C295.951 294.896 296.049 294.97 296.161 295.028C296.273 295.087 296.398 295.116 296.534 295.116C296.681 295.116 296.869 295.072 297.098 294.984C297.332 294.896 297.579 294.777 297.838 294.626C298.101 294.469 298.365 294.286 298.628 294.076C298.892 293.862 299.129 293.63 299.339 293.381C299.553 293.132 299.727 292.871 299.859 292.597C299.99 292.324 300.056 292.048 300.056 291.77ZM320.177 293.644C319.948 293.854 319.684 294.074 319.387 294.303C319.094 294.528 318.779 294.735 318.442 294.926C318.105 295.111 317.749 295.265 317.373 295.387C317.002 295.509 316.626 295.57 316.245 295.57C315.894 295.57 315.591 295.497 315.337 295.35C315.088 295.204 314.883 294.979 314.722 294.677C314.561 294.374 314.442 293.993 314.364 293.535C314.29 293.076 314.254 292.534 314.254 291.909C314.137 292.095 314.007 292.285 313.866 292.48C313.729 292.675 313.59 292.863 313.448 293.044C313.312 293.22 313.18 293.381 313.053 293.527C312.926 293.674 312.816 293.793 312.723 293.886C312.04 294.564 311.398 295.087 310.798 295.453C310.202 295.819 309.641 296.002 309.114 296.002C308.943 296.002 308.792 295.973 308.66 295.914C308.533 295.856 308.423 295.782 308.33 295.695C308.242 295.602 308.174 295.499 308.125 295.387C308.081 295.27 308.059 295.155 308.059 295.043C308.059 294.652 308.118 294.252 308.235 293.842C308.357 293.432 308.513 293.029 308.704 292.634C308.894 292.239 309.106 291.86 309.341 291.499C309.575 291.133 309.809 290.803 310.044 290.511C310.263 290.227 310.49 289.964 310.725 289.72C310.959 289.476 311.186 289.266 311.405 289.09C311.63 288.909 311.842 288.77 312.043 288.673C312.243 288.57 312.421 288.519 312.577 288.519C312.66 288.519 312.753 288.538 312.855 288.577C312.963 288.617 313.065 288.665 313.163 288.724C313.265 288.778 313.356 288.834 313.434 288.892C313.517 288.946 313.575 288.988 313.609 289.017C313.668 289.085 313.729 289.163 313.792 289.251C313.861 289.334 313.895 289.424 313.895 289.522C313.895 289.576 313.883 289.651 313.858 289.749C313.834 289.842 313.79 289.913 313.727 289.961C313.702 289.986 313.68 290.013 313.661 290.042C313.641 290.066 313.614 290.091 313.58 290.115C313.551 290.135 313.509 290.154 313.456 290.174C313.407 290.188 313.339 290.196 313.251 290.196C313.163 290.196 313.087 290.169 313.024 290.115C312.96 290.057 312.904 289.991 312.855 289.917C312.806 289.844 312.763 289.771 312.723 289.698C312.689 289.625 312.655 289.571 312.621 289.537C312.445 289.537 312.262 289.6 312.072 289.727C311.881 289.849 311.689 290.013 311.493 290.218C311.303 290.423 311.113 290.659 310.922 290.928C310.737 291.191 310.559 291.467 310.388 291.755C310.217 292.038 310.058 292.321 309.912 292.605C309.77 292.888 309.646 293.149 309.538 293.388C309.431 293.622 309.348 293.827 309.289 294.003C309.231 294.174 309.202 294.291 309.202 294.355C309.202 294.482 309.245 294.594 309.333 294.691C309.426 294.784 309.548 294.831 309.699 294.831C309.841 294.831 309.995 294.799 310.161 294.735C310.327 294.667 310.493 294.584 310.659 294.486C310.825 294.389 310.981 294.286 311.127 294.179C311.279 294.071 311.405 293.974 311.508 293.886C311.747 293.681 312.003 293.447 312.277 293.183C312.55 292.919 312.814 292.639 313.068 292.341C313.321 292.043 313.548 291.738 313.749 291.426C313.949 291.108 314.098 290.796 314.195 290.489C314.254 290.293 314.307 290.069 314.356 289.815C314.41 289.556 314.459 289.28 314.503 288.988C314.552 288.69 314.593 288.382 314.627 288.065C314.666 287.748 314.7 287.438 314.73 287.135C314.759 286.827 314.783 286.532 314.803 286.249C314.827 285.961 314.849 285.702 314.869 285.473C314.898 284.853 315.189 284.543 315.74 284.543C315.862 284.543 315.957 284.616 316.026 284.763C316.094 284.904 316.128 285.107 316.128 285.37C316.128 285.409 316.116 285.519 316.092 285.7C316.067 285.881 316.033 286.107 315.989 286.381C315.945 286.649 315.896 286.952 315.843 287.289C315.789 287.626 315.735 287.975 315.682 288.336C315.628 288.692 315.574 289.049 315.52 289.405C315.467 289.756 315.418 290.083 315.374 290.386C315.33 290.689 315.296 290.955 315.272 291.184C315.247 291.409 315.235 291.572 315.235 291.675C315.235 291.811 315.235 291.977 315.235 292.173C315.24 292.363 315.252 292.561 315.272 292.766C315.296 292.971 315.333 293.176 315.381 293.381C315.435 293.581 315.511 293.762 315.608 293.923C315.706 294.084 315.83 294.215 315.982 294.318C316.133 294.416 316.321 294.464 316.546 294.464C316.824 294.464 317.1 294.43 317.373 294.362C317.646 294.289 317.925 294.186 318.208 294.054C318.491 293.923 318.781 293.762 319.079 293.571C319.377 293.381 319.689 293.168 320.016 292.934C320.021 292.929 320.036 292.915 320.06 292.89C320.085 292.866 320.111 292.841 320.141 292.817C320.17 292.788 320.197 292.763 320.221 292.744C320.246 292.719 320.26 292.707 320.265 292.707C320.299 292.707 320.331 292.744 320.36 292.817C320.39 292.89 320.404 292.983 320.404 293.095C320.404 293.188 320.39 293.283 320.36 293.381C320.331 293.473 320.27 293.561 320.177 293.644ZM323.428 289.683C323.428 289.629 323.414 289.581 323.384 289.537C323.355 289.493 323.318 289.456 323.275 289.427C323.236 289.398 323.192 289.376 323.143 289.361C323.099 289.341 323.06 289.332 323.026 289.332C322.811 289.332 322.591 289.41 322.367 289.566C322.142 289.717 321.932 289.93 321.737 290.203C321.542 290.476 321.371 290.801 321.224 291.177C321.078 291.553 320.978 291.96 320.924 292.4C320.993 292.356 321.083 292.292 321.195 292.209C321.307 292.126 321.427 292.036 321.554 291.938C321.686 291.836 321.815 291.733 321.942 291.631C322.074 291.528 322.191 291.433 322.293 291.345C322.518 291.155 322.703 290.986 322.85 290.84C322.996 290.689 323.111 290.552 323.194 290.43C323.282 290.303 323.343 290.181 323.377 290.064C323.411 289.942 323.428 289.815 323.428 289.683ZM326.826 292.81C326.826 292.98 326.762 293.166 326.635 293.366C326.508 293.566 326.328 293.791 326.094 294.04C325.825 294.323 325.53 294.586 325.208 294.831C324.885 295.07 324.553 295.28 324.212 295.46C323.87 295.636 323.524 295.775 323.172 295.878C322.821 295.98 322.481 296.031 322.154 296.031C321.388 296.031 320.795 295.785 320.375 295.292C319.955 294.799 319.745 294.076 319.745 293.124C319.745 292.822 319.772 292.514 319.826 292.202C319.88 291.885 319.958 291.572 320.06 291.265C320.168 290.957 320.299 290.659 320.456 290.371C320.617 290.083 320.802 289.815 321.012 289.566C321.144 289.415 321.29 289.261 321.451 289.105C321.612 288.948 321.791 288.809 321.986 288.687C322.181 288.56 322.393 288.458 322.623 288.38C322.857 288.302 323.111 288.263 323.384 288.263C323.58 288.263 323.755 288.302 323.912 288.38C324.068 288.453 324.2 288.548 324.307 288.665C324.414 288.782 324.495 288.914 324.549 289.061C324.607 289.207 324.636 289.351 324.636 289.493C324.636 289.79 324.556 290.093 324.395 290.401C324.234 290.703 324.007 291.011 323.714 291.323C323.421 291.631 323.07 291.941 322.66 292.253C322.249 292.561 321.793 292.868 321.29 293.176C321.222 293.215 321.154 293.259 321.085 293.308C321.017 293.351 320.983 293.408 320.983 293.476C320.983 293.622 321.002 293.776 321.041 293.937C321.08 294.098 321.151 294.247 321.254 294.384C321.356 294.516 321.493 294.626 321.664 294.713C321.839 294.801 322.062 294.845 322.33 294.845C322.672 294.845 323.018 294.791 323.37 294.684C323.726 294.572 324.073 294.418 324.409 294.223C324.751 294.028 325.081 293.796 325.398 293.527C325.72 293.259 326.02 292.968 326.299 292.656C326.455 292.485 326.579 292.4 326.672 292.4C326.726 292.4 326.765 292.431 326.789 292.495C326.814 292.558 326.826 292.663 326.826 292.81ZM336.293 286.403C336.293 286.466 336.266 286.525 336.213 286.579C336.188 286.603 336.159 286.627 336.125 286.652C336.091 286.676 336.049 286.701 336 286.725C335.952 286.749 335.912 286.769 335.883 286.784C335.854 286.798 335.834 286.81 335.825 286.82C335.727 286.884 335.627 286.964 335.524 287.062C335.471 287.12 335.422 287.169 335.378 287.208C335.334 287.242 335.288 287.274 335.239 287.303C335.195 287.333 335.144 287.364 335.085 287.399C335.026 287.428 334.958 287.465 334.88 287.508C334.758 287.577 334.658 287.716 334.58 287.926C334.502 288.131 334.463 288.324 334.463 288.504C334.463 288.641 334.533 288.829 334.675 289.068C334.821 289.302 334.895 289.473 334.895 289.581C334.895 289.673 334.851 289.788 334.763 289.925C334.675 290.057 334.59 290.122 334.507 290.122C334.424 290.122 334.328 290.098 334.221 290.049C334.119 289.996 334.04 289.934 333.987 289.866C333.918 289.769 333.855 289.681 333.796 289.603C333.738 289.52 333.669 289.415 333.591 289.288C333.445 289.024 333.372 288.792 333.372 288.592C333.372 288.309 333.462 288.004 333.643 287.677C333.828 287.34 334.036 287.04 334.265 286.776C334.573 286.41 334.882 286.171 335.195 286.059C335.229 286.039 335.263 286.022 335.297 286.007C335.336 285.988 335.376 285.966 335.415 285.942C335.498 285.898 335.561 285.866 335.605 285.846C335.649 285.827 335.703 285.817 335.766 285.817C335.829 285.817 335.932 285.902 336.074 286.073C336.22 286.244 336.293 286.354 336.293 286.403ZM348.433 286.037C348.433 286.081 348.421 286.134 348.397 286.198C348.377 286.261 348.35 286.327 348.316 286.395C348.287 286.459 348.25 286.52 348.206 286.579C348.167 286.632 348.126 286.669 348.082 286.688C347.945 286.752 347.821 286.801 347.708 286.835C347.601 286.864 347.472 286.893 347.32 286.923C346.857 287.011 346.403 287.086 345.958 287.15C345.519 287.208 345.102 287.257 344.706 287.296C344.316 287.33 343.957 287.355 343.63 287.369C343.303 287.384 343.025 287.391 342.795 287.391C342.668 287.391 342.556 287.391 342.458 287.391C342.366 287.391 342.275 287.394 342.187 287.399C342.1 287.399 342.014 287.401 341.931 287.406C341.848 287.406 341.76 287.406 341.668 287.406C341.448 287.406 341.258 287.404 341.096 287.399C340.94 287.394 340.806 287.386 340.694 287.377C340.621 287.548 340.569 287.757 340.54 288.006C340.511 288.255 340.489 288.514 340.474 288.782C340.459 289.046 340.447 289.305 340.437 289.559C340.433 289.812 340.418 290.035 340.394 290.225C340.491 290.293 340.574 290.347 340.643 290.386C340.716 290.42 340.787 290.447 340.855 290.467C340.928 290.481 341.004 290.491 341.082 290.496C341.16 290.496 341.255 290.496 341.367 290.496C341.489 290.496 341.624 290.496 341.77 290.496C341.921 290.496 342.07 290.493 342.217 290.489C342.368 290.479 342.515 290.469 342.656 290.459C342.798 290.445 342.925 290.423 343.037 290.393C343.227 290.345 343.396 290.318 343.542 290.313C343.688 290.308 343.83 290.305 343.967 290.305C344.108 290.305 344.25 290.298 344.391 290.284C344.533 290.264 344.692 290.22 344.867 290.152C344.994 290.103 345.109 290.057 345.211 290.013C345.314 289.969 345.412 289.932 345.504 289.903C345.597 289.873 345.685 289.852 345.768 289.837C345.856 289.817 345.949 289.808 346.046 289.808C346.124 289.808 346.19 289.837 346.244 289.895C346.298 289.949 346.339 290.02 346.368 290.108C346.398 290.191 346.417 290.286 346.427 290.393C346.442 290.496 346.449 290.596 346.449 290.694C346.449 290.801 346.41 290.891 346.332 290.964C346.254 291.038 346.161 291.099 346.054 291.148C345.951 291.196 345.846 291.235 345.739 291.265C345.631 291.294 345.546 291.316 345.482 291.331C345.37 291.355 345.221 291.375 345.036 291.389C344.855 291.404 344.665 291.418 344.465 291.433C344.264 291.443 344.069 291.453 343.879 291.462C343.693 291.467 343.54 291.477 343.418 291.492C343.081 291.531 342.729 291.56 342.363 291.58C341.997 291.594 341.626 291.601 341.25 291.601C341.06 291.601 340.896 291.614 340.76 291.638C340.628 291.663 340.479 291.699 340.313 291.748C340.279 291.758 340.242 291.824 340.203 291.946C340.164 292.063 340.123 292.212 340.079 292.392C340.035 292.573 339.988 292.771 339.94 292.985C339.896 293.2 339.852 293.405 339.808 293.6C339.739 293.898 339.688 294.169 339.654 294.413C339.625 294.657 339.605 294.831 339.595 294.933C339.625 294.962 339.661 294.994 339.705 295.028C339.749 295.062 339.798 295.079 339.852 295.079C339.979 295.079 340.13 295.079 340.306 295.079C340.486 295.075 340.672 295.07 340.862 295.065C341.053 295.06 341.238 295.055 341.419 295.05C341.599 295.04 341.755 295.031 341.887 295.021C342.209 294.992 342.546 294.962 342.898 294.933C343.249 294.899 343.591 294.862 343.923 294.823C344.255 294.784 344.567 294.743 344.86 294.699C345.158 294.65 345.414 294.596 345.629 294.538C345.624 294.538 345.656 294.528 345.724 294.508C345.797 294.489 345.89 294.464 346.002 294.435C346.115 294.401 346.237 294.367 346.368 294.333C346.5 294.294 346.622 294.259 346.734 294.23C346.847 294.201 346.939 294.176 347.013 294.157C347.091 294.132 347.127 294.12 347.123 294.12C347.196 294.12 347.267 294.14 347.335 294.179C347.403 294.218 347.464 294.272 347.518 294.34C347.572 294.403 347.613 294.479 347.642 294.567C347.677 294.655 347.694 294.75 347.694 294.852C347.694 294.892 347.674 294.948 347.635 295.021C347.596 295.089 347.542 295.16 347.474 295.233C347.406 295.306 347.325 295.375 347.232 295.438C347.145 295.502 347.047 295.543 346.939 295.563C346.695 295.607 346.464 295.648 346.244 295.687C346.029 295.721 345.807 295.753 345.578 295.782C345.353 295.812 345.114 295.841 344.86 295.87C344.606 295.895 344.323 295.922 344.011 295.951C343.635 295.99 343.256 296.031 342.876 296.075C342.5 296.114 342.146 296.156 341.814 296.2C341.487 296.244 341.194 296.285 340.935 296.324C340.682 296.358 340.494 296.388 340.372 296.412C340.259 296.436 340.135 296.466 339.998 296.5C339.861 296.539 339.725 296.576 339.588 296.61C339.456 296.644 339.332 296.673 339.215 296.698C339.098 296.727 339.002 296.742 338.929 296.742C338.797 296.742 338.68 296.722 338.578 296.683C338.475 296.649 338.39 296.585 338.321 296.493C338.253 296.4 338.202 296.275 338.168 296.119C338.133 295.963 338.116 295.765 338.116 295.526C338.116 295.316 338.146 295.084 338.204 294.831C338.263 294.572 338.334 294.257 338.417 293.886C338.47 293.583 338.531 293.283 338.6 292.985C338.668 292.683 338.731 292.383 338.79 292.085C338.853 291.782 338.905 291.482 338.944 291.184C338.988 290.881 339.012 290.576 339.017 290.269C339.022 290.049 339.037 289.827 339.061 289.603C339.09 289.378 339.117 289.151 339.141 288.922C339.171 288.692 339.195 288.463 339.215 288.233C339.239 288.004 339.251 287.779 339.251 287.56C339.251 287.521 339.246 287.467 339.237 287.399C339.227 287.33 339.222 287.279 339.222 287.245C339.222 287.035 339.298 286.803 339.449 286.549C339.488 286.486 339.552 286.42 339.639 286.352C339.732 286.283 339.832 286.222 339.94 286.169C340.052 286.11 340.162 286.064 340.269 286.029C340.376 285.995 340.469 285.978 340.547 285.978C340.596 285.978 340.679 285.988 340.796 286.007C340.918 286.027 341.045 286.051 341.177 286.081C341.309 286.105 341.433 286.127 341.55 286.147C341.672 286.166 341.758 286.176 341.807 286.176C341.89 286.176 342 286.178 342.136 286.183C342.278 286.183 342.429 286.186 342.59 286.19C342.756 286.19 342.929 286.19 343.11 286.19C343.291 286.19 343.462 286.186 343.623 286.176C343.994 286.156 344.345 286.134 344.677 286.11C345.014 286.086 345.365 286.042 345.731 285.978C345.951 285.944 346.154 285.898 346.339 285.839C346.525 285.78 346.703 285.727 346.874 285.678C347.044 285.624 347.213 285.578 347.379 285.539C347.55 285.5 347.723 285.48 347.899 285.48C347.962 285.48 348.026 285.497 348.089 285.531C348.153 285.561 348.209 285.602 348.257 285.656C348.311 285.705 348.353 285.763 348.382 285.832C348.416 285.9 348.433 285.968 348.433 286.037ZM355.807 293.498C355.807 293.556 355.782 293.642 355.733 293.754C355.689 293.862 355.631 293.976 355.558 294.098C355.489 294.215 355.416 294.333 355.338 294.45C355.265 294.567 355.199 294.665 355.14 294.743C354.945 294.996 354.718 295.243 354.459 295.482C354.205 295.716 353.939 295.926 353.661 296.112C353.383 296.297 353.1 296.446 352.812 296.559C352.529 296.671 352.258 296.727 351.999 296.727C351.604 296.727 351.262 296.649 350.974 296.493C350.691 296.336 350.457 296.109 350.271 295.812C350.09 295.509 349.956 295.138 349.868 294.699C349.78 294.255 349.737 293.749 349.737 293.183C349.737 292.832 349.751 292.448 349.78 292.033C349.81 291.614 349.851 291.182 349.905 290.737C349.959 290.288 350.022 289.837 350.095 289.383C350.169 288.929 350.249 288.492 350.337 288.072C350.425 287.652 350.518 287.262 350.615 286.901C350.713 286.535 350.813 286.217 350.915 285.949C351.023 285.675 351.128 285.461 351.23 285.305C351.338 285.148 351.44 285.07 351.538 285.07C351.655 285.07 351.755 285.121 351.838 285.224C351.926 285.322 351.997 285.427 352.05 285.539C351.997 286.007 351.894 286.581 351.743 287.26C351.596 287.938 351.421 288.739 351.216 289.661C351.157 289.92 351.106 290.188 351.062 290.467C351.023 290.74 350.989 291.016 350.959 291.294C350.935 291.572 350.915 291.848 350.901 292.121C350.886 292.39 350.879 292.644 350.879 292.883C350.879 293.737 350.989 294.394 351.208 294.852C351.433 295.306 351.809 295.533 352.336 295.533C352.585 295.533 352.831 295.487 353.075 295.394C353.319 295.297 353.551 295.175 353.771 295.028C353.996 294.877 354.208 294.713 354.408 294.538C354.608 294.357 354.794 294.181 354.964 294.01C355.018 293.957 355.082 293.888 355.155 293.805C355.233 293.722 355.306 293.644 355.375 293.571C355.448 293.493 355.514 293.427 355.572 293.373C355.631 293.315 355.67 293.286 355.689 293.286C355.767 293.286 355.807 293.356 355.807 293.498ZM372.786 291.726C372.786 292.029 372.579 292.402 372.164 292.846C372.062 292.959 371.935 293.083 371.783 293.22C371.637 293.356 371.481 293.495 371.315 293.637C371.149 293.774 370.98 293.91 370.809 294.047C370.643 294.184 370.487 294.308 370.341 294.42C369.872 294.782 369.382 295.123 368.869 295.446C368.357 295.768 367.839 296.051 367.317 296.295C366.795 296.539 366.272 296.732 365.75 296.873C365.232 297.015 364.732 297.086 364.249 297.086C363.722 297.086 363.263 297.01 362.872 296.859C362.482 296.707 362.157 296.493 361.898 296.214C361.645 295.936 361.454 295.602 361.327 295.211C361.2 294.816 361.137 294.377 361.137 293.893C361.132 293.454 361.176 293.007 361.269 292.553C361.366 292.099 361.501 291.653 361.671 291.213C361.842 290.774 362.047 290.352 362.287 289.947C362.526 289.537 362.787 289.158 363.07 288.812C363.241 288.602 363.434 288.39 363.648 288.175C363.863 287.955 364.088 287.743 364.322 287.538C364.561 287.333 364.803 287.142 365.047 286.967C365.291 286.786 365.53 286.627 365.765 286.491C365.916 286.403 366.109 286.3 366.343 286.183C366.577 286.066 366.824 285.956 367.083 285.854C367.341 285.751 367.597 285.666 367.851 285.597C368.105 285.524 368.325 285.488 368.51 285.488C368.808 285.488 369.045 285.51 369.221 285.553C369.401 285.593 369.56 285.661 369.696 285.758C369.76 285.807 369.833 285.883 369.916 285.985C370.004 286.083 370.085 286.193 370.158 286.315C370.236 286.432 370.299 286.552 370.348 286.674C370.402 286.791 370.429 286.891 370.429 286.974C370.429 287.057 370.39 287.181 370.312 287.347C370.233 287.513 370.143 287.687 370.041 287.867C369.938 288.043 369.836 288.209 369.733 288.365C369.631 288.516 369.552 288.621 369.499 288.68C369.299 288.9 369.084 289.009 368.854 289.009C368.659 289.009 368.505 288.951 368.393 288.834C368.286 288.712 368.232 288.56 368.232 288.38C368.232 288.316 368.269 288.219 368.342 288.087C368.415 287.95 368.537 287.796 368.708 287.626C368.879 287.455 369.011 287.299 369.103 287.157C369.201 287.011 369.262 286.913 369.286 286.864C369.189 286.796 369.069 286.742 368.928 286.703C368.786 286.664 368.654 286.644 368.532 286.644C368.357 286.644 368.139 286.686 367.881 286.769C367.622 286.847 367.356 286.95 367.083 287.076C366.814 287.203 366.55 287.345 366.292 287.501C366.038 287.652 365.823 287.799 365.647 287.94C365.145 288.355 364.681 288.802 364.256 289.28C363.832 289.759 363.48 290.288 363.202 290.869C363.09 291.108 362.982 291.36 362.88 291.623C362.782 291.882 362.697 292.146 362.623 292.414C362.55 292.683 362.492 292.951 362.448 293.22C362.409 293.483 362.389 293.737 362.389 293.981C362.389 294.269 362.421 294.538 362.484 294.787C362.553 295.036 362.662 295.25 362.814 295.431C362.965 295.612 363.163 295.753 363.407 295.856C363.656 295.958 363.961 296.009 364.322 296.009C364.713 296.009 365.113 295.956 365.523 295.848C365.933 295.741 366.341 295.597 366.746 295.416C367.156 295.231 367.561 295.021 367.961 294.787C368.361 294.547 368.745 294.298 369.111 294.04C369.482 293.781 369.833 293.522 370.165 293.264C370.497 293.005 370.8 292.761 371.073 292.531C371.185 292.439 371.302 292.336 371.424 292.224C371.551 292.112 371.676 291.999 371.798 291.887C371.92 291.775 372.037 291.663 372.149 291.55C372.267 291.438 372.369 291.335 372.457 291.243C372.677 291.355 372.786 291.516 372.786 291.726ZM376.938 289.764C376.938 289.754 376.931 289.727 376.916 289.683C376.901 289.639 376.879 289.595 376.85 289.551C376.821 289.502 376.784 289.461 376.74 289.427C376.701 289.388 376.657 289.368 376.609 289.368H376.594C376.413 289.388 376.22 289.449 376.015 289.551C375.81 289.649 375.593 289.803 375.364 290.013C375.134 290.218 374.893 290.484 374.639 290.811C374.385 291.138 374.121 291.536 373.848 292.004C373.765 292.146 373.672 292.302 373.57 292.473C373.472 292.639 373.377 292.824 373.284 293.029C373.196 293.229 373.121 293.444 373.057 293.674C372.999 293.903 372.969 294.145 372.969 294.399C372.969 294.55 373.023 294.665 373.131 294.743C373.243 294.821 373.358 294.86 373.475 294.86C373.597 294.86 373.755 294.794 373.951 294.662C374.146 294.525 374.356 294.347 374.58 294.128C374.81 293.903 375.042 293.649 375.276 293.366C375.515 293.078 375.735 292.783 375.935 292.48C376.14 292.177 376.316 291.88 376.462 291.587C376.613 291.294 376.716 291.028 376.77 290.789C376.784 290.716 376.801 290.63 376.821 290.532C376.84 290.43 376.857 290.33 376.872 290.232C376.892 290.13 376.906 290.037 376.916 289.954C376.931 289.866 376.938 289.803 376.938 289.764ZM382.664 290.606C382.664 290.772 382.615 290.95 382.517 291.14C382.425 291.326 382.32 291.497 382.203 291.653C381.895 292.068 381.573 292.448 381.236 292.795C380.904 293.137 380.567 293.461 380.226 293.769C379.869 294.091 379.513 294.342 379.157 294.523C378.805 294.704 378.488 294.794 378.205 294.794C378.083 294.794 377.961 294.765 377.839 294.706C377.721 294.647 377.609 294.572 377.502 294.479C377.399 294.381 377.307 294.269 377.224 294.142C377.145 294.015 377.084 293.884 377.041 293.747C377.016 293.674 376.994 293.591 376.975 293.498C376.955 293.4 376.936 293.312 376.916 293.234C376.897 293.151 376.875 293.083 376.85 293.029C376.826 292.971 376.799 292.941 376.77 292.941C376.75 292.941 376.709 292.973 376.645 293.037C376.582 293.1 376.506 293.183 376.418 293.286C376.335 293.383 376.245 293.495 376.147 293.622C376.05 293.744 375.952 293.864 375.854 293.981C375.762 294.098 375.676 294.206 375.598 294.303C375.525 294.401 375.466 294.474 375.422 294.523C375.271 294.694 375.09 294.87 374.881 295.05C374.675 295.226 374.468 295.387 374.258 295.533C374.053 295.68 373.863 295.799 373.687 295.892C373.516 295.985 373.389 296.031 373.306 296.031C373.121 296.031 372.94 296.002 372.764 295.943C372.594 295.88 372.442 295.79 372.31 295.673C372.179 295.555 372.071 295.411 371.988 295.241C371.91 295.07 371.871 294.874 371.871 294.655C371.871 294.294 371.942 293.881 372.083 293.417C372.23 292.954 372.42 292.483 372.655 292.004C372.894 291.526 373.167 291.067 373.475 290.628C373.782 290.183 374.102 289.803 374.434 289.485C374.819 289.119 375.222 288.851 375.642 288.68C376.067 288.504 376.501 288.416 376.945 288.416C377.028 288.416 377.099 288.433 377.158 288.468C377.221 288.502 377.275 288.546 377.319 288.599C377.363 288.653 377.402 288.714 377.436 288.782C377.47 288.846 377.504 288.912 377.538 288.98C377.558 289.024 377.599 289.073 377.663 289.127C377.726 289.18 377.792 289.236 377.861 289.295C377.929 289.349 377.988 289.402 378.036 289.456C378.09 289.51 378.117 289.561 378.117 289.61C378.117 289.712 378.095 289.827 378.051 289.954C378.012 290.076 377.968 290.22 377.919 290.386C377.87 290.547 377.824 290.733 377.78 290.943C377.741 291.148 377.721 291.384 377.721 291.653C377.721 291.828 377.736 292.029 377.765 292.253C377.8 292.478 377.848 292.692 377.912 292.897C377.98 293.098 378.066 293.266 378.168 293.403C378.271 293.539 378.39 293.608 378.527 293.608C378.693 293.608 378.859 293.561 379.025 293.469C379.191 293.371 379.381 293.237 379.596 293.066C380.074 292.685 380.528 292.268 380.958 291.814C381.387 291.36 381.827 290.908 382.276 290.459C382.354 290.381 382.427 290.342 382.495 290.342C382.608 290.342 382.664 290.43 382.664 290.606ZM393.112 290.825C393.112 290.977 393.061 291.157 392.959 291.367C392.856 291.577 392.741 291.731 392.615 291.828C392.126 292.224 391.585 292.592 390.989 292.934C390.398 293.276 389.744 293.615 389.027 293.952C388.309 294.289 387.623 294.579 386.969 294.823C386.315 295.067 385.683 295.27 385.073 295.431C385.019 295.45 384.924 295.46 384.787 295.46C384.553 295.46 384.328 295.397 384.114 295.27C383.904 295.138 383.799 294.95 383.799 294.706C383.799 294.618 383.828 294.545 383.887 294.486C383.97 294.403 384.136 294.316 384.385 294.223C384.638 294.13 384.961 294.02 385.351 293.893C385.546 293.83 385.71 293.774 385.842 293.725C385.978 293.676 386.081 293.635 386.149 293.6C386.462 293.434 386.75 293.212 387.013 292.934C387.282 292.656 387.504 292.363 387.679 292.055C387.919 291.655 388.038 291.301 388.038 290.994C388.038 290.33 387.823 289.998 387.394 289.998C387.145 289.998 386.828 290.098 386.442 290.298C386.252 290.396 386.076 290.496 385.915 290.598C385.759 290.701 385.617 290.801 385.49 290.899C385.285 291.065 385.068 291.292 384.839 291.58C384.609 291.863 384.385 292.17 384.165 292.502C383.945 292.834 383.738 293.171 383.543 293.513C383.352 293.849 383.191 294.154 383.059 294.428C383.035 294.652 383.01 294.904 382.986 295.182C382.962 295.455 382.935 295.758 382.906 296.09C382.852 296.754 382.791 297.379 382.722 297.964C382.654 298.555 382.578 299.065 382.495 299.495C382.481 299.583 382.466 299.67 382.452 299.758C382.437 299.846 382.42 299.912 382.4 299.956C382.342 300.107 382.237 300.183 382.085 300.183C381.949 300.183 381.766 300.112 381.536 299.971C381.317 299.834 381.207 299.7 381.207 299.568C381.207 299.485 381.212 299.385 381.221 299.268C381.231 299.155 381.246 299.026 381.265 298.88C381.304 298.484 381.339 298.145 381.368 297.862C381.402 297.584 381.431 297.362 381.456 297.196C381.524 296.693 381.585 296.151 381.639 295.57C381.692 294.984 381.736 294.347 381.771 293.659C381.78 293.459 381.788 293.164 381.793 292.773C381.802 292.373 381.81 292.029 381.815 291.741C381.824 291.448 381.836 291.204 381.851 291.008C381.919 290.076 382.164 289.61 382.583 289.61C382.749 289.61 382.896 289.683 383.023 289.83C383.15 289.981 383.213 290.137 383.213 290.298C383.213 290.469 383.194 290.657 383.154 290.862C383.12 291.067 383.081 291.277 383.037 291.492C382.998 291.706 382.959 291.919 382.92 292.129C382.886 292.334 382.869 292.519 382.869 292.685C382.869 292.827 382.884 292.897 382.913 292.897C383.255 292.282 383.589 291.748 383.916 291.294C384.248 290.84 384.577 290.459 384.904 290.152C385.388 289.703 385.851 289.38 386.296 289.185C386.735 288.99 387.267 288.892 387.892 288.892C388.072 288.887 388.234 288.948 388.375 289.075C388.522 289.202 388.646 289.361 388.749 289.551C388.851 289.737 388.929 289.937 388.983 290.152C389.037 290.362 389.063 290.547 389.063 290.708C389.068 290.952 389.027 291.209 388.939 291.477C388.856 291.741 388.744 292.004 388.602 292.268C388.461 292.527 388.299 292.778 388.119 293.022C387.938 293.261 387.753 293.473 387.562 293.659C388.046 293.478 388.59 293.237 389.195 292.934C389.805 292.627 390.376 292.297 390.909 291.946C391.445 291.594 391.929 291.235 392.358 290.869C392.568 290.698 392.754 290.613 392.915 290.613C393.047 290.613 393.112 290.684 393.112 290.825ZM394.877 285.729C394.877 286.046 394.794 286.317 394.628 286.542C394.467 286.766 394.23 286.879 393.918 286.879C393.723 286.879 393.505 286.849 393.266 286.791C393.032 286.732 392.915 286.637 392.915 286.505C392.915 286.266 392.988 286.039 393.134 285.824C393.286 285.605 393.466 285.427 393.676 285.29C393.842 285.192 393.952 285.143 394.006 285.143C394.284 285.143 394.499 285.182 394.65 285.261C394.801 285.334 394.877 285.49 394.877 285.729ZM399.673 291.682C399.678 291.785 399.632 291.924 399.534 292.099C399.441 292.275 399.312 292.475 399.146 292.7C398.985 292.919 398.794 293.156 398.575 293.41C398.36 293.664 398.133 293.918 397.894 294.172C397.62 294.464 397.33 294.748 397.022 295.021C396.72 295.289 396.395 295.551 396.049 295.804C395.365 296.312 394.755 296.566 394.218 296.566C393.627 296.566 393.169 296.368 392.842 295.973C392.514 295.572 392.292 295.089 392.175 294.523C392.058 293.962 392 293.383 392 292.788C392 292.539 392.029 292.151 392.087 291.623C392.117 291.36 392.146 291.133 392.175 290.943C392.205 290.752 392.236 290.598 392.27 290.481C392.339 290.252 392.483 290.052 392.702 289.881C392.927 289.7 393.161 289.61 393.405 289.61C393.537 289.61 393.603 289.734 393.603 289.983C393.603 290.149 393.586 290.337 393.552 290.547C393.523 290.757 393.491 290.964 393.457 291.169C393.393 291.555 393.347 291.902 393.317 292.209C393.288 292.512 393.274 292.775 393.274 293C393.274 293.493 393.342 293.991 393.479 294.494C393.615 295.006 393.862 295.263 394.218 295.263C394.579 295.263 394.999 295.131 395.477 294.867C395.717 294.73 395.956 294.579 396.195 294.413C396.434 294.247 396.673 294.062 396.913 293.857C397.157 293.652 397.391 293.447 397.616 293.242C397.84 293.032 398.06 292.817 398.275 292.597C398.489 292.378 398.682 292.173 398.853 291.982C399.024 291.792 399.173 291.616 399.3 291.455C399.304 291.445 399.312 291.431 399.322 291.411C399.336 291.387 399.351 291.365 399.366 291.345C399.38 291.321 399.395 291.301 399.409 291.287C399.424 291.272 399.439 291.267 399.453 291.272C399.522 291.272 399.573 291.326 399.607 291.433C399.651 291.536 399.673 291.619 399.673 291.682ZM406.358 289.998C406.358 290.179 406.309 290.318 406.212 290.415C406.114 290.508 406.002 290.591 405.875 290.664C405.714 290.737 405.533 290.803 405.333 290.862C405.138 290.921 404.935 290.974 404.725 291.023C404.52 291.067 404.313 291.106 404.103 291.14C403.893 291.169 403.693 291.194 403.502 291.213C403.297 291.233 403.08 291.252 402.851 291.272C402.621 291.292 402.399 291.313 402.185 291.338C401.97 291.357 401.77 291.382 401.584 291.411C401.403 291.44 401.257 291.477 401.145 291.521C401.042 291.965 400.932 292.39 400.815 292.795C400.703 293.195 400.608 293.596 400.53 293.996C400.51 294.089 400.483 294.228 400.449 294.413C400.42 294.599 400.391 294.794 400.361 294.999C400.332 295.199 400.305 295.389 400.281 295.57C400.261 295.746 400.251 295.873 400.251 295.951C400.251 296.151 400.283 296.302 400.347 296.405C400.41 296.502 400.478 296.58 400.552 296.639C400.63 296.703 400.701 296.761 400.764 296.815C400.827 296.868 400.859 296.949 400.859 297.056C400.859 297.125 400.825 297.191 400.757 297.254C400.693 297.318 400.615 297.374 400.522 297.423C400.43 297.471 400.33 297.508 400.222 297.532C400.12 297.562 400.029 297.576 399.951 297.576C399.81 297.576 399.683 297.537 399.571 297.459C399.458 297.381 399.363 297.279 399.285 297.152C399.207 297.03 399.146 296.888 399.102 296.727C399.058 296.566 399.036 296.4 399.036 296.229C399.036 296.004 399.056 295.765 399.095 295.511C399.134 295.253 399.182 294.989 399.241 294.721C399.3 294.452 399.361 294.179 399.424 293.901C399.492 293.617 399.556 293.337 399.614 293.059C399.639 292.941 399.663 292.822 399.688 292.7C399.717 292.573 399.741 292.456 399.761 292.348C399.785 292.236 399.805 292.143 399.819 292.07C399.834 291.997 399.841 291.953 399.841 291.938C399.841 291.86 399.812 291.802 399.754 291.763C399.7 291.719 399.634 291.697 399.556 291.697C399.497 291.697 399.409 291.702 399.292 291.711C399.175 291.721 399.051 291.733 398.919 291.748C398.792 291.763 398.67 291.775 398.553 291.785C398.436 291.794 398.35 291.799 398.296 291.799C398.121 291.799 397.972 291.789 397.85 291.77C397.728 291.745 397.628 291.704 397.55 291.645C397.476 291.587 397.423 291.506 397.389 291.404C397.35 291.296 397.33 291.16 397.33 290.994C397.33 290.925 397.362 290.872 397.425 290.833C397.489 290.794 397.564 290.767 397.652 290.752C397.745 290.733 397.843 290.723 397.945 290.723C398.048 290.718 398.138 290.716 398.216 290.716C398.279 290.716 398.382 290.711 398.523 290.701C398.67 290.686 398.821 290.672 398.977 290.657C399.139 290.642 399.29 290.63 399.431 290.62C399.578 290.606 399.683 290.598 399.746 290.598C399.776 290.598 399.81 290.596 399.849 290.591C399.888 290.586 399.927 290.574 399.966 290.554C400.01 290.53 400.049 290.493 400.083 290.445C400.117 290.391 400.147 290.318 400.171 290.225C400.205 290.074 400.247 289.898 400.295 289.698C400.344 289.493 400.393 289.285 400.442 289.075C400.496 288.861 400.547 288.656 400.596 288.46C400.644 288.26 400.686 288.089 400.72 287.948C400.764 287.811 400.801 287.665 400.83 287.508C400.864 287.352 400.893 287.196 400.918 287.04C400.947 286.884 400.979 286.732 401.013 286.586C401.047 286.439 401.091 286.305 401.145 286.183C401.252 285.929 401.425 285.802 401.665 285.802C402.026 285.802 402.206 286.003 402.206 286.403C402.206 286.652 402.153 286.937 402.045 287.26C401.811 288.001 401.638 288.614 401.526 289.097C401.413 289.576 401.357 289.898 401.357 290.064C401.357 290.244 401.447 290.335 401.628 290.335C401.848 290.335 402.053 290.332 402.243 290.327C402.438 290.318 402.634 290.305 402.829 290.291C403.029 290.271 403.239 290.249 403.459 290.225C403.678 290.201 403.925 290.174 404.198 290.144C404.393 290.12 404.579 290.091 404.755 290.057C404.935 290.022 405.101 289.991 405.252 289.961C405.404 289.927 405.538 289.895 405.655 289.866C405.772 289.837 405.87 289.817 405.948 289.808C406.002 289.803 406.053 289.795 406.102 289.786C406.156 289.776 406.199 289.776 406.234 289.786C406.273 289.79 406.302 289.81 406.321 289.844C406.346 289.873 406.358 289.925 406.358 289.998ZM408.233 290.686C408.233 290.637 408.213 290.584 408.174 290.525C408.14 290.462 408.093 290.403 408.035 290.349C407.981 290.291 407.92 290.242 407.852 290.203C407.783 290.164 407.72 290.144 407.661 290.144C407.51 290.144 407.369 290.169 407.237 290.218C407.11 290.266 406.99 290.33 406.878 290.408C406.766 290.481 406.661 290.567 406.563 290.664C406.47 290.762 406.387 290.86 406.314 290.957C406.138 291.182 405.958 291.457 405.772 291.785C405.592 292.107 405.426 292.446 405.274 292.802C405.128 293.159 405.006 293.51 404.908 293.857C404.816 294.203 404.769 294.511 404.769 294.779C404.769 294.916 404.83 295.033 404.952 295.131C405.074 295.228 405.238 295.277 405.443 295.277C405.56 295.277 405.699 295.226 405.86 295.123C406.026 295.016 406.197 294.877 406.373 294.706C406.553 294.53 406.729 294.333 406.9 294.113C407.076 293.893 407.229 293.666 407.361 293.432C407.61 292.993 407.818 292.551 407.984 292.107C408.15 291.658 408.233 291.184 408.233 290.686ZM414.185 290.349C414.185 290.393 414.149 290.515 414.076 290.716C414.007 290.916 413.905 291.16 413.768 291.448C413.636 291.731 413.473 292.043 413.277 292.385C413.087 292.727 412.872 293.059 412.633 293.381C412.34 293.781 412.05 294.13 411.762 294.428C411.474 294.726 411.198 294.975 410.934 295.175C410.676 295.37 410.436 295.519 410.217 295.621C409.997 295.719 409.807 295.768 409.646 295.768C409.377 295.768 409.16 295.731 408.994 295.658C408.828 295.58 408.691 295.465 408.584 295.314C408.477 295.158 408.389 294.962 408.32 294.728C408.257 294.489 408.193 294.208 408.13 293.886H408.028C407.823 294.198 407.598 294.508 407.354 294.816C407.115 295.119 406.863 295.392 406.6 295.636C406.341 295.875 406.073 296.07 405.794 296.222C405.521 296.373 405.25 296.449 404.982 296.449C404.84 296.449 404.691 296.424 404.535 296.375C404.379 296.322 404.235 296.239 404.103 296.127C403.971 296.014 403.861 295.873 403.773 295.702C403.686 295.526 403.642 295.316 403.642 295.072C403.642 294.857 403.668 294.613 403.722 294.34C403.776 294.062 403.849 293.774 403.942 293.476C404.035 293.173 404.14 292.871 404.257 292.568C404.379 292.26 404.506 291.97 404.637 291.697C404.774 291.423 404.911 291.177 405.047 290.957C405.184 290.733 405.316 290.554 405.443 290.423C405.589 290.266 405.76 290.108 405.955 289.947C406.156 289.786 406.375 289.639 406.614 289.507C406.854 289.376 407.11 289.268 407.383 289.185C407.657 289.097 407.945 289.053 408.247 289.053C408.491 289.053 408.674 289.134 408.796 289.295C408.918 289.451 409.004 289.69 409.053 290.013C409.057 290.042 409.075 290.076 409.104 290.115C409.138 290.154 409.172 290.198 409.206 290.247C409.245 290.296 409.28 290.347 409.309 290.401C409.338 290.449 409.353 290.501 409.353 290.554C409.353 290.633 409.336 290.73 409.302 290.847C409.267 290.96 409.228 291.089 409.184 291.235C409.145 291.377 409.109 291.533 409.075 291.704C409.04 291.87 409.023 292.046 409.023 292.231C409.023 292.485 409.026 292.756 409.031 293.044C409.036 293.332 409.062 293.598 409.111 293.842C409.165 294.081 409.25 294.281 409.367 294.442C409.489 294.604 409.665 294.684 409.895 294.684C410.012 294.684 410.151 294.635 410.312 294.538C410.478 294.44 410.659 294.303 410.854 294.128C411.054 293.952 411.261 293.742 411.476 293.498C411.696 293.254 411.92 292.985 412.15 292.692C412.413 292.356 412.643 292.024 412.838 291.697C413.033 291.365 413.204 291.072 413.351 290.818C413.497 290.559 413.622 290.352 413.724 290.196C413.827 290.035 413.914 289.954 413.988 289.954H413.995C414.078 289.959 414.132 289.983 414.156 290.027C414.18 290.071 414.193 290.127 414.193 290.196C414.193 290.22 414.193 290.244 414.193 290.269C414.193 290.293 414.19 290.32 414.185 290.349ZM419.23 293.498C419.23 293.556 419.206 293.642 419.157 293.754C419.113 293.862 419.055 293.976 418.981 294.098C418.913 294.215 418.84 294.333 418.762 294.45C418.688 294.567 418.623 294.665 418.564 294.743C418.369 294.996 418.142 295.243 417.883 295.482C417.629 295.716 417.363 295.926 417.085 296.112C416.807 296.297 416.524 296.446 416.236 296.559C415.952 296.671 415.682 296.727 415.423 296.727C415.027 296.727 414.686 296.649 414.398 296.493C414.115 296.336 413.88 296.109 413.695 295.812C413.514 295.509 413.38 295.138 413.292 294.699C413.204 294.255 413.16 293.749 413.16 293.183C413.16 292.832 413.175 292.448 413.204 292.033C413.234 291.614 413.275 291.182 413.329 290.737C413.382 290.288 413.446 289.837 413.519 289.383C413.592 288.929 413.673 288.492 413.761 288.072C413.849 287.652 413.941 287.262 414.039 286.901C414.137 286.535 414.237 286.217 414.339 285.949C414.447 285.675 414.551 285.461 414.654 285.305C414.761 285.148 414.864 285.07 414.962 285.07C415.079 285.07 415.179 285.121 415.262 285.224C415.35 285.322 415.42 285.427 415.474 285.539C415.42 286.007 415.318 286.581 415.167 287.26C415.02 287.938 414.844 288.739 414.639 289.661C414.581 289.92 414.53 290.188 414.486 290.467C414.447 290.74 414.412 291.016 414.383 291.294C414.359 291.572 414.339 291.848 414.325 292.121C414.31 292.39 414.303 292.644 414.303 292.883C414.303 293.737 414.412 294.394 414.632 294.852C414.857 295.306 415.232 295.533 415.76 295.533C416.009 295.533 416.255 295.487 416.499 295.394C416.743 295.297 416.975 295.175 417.195 295.028C417.419 294.877 417.632 294.713 417.832 294.538C418.032 294.357 418.217 294.181 418.388 294.01C418.442 293.957 418.505 293.888 418.579 293.805C418.657 293.722 418.73 293.644 418.798 293.571C418.872 293.493 418.937 293.427 418.996 293.373C419.055 293.315 419.094 293.286 419.113 293.286C419.191 293.286 419.23 293.356 419.23 293.498ZM420.665 286.359C420.661 286.632 420.59 287.028 420.453 287.545C420.321 288.058 420.146 288.507 419.926 288.892C419.711 289.283 419.467 289.478 419.194 289.478C419.047 289.478 418.92 289.434 418.813 289.346C418.706 289.258 418.652 289.146 418.652 289.009C418.652 288.961 418.659 288.907 418.674 288.848C418.693 288.785 418.718 288.724 418.747 288.665C418.776 288.607 418.808 288.553 418.842 288.504C418.876 288.451 418.913 288.409 418.952 288.38C419.084 288.263 419.194 288.148 419.282 288.036C419.369 287.918 419.44 287.799 419.494 287.677C419.548 287.55 419.587 287.416 419.611 287.274C419.635 287.133 419.648 286.976 419.648 286.806C419.648 286.635 419.587 286.481 419.465 286.344C419.343 286.188 419.196 286.037 419.025 285.89C418.85 285.739 418.762 285.644 418.762 285.605C418.762 285.575 418.759 285.536 418.754 285.488C418.754 285.439 418.752 285.39 418.747 285.341C418.742 285.292 418.737 285.246 418.732 285.202C418.732 285.153 418.732 285.114 418.732 285.085C418.732 284.992 418.737 284.921 418.747 284.873C418.767 284.814 418.869 284.748 419.055 284.675C419.23 284.597 419.357 284.558 419.435 284.558C419.484 284.558 419.572 284.614 419.699 284.726C419.762 284.78 419.826 284.841 419.889 284.909C419.953 284.973 420.019 285.038 420.087 285.107C420.224 285.248 420.307 285.341 420.336 285.385C420.468 285.59 420.553 285.751 420.592 285.868C420.641 285.981 420.665 286.144 420.665 286.359Z" fill="black"/>
</svg>
